<svg width="46" height="46" viewBox="0 0 46 46" fill="none" xmlns="http://www.w3.org/2000/svg">
<path d="M1.72137 0.140141C1.1991 0.320557 0.303772 1.29029 0.143892 1.86536C-0.047964 2.54192 -0.047964 43.451 0.143892 44.1276C0.314431 44.7477 1.1991 45.6836 1.78533 45.8641C2.11574 45.9655 4.63119 45.9994 11.975 45.9994C23.0387 45.9994 22.3672 46.0558 23.1773 45.0973C23.4331 44.8041 23.6995 44.3531 23.7635 44.105C23.9447 43.4623 23.9447 2.53064 23.7635 1.88791C23.6995 1.63984 23.4331 1.1888 23.1773 0.895626C22.3672 -0.0628281 23.0494 -0.00644684 11.9111 0.00482941C5.07885 0.0161057 1.97718 0.0499306 1.72137 0.140141ZM6.83753 2.42915C6.83753 2.77871 6.89082 3.27485 6.96544 3.5342C7.13597 4.15437 8.02064 5.09027 8.60687 5.27069C8.90531 5.3609 9.9925 5.406 11.975 5.406C15.4178 5.406 15.6309 5.3609 16.3557 4.50393C16.878 3.88375 17.0698 3.34251 17.0698 2.42915V1.7977H19.3615C21.6637 1.7977 21.6637 1.7977 21.9195 2.0796L22.186 2.35022V22.9965V43.6427L21.9195 43.9133L21.6637 44.1952H11.9537H2.24365L1.98784 43.9133L1.72137 43.6427V22.9965V2.35022L1.98784 2.0796C2.24365 1.7977 2.24365 1.7977 4.54592 1.7977H6.83753V2.42915ZM15.3645 2.41788C15.3645 2.93657 15.3218 3.09444 15.098 3.31995L14.8422 3.60185H11.9537H9.06519L8.80938 3.31995C8.58555 3.09444 8.54292 2.93657 8.54292 2.41788V1.7977H11.9537H15.3645V2.41788Z" fill="#1B1B1B"/>
<path d="M10.4828 14.6522C5.86756 15.5317 2.70194 20.3353 3.57595 25.1614C4.21547 28.6795 6.58169 31.3406 9.92851 32.3103C10.8878 32.5922 13.0195 32.5922 13.9788 32.3103C15.6202 31.8367 16.8566 31.0812 18.0078 29.8522C22.1114 25.4996 20.8856 18.1139 15.6416 15.4415C15.1619 15.2047 14.4904 14.9228 14.1387 14.8213C13.3713 14.6071 11.2608 14.5056 10.4828 14.6522ZM13.3926 16.5127C16.6222 17.2231 18.9244 20.4367 18.7432 23.9661C18.594 26.8189 16.782 29.3898 14.2453 30.337C12.3267 31.0474 10.195 30.8219 8.44696 29.7394C7.69019 29.2658 6.56038 28.0706 6.11271 27.2587C4.51391 24.3946 4.9296 20.8201 7.1466 18.486C8.84133 16.7044 11.0796 16.0053 13.3926 16.5127Z" fill="#1B1B1B"/>
<path d="M13.0516 22.4551L11.1011 24.5073L10.0352 23.391C9.07591 22.3875 8.93735 22.2747 8.58562 22.2747C8.10598 22.2747 7.79688 22.6243 7.79688 23.188C7.79688 23.5376 7.93544 23.7293 9.04394 24.9245C10.4189 26.413 10.8772 26.7738 11.2396 26.6723C11.5487 26.5821 15.9721 21.9815 16.1106 21.5981C16.2385 21.2373 16.1 20.8314 15.7696 20.5833C15.2473 20.1999 15.1087 20.2901 13.0516 22.4551Z" fill="#1B1B1B"/>
<path d="M33.6973 3.55667C33.3775 3.64688 32.706 3.92878 32.2051 4.17685C30.9473 4.83085 29.7536 6.09376 29.1247 7.44687C27.8243 10.2771 28.0269 12.8706 29.8708 16.7721C30.7555 18.6552 31.7041 20.2563 33.143 22.3086C34.6352 24.4397 34.9656 24.8005 35.4027 24.8005C35.829 24.8005 36.0955 24.5074 37.6303 22.3537C39.9965 19.016 41.5847 15.8925 42.2349 13.2765C42.544 12.0813 42.5653 10.2095 42.2988 9.12699C41.7659 6.98456 40.3483 5.07893 38.6003 4.18813C38.0993 3.92878 37.4065 3.6356 37.0547 3.5454C36.2553 3.33116 34.486 3.33116 33.6973 3.55667ZM36.8416 5.34955C39.325 6.03738 41.0198 8.72105 40.7853 11.6077C40.6041 13.9305 38.7708 17.832 36.2234 21.3388C35.861 21.835 35.5306 22.2973 35.4879 22.3649C35.4027 22.5002 35.2321 22.2973 34.1343 20.6848C32.301 17.9899 31.0752 15.6558 30.4251 13.581C30.0733 12.4534 30.0413 12.2279 30.0413 11.1003C30.0307 10.0516 30.0733 9.73589 30.3078 9.05933C30.9367 7.18752 32.2583 5.83441 33.9211 5.36082C34.6885 5.14658 36.0635 5.13531 36.8416 5.34955Z" fill="#1B1B1B"/>
<path d="M34.156 7.54852C33.3991 7.86425 32.5996 8.65356 32.2372 9.44288C31.9814 9.9954 31.9387 10.2209 31.9387 11.0441C31.9387 11.8108 31.992 12.104 32.1839 12.5212C32.5783 13.3669 33.1113 13.9307 33.8895 14.3366C34.5078 14.6636 34.7103 14.7087 35.4139 14.7087C36.1068 14.7087 36.32 14.6524 36.9276 14.3366C37.6951 13.9307 38.2281 13.3556 38.6119 12.5212C38.8038 12.1153 38.8571 11.7995 38.8571 11.0441C38.8677 10.2209 38.8251 9.9954 38.5692 9.45415C38.2281 8.69867 37.5032 7.96573 36.8103 7.62745C36.0748 7.28917 34.8702 7.25535 34.156 7.54852ZM36.32 9.40905C36.821 9.72478 37.2154 10.4239 37.2154 11.0215C37.2154 12.6114 35.3712 13.5135 34.2626 12.4761C33.559 11.8221 33.4098 10.9877 33.8362 10.1307C34.3159 9.17226 35.4139 8.84525 36.32 9.40905Z" fill="#1B1B1B"/>
<path d="M25.8632 24.1804C25.3303 24.7329 25.7033 25.7026 26.4494 25.7026C26.9077 25.7026 27.9097 26.0747 29.0501 26.6836C30.2865 27.3376 33.0365 28.9614 33.1111 29.0854C33.2283 29.2771 31.0326 29.3448 28.8476 29.1982C26.0124 29.0178 26.1297 29.0065 25.8419 29.3673C25.5328 29.7394 25.5328 30.1228 25.8419 30.4949C26.1723 30.9121 27.2275 31.0362 30.4997 31.0474C33.3776 31.0474 33.7826 30.9798 34.6459 30.3258L35.0723 29.9988L37.236 30.664C40.1565 31.5548 42.2136 32.2878 43.2475 32.8065C44.1002 33.2237 44.1108 33.235 44.1748 33.7198C44.2174 33.9904 44.2814 34.8474 44.3133 35.6255C44.3773 36.8207 44.356 37.0913 44.2068 37.3958C43.9936 37.8468 43.8124 37.9483 43.0663 38.0498L42.4694 38.1287L42.4161 37.2943C42.2029 33.7537 38.2379 32.0284 35.7758 34.3964C34.955 35.197 34.5287 36.1441 34.4647 37.3281L34.4114 38.2189H33.0685C32.333 38.2189 30.4571 38.2528 28.9009 38.2979C26.151 38.3655 26.0764 38.3768 25.8419 38.6249C25.5115 38.9744 25.5221 39.5044 25.8632 39.8652L26.1297 40.1471L30.6063 40.0682L35.0829 39.9892L35.6692 40.5756C36.33 41.2409 36.9482 41.5679 37.8009 41.7145C39.016 41.9287 40.5295 41.3762 41.3183 40.4516C41.6807 40.0343 41.7233 40.0231 42.6826 39.9103C44.324 39.7299 44.729 39.6059 45.1021 39.1661C45.2726 38.9519 45.5497 38.5121 45.7203 38.1851C45.9974 37.6213 46.0081 37.5424 45.9974 35.9074C45.9867 34.0807 45.8588 33.0433 45.5817 32.4231C45.1554 31.4872 43.2262 30.6302 37.6943 28.9163L35.0296 28.0931L32.4396 26.5709C28.1761 24.0676 26.5347 23.47 25.8632 24.1804ZM38.9734 35.1857C39.9966 35.4789 40.732 36.4712 40.732 37.5311C40.7214 39.0872 39.2931 40.2599 37.8755 39.8652C36.7137 39.5495 36.0955 38.6361 36.1701 37.3845C36.2341 36.2907 36.735 35.5916 37.7263 35.2195C38.2166 35.0391 38.4298 35.0278 38.9734 35.1857Z" fill="#1B1B1B"/>
<path d="M25.8634 33.2011C25.3304 33.7537 25.7035 34.7234 26.4497 34.7234C26.8868 34.7234 27.3025 34.2836 27.3025 33.8213C27.3025 33.359 26.8868 32.9192 26.4497 32.9192C26.2472 32.9192 26.0233 33.0207 25.8634 33.2011Z" fill="#1B1B1B"/>
<path d="M30.1268 33.2011C29.5938 33.7537 29.9669 34.7234 30.7131 34.7234C31.1502 34.7234 31.5659 34.2836 31.5659 33.8213C31.5659 33.359 31.1502 32.9192 30.7131 32.9192C30.5106 32.9192 30.2867 33.0207 30.1268 33.2011Z" fill="#1B1B1B"/>
<path d="M27.995 35.0053C27.462 35.5579 27.8351 36.5276 28.5813 36.5276C29.0184 36.5276 29.4341 36.0878 29.4341 35.6255C29.4341 35.1632 29.0184 34.7234 28.5813 34.7234C28.3788 34.7234 28.1549 34.8249 27.995 35.0053Z" fill="#1B1B1B"/>
</svg>
