<svg width="40" height="46" viewBox="0 0 40 46" fill="none" xmlns="http://www.w3.org/2000/svg">
<path d="M10.0926 3.98355C4.76852 6.17764 0.324074 8.04801 0.212963 8.15591L0 8.34475V14.7112C0 21.2125 0.0462963 22.3545 0.37963 24.3598C1.81481 33.0822 7.75926 40.7884 15.9352 44.5382C17.1111 45.0777 19.4074 45.9319 19.8519 45.9949C20.0278 46.0219 20.4444 45.9409 20.9259 45.7791C24.9074 44.4482 28.5093 42.3171 31.4722 39.5205C36.3796 34.8806 39.3148 28.8379 39.9074 22.1567C39.9537 21.5542 40 18.2901 40 14.7292C40 8.80335 39.9907 8.36273 39.8426 8.19188C39.6481 7.97607 20.2685 -0.017954 19.963 3.027e-05C19.8611 3.027e-05 15.4167 1.79846 10.0926 3.98355ZM29.3796 5.34137L38.5278 9.10009L38.4907 15.7183C38.4537 22.7682 38.4352 23.002 37.9537 25.295C36.5093 32.075 32.2593 38.0368 26.25 41.7326C24.2222 42.9735 20.8333 44.4482 20 44.4482C19.4907 44.4482 18.213 43.9896 16.5093 43.1983C9.36111 39.8802 4.14815 33.6666 2.27778 26.2211C1.55556 23.3886 1.5463 23.2088 1.50926 15.7633L1.47222 9.10908L10.6667 5.31439C15.7222 3.23721 19.9444 1.53769 20.0463 1.55567C20.1481 1.56466 24.3519 3.27317 29.3796 5.34137Z" fill="#1B1B1B"/>
<path d="M12.3147 7.58039C8.21284 9.36983 4.76839 10.9255 4.64802 11.0424L4.43506 11.2402L4.4721 17.0581C4.50913 23.2267 4.51839 23.3976 4.99987 25.5737C6.55543 32.5516 11.861 38.6033 18.7777 41.301C19.361 41.5348 19.9073 41.7146 19.9906 41.7146C20.2221 41.7146 21.648 41.1481 22.8332 40.5816C25.0277 39.5475 26.9906 38.1627 28.8425 36.3643C32.361 32.9562 34.4721 28.8648 35.3332 23.8202C35.4721 23.0109 35.4999 22.0398 35.5277 17.0671C35.5647 11.5549 35.5554 11.2582 35.398 11.0693C35.2036 10.8445 20.2684 4.30725 19.9721 4.31624C19.861 4.31624 16.4165 5.79095 12.3147 7.58039ZM27.0369 8.89325L34.0277 11.9416L34.0184 17.4088V22.876L33.7684 24.1799C32.6758 30.0158 29.4721 34.7906 24.4906 38.0098C23.4814 38.6573 21.2777 39.7723 20.4443 40.0421L19.9165 40.2219L19.2869 39.9611C14.3425 37.9649 10.4258 34.404 8.10173 29.8C7.44432 28.4871 6.78691 26.7157 6.49061 25.4388C5.99061 23.2447 5.99061 23.2267 5.95358 17.4358L5.91654 11.9865L6.96284 11.519C9.04617 10.5928 19.9536 5.83592 19.9999 5.83592C20.0277 5.83592 23.1943 7.21171 27.0369 8.89325Z" fill="#1B1B1B"/>
<path d="M27.3149 15.1609C26.963 15.2778 26.2686 15.9073 22.713 19.3513L18.5186 23.4067L16.5556 21.5184C14.8611 19.8908 14.5186 19.603 14.1297 19.4681C13.2315 19.1804 12.3519 19.3692 11.713 19.9987C11.0649 20.6191 10.8704 21.4734 11.1667 22.3456C11.3056 22.7323 11.6574 23.119 14.2037 25.6008C17.3611 28.6851 17.5926 28.856 18.5093 28.856C19.5186 28.856 19.5 28.8739 25.0556 23.4517C29.6667 18.9466 30.176 18.4251 30.3149 18.0294C30.6111 17.1482 30.4167 16.3029 29.7686 15.6825C29.1297 15.053 28.213 14.8642 27.3149 15.1609ZM28.713 16.7076C28.8982 16.8964 28.9815 17.0583 28.9815 17.2741C28.9815 17.5438 28.5649 17.9755 23.9167 22.4895C19.1297 27.1385 18.8241 27.4172 18.5186 27.4172C18.213 27.4172 18.0093 27.2374 15.3426 24.6476C12.7686 22.1388 12.5 21.8511 12.5 21.5813C12.5 21.1767 12.926 20.763 13.3426 20.763C13.6111 20.763 13.8797 20.9878 15.926 22.9661C18.0093 24.9803 18.2315 25.1692 18.5186 25.1692C18.8149 25.1692 19.1667 24.8544 23.3334 20.808C27.4445 16.8155 27.8519 16.4468 28.1389 16.4468C28.3519 16.4468 28.5186 16.5277 28.713 16.7076Z" fill="#1B1B1B"/>
</svg>
