<svg width="47" height="46" viewBox="0 0 47 46" fill="none" xmlns="http://www.w3.org/2000/svg">
<path d="M17.2151 0.0809708C10.5756 0.782711 4.80873 4.83121 1.90281 10.841C-0.904157 16.6349 -0.589274 23.5083 2.7395 29.0413C4.33191 31.6953 6.76101 34.1154 9.39704 35.6628C11.7542 37.0483 14.3362 37.903 17.1162 38.2269C18.2768 38.3618 21.2727 38.2808 22.3433 38.0919C25.3302 37.5431 28.2991 36.2926 30.4403 34.6732L30.9801 34.2683L32.3835 35.6718C33.6251 36.9044 33.796 37.1113 33.841 37.4172C33.949 38.2449 34.1649 38.4968 37.7186 42.0595C41.6681 46.027 41.6411 46 42.9906 46C43.6384 46 43.8273 45.964 44.2592 45.7571C44.8889 45.4422 45.4467 44.8844 45.7616 44.2456C45.9685 43.8228 46.0045 43.6339 46.0045 42.9861C46.0045 41.6366 46.0225 41.6636 42.109 37.75C38.5553 34.1964 38.3483 34.0254 37.4037 33.8545C37.1428 33.8095 36.8279 33.5396 35.6763 32.388L34.2729 30.9756L34.6777 30.4358C36.0002 28.6904 37.1338 26.2793 37.7366 23.9402C38.1414 22.3477 38.3124 20.9623 38.3124 19.2079C38.3124 16.9317 38.0425 15.2224 37.3677 13.1531C35.0196 5.98279 28.6139 0.854687 21.0477 0.0809708C19.9861 -0.026989 18.2768 -0.026989 17.2151 0.0809708ZM21.1737 1.69138C23.153 1.92529 24.9793 2.4471 26.7876 3.31977C32.1586 5.89282 35.8473 10.949 36.657 16.8508C36.9179 18.7941 36.7649 21.574 36.2881 23.4633C34.7047 29.77 29.7745 34.7002 23.4678 36.2836C21.5785 36.7604 18.7896 36.9134 16.8643 36.6525C5.78037 35.096 -1.07509 23.9132 2.59555 13.3421C4.72776 7.18834 10.3507 2.61803 16.8553 1.74536C17.9529 1.59241 20.0761 1.57442 21.1737 1.69138ZM34.9116 34.4483C34.7317 34.5832 34.4978 34.8171 34.3988 34.9701L34.2189 35.249L33.2112 34.2413L32.1946 33.2247L32.7074 32.7119L33.2292 32.1901L34.2369 33.1977L35.2445 34.2054L34.9116 34.4483ZM37.6286 35.5099C38.0874 35.8068 44.2322 42.0145 44.3401 42.3114C44.8889 43.7598 43.3775 45.0014 42.082 44.1647C41.866 44.0207 40.2826 42.4913 38.5643 40.7729C35.8023 37.993 35.4334 37.5881 35.3435 37.2372C35.1455 36.4905 35.4514 35.8068 36.1532 35.4469C36.63 35.204 37.1698 35.231 37.6286 35.5099Z" fill="#1B1B1B"/>
<path d="M17.6198 3.18537C17.4939 3.20336 17.089 3.26634 16.7202 3.32032C13.3554 3.78814 9.93668 5.59648 7.51657 8.16053C3.85493 12.0651 2.38847 17.3281 3.49506 22.6362C3.89091 24.5255 4.92553 26.8826 6.07711 28.502C6.87781 29.6176 8.7941 31.5339 9.8827 32.2986C12.6537 34.2509 15.8115 35.2495 19.2033 35.2495C23.6386 35.2405 27.5612 33.6031 30.638 30.4723C31.9605 29.1228 32.7612 28.0072 33.5799 26.3788C34.8125 23.9047 35.3073 21.6285 35.2263 18.7406C35.1634 16.1406 34.6955 14.2963 33.544 11.9931C32.7882 10.4817 31.9875 9.34809 30.8719 8.16952C28.2809 5.44353 24.9791 3.75216 21.3265 3.26634C20.4628 3.14938 18.2046 3.1044 17.6198 3.18537ZM22.0732 4.93072C27.8671 6.15427 32.1585 10.4547 33.472 16.3295C33.6429 17.0942 33.6699 17.4811 33.6699 19.1904C33.6699 20.8998 33.6429 21.2867 33.472 22.0514C32.3204 27.2245 28.7757 31.264 23.9265 32.9464C22.1812 33.5491 21.4254 33.6661 19.1943 33.6661C17.4849 33.6661 17.098 33.6391 16.3333 33.4682C10.4225 32.1547 6.18507 27.8992 4.92553 22.0244C4.7456 21.2147 4.71861 20.8098 4.71861 19.1904C4.71861 17.1122 4.83556 16.3385 5.38436 14.6381C7.00376 9.68996 11.2772 5.92935 16.3873 4.93072C17.7098 4.67881 17.7728 4.66982 19.5541 4.7058C20.7597 4.73279 21.3984 4.78677 22.0732 4.93072Z" fill="#1B1B1B"/>
<path d="M17.0178 8.5291C16.433 8.66405 16.1721 8.97893 15.5153 10.3014L14.8945 11.552L14.4357 11.7139C14.0399 11.8579 13.707 12.1458 11.8177 14.0261L9.64948 16.1763H9.18165C8.30897 16.1763 7.59824 16.6261 7.21138 17.4178L6.95947 17.9306V20.3147C6.95947 22.9688 6.98646 23.1577 7.52626 23.7515C7.91312 24.1743 8.41693 24.4532 8.96573 24.5342C9.35259 24.5882 9.37958 24.6152 9.50553 24.975C9.56851 25.1819 9.82941 25.5688 10.0633 25.8387C11.6287 27.5481 14.3907 26.9813 15.1824 24.7861L15.2814 24.5432H19.186H23.0995L23.3154 25.029C23.6303 25.7038 24.1161 26.2076 24.7819 26.5314C25.5016 26.8823 26.3743 26.9363 27.157 26.6664C27.7868 26.4505 28.6684 25.5958 28.9024 24.984C29.0553 24.5882 29.0823 24.5612 29.4422 24.5252C30.1799 24.4352 30.8546 23.9584 31.2325 23.2477C31.4124 22.9058 31.4304 22.7259 31.4574 20.8815C31.4934 18.5604 31.4214 18.1196 30.8726 17.5168C30.3058 16.887 30.0809 16.824 27.3999 16.4822L24.9708 16.1853L22.8026 14.0351C21.2552 12.4966 20.5355 11.8489 20.3015 11.7589L19.9597 11.6419V10.6703C19.9597 10.0495 19.9147 9.58171 19.8337 9.40177C19.6808 9.02391 19.2399 8.65505 18.8081 8.5291C18.4302 8.43013 17.4496 8.42113 17.0178 8.5291ZM18.4302 10.7333V11.498H17.5306H16.6309L16.9548 10.8412C17.1347 10.4904 17.3236 10.1395 17.3686 10.0765C17.4226 10.0135 17.6655 9.96856 17.9444 9.96856H18.4302V10.7333ZM16.1361 14.6019V16.1313L14.0489 16.1583C12.8973 16.1673 11.9526 16.1493 11.9526 16.1133C11.9526 15.9783 14.7866 13.2164 15.0115 13.1264C15.1374 13.0724 15.4433 13.0454 15.6862 13.0544L16.1361 13.0724V14.6019ZM19.5098 13.1174C19.7347 13.1804 20.2206 13.6032 21.2372 14.6198C22.0199 15.4026 22.6587 16.0683 22.6587 16.1043C22.6587 16.1493 21.5431 16.1763 20.1846 16.1763H17.7105V14.6019V13.0274H18.4572C18.8621 13.0274 19.3389 13.0634 19.5098 13.1174ZM27.103 17.9936C29.1453 18.2455 29.4691 18.3085 29.6671 18.4794L29.901 18.6773L29.928 20.5756L29.955 22.4739L29.6851 22.7438C29.2802 23.1487 29.1273 23.1037 28.8304 22.4739C28.5065 21.7902 27.8677 21.2054 27.175 20.9445C26.7611 20.7826 26.5272 20.7556 25.9425 20.7826C25.2137 20.8276 24.7549 20.9895 24.1701 21.4213C23.8552 21.6552 23.3154 22.429 23.2345 22.7618L23.1805 23.0137H19.2399H15.3084L15.0205 22.429C14.7056 21.7992 14.2378 21.3404 13.581 21.0165C12.9782 20.7196 11.8986 20.6836 11.2149 20.9445C10.5401 21.1964 9.87439 21.8262 9.56851 22.4919C9.29861 23.0857 9.13667 23.1397 8.74081 22.7978L8.48891 22.5819V20.3777V18.1735L8.70483 17.9396L8.92075 17.7057H16.8468H24.7729L27.103 17.9936ZM13.0322 22.4649C13.608 22.7618 13.9319 23.4636 13.8059 24.1383C13.716 24.5882 13.1762 25.128 12.6724 25.2629C11.7367 25.5148 10.7831 24.7681 10.7831 23.7785C10.7831 23.2027 11.2329 22.5639 11.7727 22.357C12.0696 22.249 12.7353 22.303 13.0322 22.4649ZM26.8871 22.4919C27.3189 22.7888 27.5349 23.1217 27.5798 23.5805C27.6428 24.1473 27.5619 24.3992 27.202 24.8041C26.4553 25.6318 25.1777 25.4249 24.7189 24.4172C24.494 23.9224 24.503 23.5715 24.7549 23.0947C25.1597 22.339 26.2213 22.0421 26.8871 22.4919Z" fill="#1B1B1B"/>
<path d="M15.5963 19.4599C15.3983 19.6488 15.3713 19.7568 15.3713 20.2696C15.3713 21.1243 15.5963 21.4751 16.1451 21.4841C16.334 21.4841 16.5049 21.4032 16.6669 21.2502C16.8738 21.0343 16.9008 20.9443 16.9008 20.3416C16.9008 19.7568 16.8738 19.6488 16.6759 19.4599C16.379 19.154 15.8931 19.154 15.5963 19.4599Z" fill="#1B1B1B"/>
<path d="M18.691 19.406C18.5291 19.532 18.4841 19.6849 18.4481 20.1168C18.4301 20.4226 18.4301 20.7735 18.4661 20.8905C18.61 21.4753 19.3208 21.6822 19.7346 21.2593C19.9325 21.0704 19.9595 20.9624 19.9595 20.3597C19.9595 19.7569 19.9325 19.6489 19.7346 19.46C19.4647 19.1901 18.9879 19.1631 18.691 19.406Z" fill="#1B1B1B"/>
<path d="M21.8659 19.2982C21.65 19.3792 21.488 19.856 21.488 20.3958C21.488 20.8366 21.524 20.9806 21.722 21.2055C22.0188 21.5654 22.4687 21.5924 22.7926 21.2595C22.9905 21.0706 23.0175 20.9626 23.0175 20.3598C23.0175 19.757 22.9905 19.6491 22.7926 19.4602C22.5856 19.2442 22.1718 19.1723 21.8659 19.2982Z" fill="#1B1B1B"/>
</svg>
