<svg width="57" height="40" viewBox="0 0 57 40" fill="none" xmlns="http://www.w3.org/2000/svg">
<g opacity="0.06">
<path d="M11.7021 0.125481C7.66934 0.907333 4.19441 3.57274 2.38141 7.26878C1.37031 9.34187 0.905436 11.5216 1.01003 13.7605C1.18436 17.2433 2.486 20.2167 4.89172 22.5978C6.51878 24.2208 8.20394 25.2277 10.2726 25.8319C11.4581 26.1754 11.4464 26.128 10.6329 27.8457C9.54045 30.1321 8.05286 32.4302 6.22823 34.6573C5.05443 36.0907 4.78713 36.7897 5.04281 37.8677C5.33335 39.1115 6.4258 40 7.66934 40C8.77341 40 11.9927 38.7443 14.317 37.3938C21.5807 33.1884 25.811 26.3886 26.8454 17.2907C27.101 15.0755 27.0197 11.6637 26.6827 10.3843C25.567 6.11969 22.9056 2.77904 19.2795 1.07318C17.6874 0.326866 16.4903 0.066246 14.3984 0.00701523C13.1432 -0.0166779 12.2716 0.0188637 11.7021 0.125481ZM16.1649 3.98736C17.8617 4.40198 19.4074 5.33783 20.6742 6.73569C21.6504 7.8137 22.3361 8.99833 22.8358 10.4791L23.231 11.6282V14.1159C23.231 17.1604 22.9985 18.9018 22.2315 21.6146C20.6277 27.2771 16.9203 31.8616 11.8764 34.4441C11.2372 34.764 10.7607 34.9653 10.8189 34.8824C10.8653 34.7995 11.3186 34.1124 11.8183 33.3542C12.7946 31.8498 14.1195 29.3265 14.6773 27.8931C15.3165 26.2939 15.1306 24.8842 14.1427 23.7706C13.5267 23.0717 12.8643 22.7045 11.7602 22.4201C8.9245 21.7094 6.35607 19.3875 5.32173 16.5918C4.11306 13.3104 4.70577 9.80387 6.93717 7.05554C8.08773 5.64584 10.0169 4.42567 11.8183 3.97551C13.0038 3.67936 14.933 3.67936 16.1649 3.98736Z" fill="#1B1B1B"/>
<path d="M41.4124 0.230534C36.0711 1.37864 31.9633 5.72251 31.1138 11.1435C30.881 12.5993 31.0207 15.298 31.3931 16.6709C32.0098 18.9198 33.1735 20.932 34.791 22.5653C36.3504 24.1514 38.1774 25.2403 40.272 25.8558C40.8306 26.0215 41.296 26.1754 41.3077 26.1872C41.3775 26.2464 40.3302 28.4834 39.7833 29.4658C38.9454 30.969 37.7003 32.7918 36.4784 34.3068C35.2332 35.8573 34.9656 36.3781 34.9539 37.254C34.9539 38.0115 35.1401 38.5086 35.6638 39.1123C36.1758 39.6923 36.8275 40 37.6188 40C38.9803 40 43.1929 38.2009 45.6599 36.5675C48.6855 34.5554 51.2805 31.8804 53.1307 28.8503C55.0159 25.7729 56.3309 21.6895 56.8429 17.393C57.0524 15.6885 57.0524 12.2206 56.8429 11.179C55.7374 5.49762 51.6179 1.18926 46.3232 0.171352C45.0315 -0.0772057 42.739 -0.0535355 41.4124 0.230534ZM46.1952 4.0181C49.7793 4.94132 52.5023 8.04239 53.1773 11.9838C53.6079 14.4576 53.0958 18.9317 51.9903 22.3523C50.6986 26.3648 48.3131 29.8446 45.1362 32.3302C43.8445 33.3599 40.7724 35.2064 40.7724 34.9696C40.7724 34.9341 41.0517 34.4962 41.3891 33.9872C42.6925 32.0816 44.4147 28.7912 44.8918 27.2998C45.3806 25.7966 44.7871 24.0804 43.4721 23.1453C43.2161 22.9678 42.4714 22.66 41.8081 22.4707C38.9221 21.6185 36.8275 19.8785 35.594 17.3101C34.4419 14.8955 34.407 11.7945 35.5242 9.29703C36.6995 6.65756 39.2363 4.56256 41.9826 3.95892C43.0998 3.71036 45.1129 3.73404 46.1952 4.0181Z" fill="#1B1B1B"/>
</g>
</svg>
