<svg width="50" height="36" viewBox="0 0 50 36" fill="none" xmlns="http://www.w3.org/2000/svg">
<path d="M12.4219 16.7179L8.4375 15.8295C7.34375 15.5872 6.32812 16.4756 6.32812 17.6063V19.3023C6.32812 20.6753 7.34375 20.9984 8.59375 20.9984H12.9688C13.8281 20.9984 14.6875 20.8368 14.6875 19.8677V19.6254C14.6875 18.1717 13.75 16.9602 12.4219 16.7179ZM7.8125 19.3023C7.8125 19.2216 7.8125 19.2216 7.8125 17.5256C7.8125 17.364 7.96875 17.2025 8.125 17.2833L12.1094 18.1717C12.6562 18.3332 13.0469 18.8178 13.125 19.3831C10.3906 19.3831 8.04687 19.3831 7.8125 19.3023Z" fill="white"/>
<path d="M47.8906 8.07628L42.2656 5.33034C40.3906 4.44195 38.3594 4.1189 36.4062 4.52271L35.5469 2.74593C34.9219 1.13068 33.4375 0 31.7187 0H13.4375C11.7188 0 10.2344 1.04992 9.60938 2.66517L6.5625 9.20695C5.85937 8.15704 4.6875 7.51094 3.4375 7.51094H2.10938C0.9375 7.51094 0 8.48009 0 9.69153V10.5799C0 11.7914 0.9375 12.7605 2.10938 12.7605H4.14063C3.28125 13.8912 2.89063 15.3449 2.89063 16.7987V21.6444C2.89063 23.502 3.51562 25.2787 4.76562 26.8132V30.4476C4.76562 32.0628 6.01562 33.355 7.57812 33.355H10.4687C12.0312 33.355 13.2812 32.0628 13.2812 30.4476V28.9938H28.9062C32.3438 33.8396 37.7344 35.9394 37.8125 35.9394C37.9688 36.0202 38.125 36.0202 38.3594 35.9394C38.4375 35.8587 50 31.4975 50 20.5945V11.5491C50 10.0953 49.1406 8.72238 47.8906 8.07628V8.07628ZM11.0156 3.31127C11.4063 2.26136 12.3438 1.61526 13.4375 1.61526H31.7187C32.8125 1.61526 33.75 2.26136 34.2187 3.39204L34.9219 4.92653C34.6094 5.00729 34.2969 5.16882 33.9844 5.33034L28.3594 8.07628C27.1094 8.72238 26.25 10.0146 26.25 11.4683H7.10938C7.42188 10.9837 7.10938 11.7914 11.0156 3.31127V3.31127ZM1.5625 10.5799V9.69153C1.5625 9.36848 1.79688 9.12619 2.10938 9.12619H3.4375C5 9.12619 5.54688 10.5799 5.70313 10.8222C5.625 10.9837 5.54688 11.0645 5.39063 11.226H2.10938C1.79688 11.1453 1.5625 10.903 1.5625 10.5799V10.5799ZM11.7188 30.3668C11.7188 31.0937 11.1719 31.659 10.4687 31.659H7.5C6.79688 31.7398 6.25 31.0937 6.25 30.3668V28.0247C7.1875 28.59 8.28125 28.9131 9.375 28.9131H11.7188V30.3668ZM9.29687 27.3786C6.48437 27.3786 4.29688 24.5519 4.29688 21.5637V16.7179C4.29688 15.3449 4.84375 14.0527 5.78125 13.0028H26.25V20.1099H17.6563C17.2656 20.1099 16.875 20.433 16.875 20.9176C16.875 21.4021 17.1875 21.7252 17.6563 21.7252H26.3281C26.4063 22.2905 26.4062 22.7751 26.5625 23.2597H17.6563C17.2656 23.2597 16.875 23.5827 16.875 24.0673C16.875 24.5519 17.1875 24.8749 17.6563 24.8749H26.875C27.1875 25.7633 27.5 26.6517 27.9687 27.3786H9.29687ZM48.4375 20.5945C48.4375 29.5592 39.6875 33.6781 38.125 34.3242C32.5 31.9821 27.8125 26.9748 27.8125 20.5945C27.8125 17.6063 27.8125 15.991 27.8125 11.5491C27.8125 10.6607 28.2813 9.93382 29.0625 9.53001L34.6875 6.78407C36.9531 5.65339 39.4531 5.65339 41.7188 6.78407L47.3437 9.53001C48.0469 9.93382 48.5938 10.6607 48.5938 11.5491V20.5945H48.4375Z" fill="white"/>
<path d="M45.7812 11.3876L40.625 8.88392C39.0625 8.07629 37.1094 8.07629 35.5469 8.88392L30.4687 11.3876C30.2344 11.5491 30 11.7914 30 12.1144V20.5945C30 26.9748 35.3906 30.4476 37.7344 31.659C37.9687 31.7398 38.2031 31.7398 38.4375 31.659C40.7812 30.4476 46.1719 26.9748 46.1719 20.5945V12.1144C46.1719 11.7914 46.0156 11.5491 45.7812 11.3876V11.3876ZM44.6875 20.5945C44.6875 25.7633 40.3125 28.8323 38.125 30.0438C35.5469 28.59 31.5625 25.6826 31.5625 20.5945V12.599L36.25 10.2569C37.4219 9.69155 38.8281 9.69155 40 10.2569L44.6875 12.599V20.5945Z" fill="white"/>
<path d="M35.0785 20.3522C34.766 20.1099 34.2973 20.1906 33.9848 20.5137C33.6723 20.8367 33.8285 21.3213 34.141 21.6444L37.1098 23.9865C37.4223 24.2288 37.891 24.148 38.2035 23.825L42.5785 17.9293C42.8129 17.6062 42.7348 17.1216 42.4223 16.7986C42.1098 16.5563 41.641 16.6371 41.3285 16.9601L37.4223 22.2097L35.0785 20.3522Z" fill="white"/>
</svg>
