<svg width="46" height="46" viewBox="0 0 46 46" fill="none" xmlns="http://www.w3.org/2000/svg">
<path d="M31.3372 0.260857L31.0407 0.5214L31.0138 3.71981C31.0048 5.48072 30.9688 6.91821 30.9509 6.91821C30.9329 6.91821 29.6032 6.19048 28.013 5.29206C26.324 4.34871 24.9763 3.64793 24.7876 3.62098C24.5181 3.58504 24.4103 3.62098 24.1587 3.84558L23.8533 4.11512L23.8263 7.2686L23.7994 10.4221H23.4041H23.0088L22.9818 8.88577L22.9548 7.34946L22.6584 7.08891C22.3799 6.83735 22.3259 6.82837 21.5174 6.82837H20.6639V5.12135C20.6639 3.25262 20.61 3.00106 20.1697 2.80341C19.8732 2.66864 19.6576 2.66864 19.3611 2.80341C18.9209 3.00106 18.867 3.25262 18.867 5.12135V6.82837H18.0135C17.2049 6.82837 17.151 6.83735 16.8725 7.08891L16.576 7.34946L16.5491 8.88577L16.5221 10.4221H14.4557C12.2096 10.4221 11.994 10.458 11.7874 10.9162C11.7065 11.0869 11.6796 12.6322 11.6796 16.8908V22.6317L9.87373 22.6587L8.06789 22.6856L7.80734 22.9821C7.5468 23.2696 7.5468 23.2786 7.5468 24.3926V25.5157H7.24133C5.92064 25.5157 4.65386 26.2524 4.06988 27.3754C3.89918 27.6989 3.64762 28.5075 3.40504 29.4867L3.01872 31.0859H1.77889C0.6289 31.0859 0.530073 31.1039 0.31445 31.2836C0.00898429 31.5531 -0.0808586 32.0742 0.134764 32.3976C0.341403 32.7211 0.790617 32.8828 1.48241 32.8828C2.12928 32.8828 2.21912 32.9816 1.77889 33.2062C1.26678 33.4668 0.925381 33.7722 0.601947 34.2574C0.0359371 35.0929 0 35.3445 0 38.6866C0 40.8159 0.0269529 41.7503 0.107811 41.912C0.278513 42.2983 0.610931 42.4061 1.57225 42.4061H2.42576V43.3046V44.203H1.57225C0.610931 44.203 0.278513 44.3108 0.107811 44.6971C-0.0269529 44.9936 -0.0269529 45.2092 0.107811 45.5057C0.350387 46.0358 -1.2578 45.9999 22.9998 45.9999C47.2573 45.9999 45.6492 46.0358 45.8917 45.5057C45.9726 45.326 45.9995 40.0792 45.9995 22.9911C45.9995 -1.25749 46.0355 0.3507 45.5054 0.108124C45.3347 0.0272636 43.5468 0.000312805 38.4527 0.000312805H31.6247L31.3372 0.260857ZM44.2027 23.0001V44.203H41.0133H37.8238V27.5821V10.9522L37.6262 10.7545C37.5094 10.6377 36.3774 9.97287 35.1106 9.26311L32.7926 7.96937V4.88776V1.79717H38.4977H44.2027V23.0001ZM31.427 9.25413L36.018 11.8146L36.027 13.2701V14.7345H33.6911C31.7774 14.7345 31.3013 14.7615 31.0856 14.8693C30.7712 15.031 30.6364 15.2556 30.6364 15.633C30.6364 16.0103 30.7712 16.2349 31.0856 16.3966C31.3013 16.5044 31.7774 16.5314 33.6911 16.5314H36.027V17.7892V19.047H33.6911C31.7774 19.047 31.3013 19.0739 31.0856 19.1818C30.7712 19.3435 30.6364 19.5681 30.6364 19.9454C30.6364 20.3228 30.7712 20.5474 31.0856 20.7091C31.3013 20.8169 31.7774 20.8439 33.6911 20.8439H36.027V22.1017V23.3595H33.6911C31.2024 23.3595 30.9419 23.3954 30.7263 23.7997C30.6095 24.0243 30.6095 24.4915 30.7263 24.7161C30.9419 25.1204 31.2024 25.1563 33.6911 25.1563H36.027V26.4141V27.6719H33.6911C31.2024 27.6719 30.9419 27.7078 30.7263 28.1121C30.6095 28.3367 30.6095 28.8039 30.7263 29.0285C30.9419 29.4328 31.2024 29.4688 33.6911 29.4688H36.027V30.7266V31.9844H33.6911C31.7774 31.9844 31.3013 32.0113 31.0856 32.1191C30.7712 32.2809 30.6364 32.5055 30.6364 32.8828C30.6364 33.2601 30.7712 33.4847 31.0856 33.6465C31.3013 33.7543 31.7774 33.7812 33.6911 33.7812H36.027V35.039V36.2968H33.6911C31.2024 36.2968 30.9419 36.3328 30.7263 36.7371C30.6095 36.9617 30.6095 37.4288 30.7263 37.6535C30.9419 38.0577 31.2024 38.0937 33.6911 38.0937H36.027V39.3515V40.6093H33.6911C31.2024 40.6093 30.9419 40.6452 30.7263 41.0495C30.6095 41.2741 30.6095 41.7413 30.7263 41.9659C30.9419 42.3702 31.2024 42.4061 33.6911 42.4061H36.027V43.3046V44.203H31.9391H27.8513V27.6719C27.8513 9.68537 27.8782 10.7635 27.3571 10.5299C27.2314 10.467 26.7822 10.4221 26.3689 10.4221H25.6052V8.22093V6.0108L26.2161 6.3522C26.5575 6.54087 28.9024 7.84359 31.427 9.25413ZM21.2029 9.52365V10.4221H19.7654H18.3279V9.52365V8.62523H19.7654H21.2029V9.52365ZM26.0544 28.211V44.203H23.1345H20.2146V43.3046V42.4061H21.0681C22.0115 42.4061 22.3259 42.3073 22.5146 41.9479C22.7123 41.5616 22.6943 35.9015 22.4967 35.2097C22.2541 34.3562 21.6431 33.6105 20.8705 33.2062C20.4213 32.9816 20.5111 32.8828 21.158 32.8828C21.8498 32.8828 22.299 32.7211 22.5056 32.3976C22.7213 32.0742 22.6314 31.5531 22.3259 31.2836C22.1103 31.1039 22.0115 31.0859 20.8615 31.0859H19.6217L19.2354 29.4867C19.0197 28.6153 18.7412 27.6989 18.6244 27.4563C18.0404 26.2883 16.7557 25.5157 15.3991 25.5157H15.0936V24.3926C15.0936 23.2876 15.0936 23.2696 14.8331 22.9821C14.6174 22.7395 14.5096 22.6946 14.0245 22.6587L13.4764 22.6227V21.7333V20.8528L15.417 20.8259L17.3576 20.7989L17.5733 20.5474C17.8697 20.206 17.8697 19.6849 17.5733 19.3435L17.3576 19.0919L15.417 19.065L13.4764 19.038V17.7802V16.5314H17.3397H21.2029L21.4814 16.2798C21.715 16.0642 21.7689 15.9564 21.7689 15.633C21.7689 15.3095 21.715 15.2017 21.4814 14.9861L21.2029 14.7345H17.3397H13.4764V13.4767V12.2189H19.7654H26.0544V28.211ZM13.2967 24.9766V25.5157H11.3202H9.34366V24.9766V24.4376H11.3202H13.2967V24.9766ZM16.3694 27.5641C16.9444 27.9235 17.0522 28.175 17.6182 30.466C17.9057 31.6519 18.1483 32.6582 18.1483 32.7121C18.1483 32.757 15.5518 32.793 11.3202 32.793C7.51086 32.793 4.49214 32.757 4.49214 32.7121C4.49214 32.4965 5.50737 28.4895 5.63315 28.2289C5.80385 27.8696 6.27103 27.4922 6.67532 27.4024C6.82806 27.3575 9.00225 27.3305 11.4999 27.3395L16.0369 27.3575L16.3694 27.5641ZM19.7744 34.6886C19.9451 34.7515 20.1967 34.8953 20.3404 35.03C20.8166 35.4613 20.8435 35.632 20.8435 38.2284V40.6093H11.3202H1.79686V38.2284C1.79686 35.632 1.82381 35.4613 2.29998 35.03C2.44373 34.8953 2.6863 34.7515 2.83005 34.6976C3.22536 34.5629 19.3611 34.5539 19.7744 34.6886ZM6.01947 43.1339C6.01947 44.1581 5.98353 44.203 5.16596 44.203C4.19566 44.203 4.22261 44.2299 4.22261 43.2507V42.4061H5.12104H6.01947V43.1339ZM14.842 43.3046L14.869 44.203H11.3202H7.77141L7.79836 43.3046L7.82531 42.4061H11.3202H14.8151L14.842 43.3046ZM18.4178 43.2507C18.4178 44.2299 18.4447 44.203 17.4744 44.203C16.6569 44.203 16.6209 44.1581 16.6209 43.1339V42.4061H17.5194H18.4178V43.2507Z" fill="white"/>
<path d="M36.0897 4.29481C35.8472 4.54637 35.8472 4.54637 35.8472 5.97487C35.8472 7.40337 35.8472 7.40337 36.0897 7.65493C36.2694 7.8436 36.4132 7.90649 36.6827 7.90649C37.4733 7.90649 37.644 7.56509 37.644 5.97487C37.644 4.38465 37.4733 4.04325 36.6827 4.04325C36.4132 4.04325 36.2694 4.10614 36.0897 4.29481Z" fill="white"/>
<path d="M39.9261 10.6916C39.4948 10.8623 39.4409 11.0869 39.4409 12.5963C39.4409 13.926 39.4499 14.0158 39.6476 14.2404C40.0788 14.7435 40.8425 14.5998 41.112 13.9709C41.2827 13.5486 41.2827 11.608 41.112 11.1947C40.8964 10.6826 40.4382 10.485 39.9261 10.6916Z" fill="white"/>
<path d="M39.9171 17.2951C39.5757 17.4388 39.4409 17.6724 39.4409 18.1036C39.4409 18.5529 39.8362 18.9572 40.2765 18.9572C40.6628 18.9572 41.103 18.6158 41.1749 18.2654C41.2378 17.906 41.0311 17.4658 40.7077 17.304C40.3843 17.1333 40.2854 17.1333 39.9171 17.2951Z" fill="white"/>
<path d="M39.9261 23.8985C39.4948 24.0692 39.4409 24.2938 39.4409 25.8032C39.4409 27.1329 39.4499 27.2227 39.6476 27.4473C40.0788 27.9505 40.8425 27.8067 41.112 27.1778C41.2827 26.7555 41.2827 24.8149 41.112 24.4017C40.8964 23.8896 40.4382 23.6919 39.9261 23.8985Z" fill="white"/>
<path d="M39.9261 37.1054C39.4948 37.2761 39.4409 37.5007 39.4409 39.0101C39.4409 40.3397 39.4499 40.4296 39.6476 40.6542C40.0788 41.1573 40.8425 41.0136 41.112 40.3847C41.2827 39.9624 41.2827 38.0218 41.112 37.6085C40.8964 37.0964 40.4382 36.8987 39.9261 37.1054Z" fill="white"/>
<path d="M20.5202 19.1368C20.026 19.3345 19.8733 20.1071 20.2417 20.5294C20.3674 20.6821 20.5651 20.781 20.8077 20.8169C21.1311 20.8528 21.2209 20.8259 21.4725 20.6013C22.2362 19.9185 21.4725 18.7505 20.5202 19.1368Z" fill="white"/>
<path d="M4.5373 36.9617C3.94434 37.5546 4.33066 38.489 5.17519 38.489C5.61542 38.489 6.01971 38.0578 6.01971 37.5906C6.01971 36.8629 5.04941 36.4496 4.5373 36.9617Z" fill="white"/>
<path d="M16.8816 37.0066C16.693 37.1953 16.6211 37.357 16.6211 37.5816C16.6211 37.9589 16.9535 38.4081 17.2949 38.489C17.6453 38.5788 18.1215 38.3273 18.2922 37.9769C18.7234 37.0785 17.5914 36.3058 16.8816 37.0066Z" fill="white"/>
</svg>
