<svg width="32" height="47" viewBox="0 0 32 47" fill="none" xmlns="http://www.w3.org/2000/svg">
<path d="M3.4659 0.126921C1.93467 0.495281 0.696848 1.65427 0.201719 3.19061C0 3.81054 0 3.88241 0 9.6594C0 15.4544 0 15.5083 0.201719 16.1372C0.568481 17.2602 1.4212 18.2755 2.42063 18.7786C3.4384 19.2817 3.30086 19.2638 8.47221 19.3177L13.2768 19.3626L14.1845 21.2493C14.6797 22.2825 15.1931 23.2349 15.3215 23.3607C15.4957 23.5403 15.6332 23.5853 16 23.5853C16.3668 23.5853 16.5043 23.5403 16.6785 23.3607C16.8069 23.2349 17.3203 22.2825 17.8155 21.2493L18.7232 19.3626L23.5278 19.3087C28.6991 19.2548 28.6074 19.2638 29.6069 18.7516C30.643 18.2126 31.4315 17.2692 31.7983 16.1282C32 15.5083 32 15.4364 32 9.6594C32 3.88241 32 3.81054 31.7983 3.19061C31.404 1.96873 30.5696 0.998409 29.4327 0.459343C28.6533 0.0909824 28.1032 0.00113869 26.5903 0.00113869C25.3799 0.00113869 25.2424 0.0191059 25.0774 0.180826C24.8573 0.396452 24.8298 0.872627 25.0223 1.13318C25.1415 1.28591 25.3066 1.31286 26.7003 1.3488C28.1215 1.39372 28.2774 1.41169 28.7633 1.6363C29.396 1.92381 30.0103 2.50779 30.3129 3.10077L30.533 3.54999V9.6594V15.7688L30.2854 16.218C29.8361 17.0536 29.1301 17.6016 28.2407 17.8352C27.7822 17.943 26.9387 17.97 23.0327 17.97C18.1089 17.97 18.0997 17.97 17.733 18.3833C17.6504 18.4821 17.2378 19.2727 16.8252 20.1442C16.4034 21.0247 16.0367 21.7435 16 21.7435C15.9633 21.7435 15.5966 21.0247 15.1748 20.1442C14.7622 19.2727 14.3496 18.4821 14.267 18.3833C13.9003 17.97 13.8911 17.97 8.96733 17.97C5.06132 17.97 4.21776 17.943 3.75931 17.8352C2.86991 17.6016 2.1639 17.0536 1.71461 16.218L1.46705 15.7688V9.6594V3.54999L1.68711 3.10077C1.98968 2.50779 2.60401 1.92381 3.23668 1.6363L3.75931 1.39372L13.2218 1.3488C22.0516 1.30388 22.6934 1.2949 22.8493 1.15115C23.0877 0.917549 23.051 0.378485 22.7943 0.171843C22.5926 0.0101223 22.235 0.00113869 13.2585 0.0101223C6.14327 0.0191059 3.83266 0.0460606 3.4659 0.126921Z" fill="white"/>
<path d="M6.41857 6.03869C6.16184 6.18244 6.09766 6.29025 6.09766 6.62267C6.09766 7.1258 6.34522 7.27854 7.19794 7.27854H7.93147V10.4141V13.5587L8.14236 13.8012C8.4266 14.1157 8.89422 14.1426 9.14178 13.8462C9.29766 13.6485 9.30683 13.4149 9.30683 10.459V7.27854H10.0679C10.7464 7.27854 10.8564 7.25158 11.0306 7.0719C11.2965 6.79338 11.2873 6.42502 11.0031 6.15548L10.783 5.93087H8.6925C7.30797 5.93986 6.53777 5.96681 6.41857 6.03869Z" fill="white"/>
<path d="M14.7621 6.02072C14.652 6.05665 14.5237 6.1465 14.4687 6.20939C14.3036 6.40705 11.6904 13.1993 11.6904 13.4329C11.6904 13.7563 11.9838 14.0438 12.3139 14.0438C12.7265 14.0438 12.9374 13.8192 13.2217 13.0645L13.4784 12.3997H15.0921H16.7059L16.9535 13.0645C17.091 13.4329 17.2836 13.8012 17.3844 13.8911C17.7879 14.2415 18.4755 13.9719 18.4755 13.4508C18.4755 13.3071 17.8887 11.6629 17.1827 9.80316C16.1649 7.14377 15.8257 6.37111 15.624 6.17345C15.3489 5.93087 15.1013 5.87697 14.7621 6.02072ZM15.4314 9.09339C15.5873 9.50668 15.8257 10.1086 15.9449 10.4411L16.1833 11.052H15.0921H14.001L14.5237 9.70433C14.8079 8.96761 15.0646 8.35667 15.0921 8.35667C15.1197 8.35667 15.2755 8.68909 15.4314 9.09339Z" fill="white"/>
<path d="M19.9978 6.12853C19.7777 6.32619 19.7227 6.45197 19.7502 6.74846C19.7502 6.82932 20.2178 7.5301 20.7771 8.31175C21.3273 9.09339 21.7674 9.77621 21.7491 9.83011C21.7216 9.88402 21.1806 10.6567 20.5479 11.5372C19.3101 13.2622 19.1909 13.5407 19.576 13.8821C19.7961 14.0708 20.2362 14.0977 20.4471 13.927C20.5204 13.8641 21.0247 13.1993 21.5657 12.4536C22.0975 11.7079 22.5651 11.061 22.6018 11.025C22.6385 10.9801 23.1336 11.6 23.7021 12.3907C24.2705 13.1903 24.7932 13.8821 24.8665 13.945C25.0683 14.1067 25.5267 14.0618 25.7376 13.8551C26.1044 13.4958 26.0035 13.2442 24.7107 11.4473L23.5003 9.77621L23.9588 9.12933C25.6092 6.84728 25.6642 6.76642 25.5726 6.45197C25.4625 6.08361 25.0683 5.86798 24.7198 5.98478C24.564 6.03868 24.188 6.46994 23.6562 7.20666C23.2069 7.83557 22.7852 8.39261 22.7301 8.44651C22.6476 8.52737 22.4092 8.24886 21.7857 7.37737C20.6946 5.859 20.4746 5.70626 19.9978 6.12853Z" fill="white"/>
<path d="M7.31706 24.1153C6.43683 24.3849 5.75832 24.9509 5.35489 25.7235C5.24486 25.9302 4.93311 26.8466 4.67637 27.763C4.31878 29.0029 4.16291 29.4161 4.07122 29.3802C3.99786 29.3622 3.33769 29.3263 2.595 29.3083C1.38468 29.2814 1.21964 29.2994 0.889555 29.4611C0.366919 29.7216 0.110186 30.1169 0.0643403 30.7189C-0.00901217 31.6982 0.412764 32.4978 1.23798 32.956L1.68726 33.2076L1.31133 33.7017C0.889555 34.2498 0.5503 34.9236 0.348581 35.6064C0.1652 36.2263 0.0826784 38.9396 0.220214 39.6674C0.440272 40.8443 1.3205 42.0303 2.31993 42.4885L2.78755 42.7041L2.81506 43.944C2.84256 45.0221 2.87007 45.2108 3.03511 45.4354C3.40188 45.9295 3.70446 46.0014 5.31821 46.0014C6.97781 46.0014 7.26205 45.9205 7.62881 45.3815C7.82136 45.103 7.8397 44.9682 7.8397 44.0158V42.9467H8.79328C9.93024 42.9467 10.1686 42.8299 10.1686 42.2819C10.1686 41.635 10.2328 41.6529 6.66606 41.599C3.03511 41.5451 2.99844 41.5451 2.27408 40.7635C1.65976 40.1076 1.57723 39.8471 1.53139 38.3467C1.48554 36.7474 1.60474 35.9658 2.02652 35.1392C2.595 34.0162 3.82365 33.1087 5.07981 32.8841C5.74915 32.7584 26.2512 32.7584 26.9205 32.8841C28.1767 33.1087 29.4053 34.0162 29.9738 35.1392C30.3956 35.9568 30.5148 36.7474 30.4689 38.3467C30.4414 39.5057 30.4047 39.7123 30.2214 40.0717C29.9004 40.6826 29.3228 41.2127 28.7635 41.4193C28.2959 41.59 28.0391 41.599 20.4472 41.599C14.6615 41.599 12.5526 41.626 12.3784 41.7068C11.9841 41.8776 11.9108 42.5065 12.2592 42.785C12.4334 42.9377 12.8552 42.9467 18.3016 42.9467H24.1606V44.0158C24.1606 44.9682 24.179 45.103 24.3715 45.3815C24.7383 45.9205 25.0225 46.0014 26.6821 46.0014C28.2959 46.0014 28.5984 45.9295 28.9652 45.4354C29.1302 45.2108 29.1578 45.0221 29.1853 43.944L29.2128 42.7041L29.6804 42.4885C30.3131 42.201 31.0466 41.4643 31.395 40.7725C31.7893 39.9908 31.8901 39.2271 31.8351 37.5111C31.7801 35.6154 31.5325 34.8068 30.6798 33.6927L30.3131 33.2076L30.7623 32.956C31.5325 32.5248 31.9543 31.815 31.9543 30.9345C31.9543 30.2787 31.6792 29.7755 31.1749 29.488C30.8265 29.2994 30.7257 29.2904 29.4328 29.3173C28.681 29.3263 28.0025 29.3622 27.9291 29.3802C27.8374 29.4161 27.6815 29.0029 27.3239 27.754C27.058 26.8286 26.728 25.8673 26.5812 25.6157C26.2603 25.0317 25.756 24.5735 25.0867 24.2681L24.5732 24.0345L16.1377 24.0165C9.34342 24.0075 7.62881 24.0255 7.31706 24.1153ZM24.5916 25.5259C25.2884 25.8583 25.4076 26.1099 26.187 28.7783C26.5812 30.1259 26.9022 31.2849 26.9113 31.3568C26.9113 31.4736 25.6368 31.4916 16.0002 31.4916C6.36348 31.4916 5.08898 31.4736 5.08898 31.3568C5.09815 31.2849 5.41907 30.1259 5.81334 28.7783C6.59271 26.1189 6.71191 25.8583 7.39958 25.5349C7.79385 25.3462 7.87637 25.3462 15.991 25.3372C24.1423 25.3372 24.1973 25.3372 24.5916 25.5259ZM3.68612 30.7369C3.75947 30.8087 3.74113 30.9884 3.62193 31.3837L3.46606 31.9408H2.87924C2.16405 31.9408 1.73311 31.7791 1.5589 31.4376C1.41219 31.1771 1.37552 30.7998 1.48554 30.7009C1.5864 30.5931 3.57609 30.629 3.68612 30.7369ZM30.5698 30.9076C30.6156 31.231 30.3314 31.6802 29.9921 31.824C29.8363 31.8869 29.442 31.9408 29.1211 31.9408H28.5343L28.3784 31.3837C28.2592 30.9794 28.2408 30.8087 28.3142 30.7369C28.3876 30.665 28.7818 30.638 29.4787 30.656C30.5239 30.683 30.5331 30.683 30.5698 30.9076ZM6.46434 43.8002V44.6537H5.31821H4.17208V43.8002V42.9467H5.31821H6.46434V43.8002ZM27.8282 43.8002V44.6537H26.6821H25.536V43.8002V42.9467H26.6821H27.8282V43.8002Z" fill="white"/>
<path d="M12.2772 34.69C12.1122 34.8697 12.103 35.0404 12.103 37.0619C12.103 39.0834 12.1122 39.2541 12.2772 39.4338C12.5156 39.6943 13.0658 39.6943 13.3042 39.4338C13.4692 39.2541 13.4784 39.0834 13.4784 37.0619C13.4784 35.0404 13.4692 34.8697 13.3042 34.69C13.185 34.5642 13.0199 34.5013 12.7907 34.5013C12.5615 34.5013 12.3964 34.5642 12.2772 34.69Z" fill="white"/>
<path d="M14.4412 34.681C14.267 34.8517 14.2578 34.9775 14.2578 37.0619C14.2578 39.1463 14.267 39.2721 14.4412 39.4428C14.7163 39.7123 15.2022 39.6853 15.4406 39.3889C15.624 39.1642 15.6332 39.0385 15.6332 37.0619C15.6332 35.0853 15.624 34.9595 15.4406 34.7349C15.2022 34.4384 14.7163 34.4115 14.4412 34.681Z" fill="white"/>
<path d="M16.5592 34.7349C16.3759 34.9595 16.3667 35.0853 16.3667 37.0619C16.3667 39.0385 16.3759 39.1642 16.5592 39.3889C16.7976 39.6853 17.2836 39.7123 17.5587 39.4428C17.7329 39.2721 17.7421 39.1463 17.7421 37.0619C17.7421 34.9775 17.7329 34.8517 17.5587 34.681C17.2836 34.4115 16.7976 34.4384 16.5592 34.7349Z" fill="white"/>
<path d="M18.6957 34.69C18.5307 34.8697 18.5215 35.0404 18.5215 37.0619C18.5215 39.0834 18.5307 39.2541 18.6957 39.4338C18.9341 39.6943 19.4842 39.6943 19.7226 39.4338C19.8877 39.2541 19.8968 39.0834 19.8968 37.0619C19.8968 35.0404 19.8877 34.8697 19.7226 34.69C19.6034 34.5642 19.4384 34.5013 19.2092 34.5013C18.9799 34.5013 18.8149 34.5642 18.6957 34.69Z" fill="white"/>
<path d="M4.30929 34.8967C3.91502 35.0584 3.45657 35.6064 3.37404 36.0017C3.26402 36.5139 3.29152 37.9154 3.42906 38.2928C3.5941 38.7779 4.14425 39.2272 4.71273 39.344C5.32705 39.4697 8.15112 39.4697 8.76545 39.344C9.33393 39.2272 9.88407 38.7779 10.0491 38.2928C10.1867 37.9154 10.2142 36.5139 10.1041 36.0017C10.0124 35.5974 9.55399 35.0584 9.15055 34.8967C8.73794 34.726 4.70356 34.726 4.30929 34.8967ZM8.73794 37.0439C8.76545 37.9154 8.76545 37.9154 8.52705 38.0053C8.21531 38.1221 5.26287 38.1221 4.96029 38.0053C4.73107 37.9244 4.7219 37.8975 4.7219 37.0799C4.7219 36.6127 4.7494 36.2084 4.78608 36.1725C4.82276 36.1455 5.72132 36.1275 6.77576 36.1365L8.71043 36.1635L8.73794 37.0439Z" fill="white"/>
<path d="M22.8308 34.8967C22.4365 35.0584 21.9781 35.6064 21.8955 36.0017C21.7855 36.5139 21.813 37.9154 21.9505 38.2928C22.1156 38.7779 22.6657 39.2272 23.2342 39.344C23.8485 39.4697 26.6726 39.4697 27.2869 39.344C27.8554 39.2272 28.4056 38.7779 28.5706 38.2928C28.7081 37.9154 28.7356 36.5139 28.6256 36.0017C28.5339 35.5974 28.0755 35.0584 27.672 34.8967C27.2594 34.726 23.225 34.726 22.8308 34.8967ZM27.2594 37.0439C27.2869 37.9154 27.2869 37.9154 27.0485 38.0053C26.7368 38.1221 23.7844 38.1221 23.4818 38.0053C23.2525 37.9244 23.2434 37.8975 23.2434 37.0799C23.2434 36.6127 23.2709 36.2084 23.3076 36.1725C23.3442 36.1455 24.2428 36.1275 25.2972 36.1365L27.2319 36.1635L27.2594 37.0439Z" fill="white"/>
</svg>
