<svg width="46" height="46" viewBox="0 0 46 46" fill="none" xmlns="http://www.w3.org/2000/svg">
<path d="M12.7482 0.182535C12.5543 0.378897 12.5543 0.444349 12.582 5.21311C12.6189 10.7112 12.582 10.4494 13.4688 12.1979C13.8198 12.8899 14.0508 13.2078 14.8175 13.9839C15.5843 14.76 15.8984 14.9937 16.582 15.3491C18.3002 16.2373 18.097 16.2093 23.1685 16.2467L27.6304 16.2747L27.0207 17.4249C26.6882 18.0607 26.4203 18.6778 26.4203 18.7807C26.4203 18.8929 26.5311 19.0986 26.6604 19.2295C26.9006 19.4726 26.9099 19.4726 27.8798 19.4165C30.1708 19.2856 32.2124 18.4347 33.7828 16.9667L34.4941 16.3122L38.605 16.2654L42.7251 16.2186L43.2609 15.9662C43.9999 15.6109 44.8313 14.788 45.2008 14.0306C45.4779 13.4602 45.4964 13.3574 45.4964 12.4317C45.4964 11.4779 45.4872 11.4125 45.1546 10.7486C44.859 10.1315 44.6096 9.8416 43.1131 8.34552C41.6535 6.87749 41.3302 6.59698 40.7759 6.33517C39.9722 5.9518 40.7389 5.9705 28.2771 5.9518L18.448 5.93309L18.1893 4.92324C17.6628 2.87548 16.9238 1.95913 14.8452 0.762266C13.4134 -0.0605774 13.0808 -0.154083 12.7482 0.182535ZM14.6697 2.33315C15.418 2.77262 16.0554 3.41781 16.388 4.1004C16.5265 4.36221 16.7575 5.12895 16.9145 5.80219C17.0993 6.56893 17.2656 7.09256 17.3764 7.20476C17.5427 7.37307 17.8475 7.38242 25.5334 7.38242H33.5149L33.5704 7.70034C33.7644 8.73825 34.8821 10.1595 35.9168 10.6925C36.8406 11.1694 37.284 11.2161 40.7112 11.2161H43.8706L44.0276 11.7491C44.3509 12.8712 43.8336 14.0026 42.7251 14.6104C42.3648 14.8067 42.2355 14.8161 39.0115 14.8441C37.1639 14.8628 35.6581 14.8348 35.6581 14.7974C35.6674 14.76 35.7874 14.4888 35.9352 14.2083C36.2863 13.5538 36.2955 13.1704 35.9722 12.9086C35.732 12.7216 35.6212 12.7122 32.7574 12.7122C30.254 12.7122 29.7551 12.7309 29.5888 12.8525C29.478 12.9273 29.1639 13.4135 28.896 13.9278L28.4064 14.8628H24.0923C19.5288 14.8628 18.9838 14.8254 17.9399 14.4046C16.4249 13.7969 15.0115 12.3662 14.4018 10.8328C14.0138 9.8416 13.9584 9.13097 13.9492 5.43752C13.9492 3.53001 13.9676 1.95913 13.9861 1.95913C14.0046 1.95913 14.3187 2.12744 14.6697 2.33315ZM39.8983 7.53203C40.3048 7.65359 40.5357 7.83125 41.3948 8.66344C41.9491 9.20577 42.4017 9.692 42.4017 9.7294C42.4017 9.85096 38.3186 9.83225 37.6073 9.72005C37.284 9.66394 36.8313 9.52369 36.5911 9.40213C35.8983 9.03746 35.1962 8.23332 35.0577 7.63489L34.993 7.38242H37.2008C38.9283 7.38242 39.5195 7.41047 39.8983 7.53203ZM34.2724 14.1989C34.2724 14.3579 33.5796 15.1807 32.9052 15.8166C32.1108 16.574 31.187 17.135 30.1801 17.4903C29.4226 17.7521 28.4526 17.9672 28.4526 17.8737C28.4526 17.8269 29.0992 16.5927 29.5611 15.7511C29.6443 15.5922 29.8752 15.162 30.0692 14.788L30.411 14.1148H32.3417C33.441 14.1148 34.2724 14.1522 34.2724 14.1989Z" fill="white"/>
<path d="M17.8842 8.79435C17.6995 8.94396 17.644 9.06552 17.644 9.33668C17.644 9.86966 17.8658 10.0193 18.7433 10.0754C20.0274 10.1502 20.5078 9.93511 20.5078 9.30863C20.5078 9.07487 20.4431 8.93461 20.2676 8.79435C20.0551 8.62604 19.8888 8.59799 19.0759 8.59799C18.263 8.59799 18.0967 8.62604 17.8842 8.79435Z" fill="white"/>
<path d="M21.8476 8.83172C21.5428 9.13094 21.5428 9.52366 21.8569 9.82288C22.0601 10.0192 22.1987 10.0473 22.8453 10.0753C23.7691 10.1221 24.1848 10.0192 24.4157 9.70132C24.6282 9.4208 24.582 9.07484 24.2956 8.78497C24.1294 8.61666 23.9816 8.59796 23.0947 8.59796C22.134 8.59796 22.0601 8.60731 21.8476 8.83172Z" fill="white"/>
<path d="M25.9397 8.72895C25.5701 9.00947 25.5517 9.6079 25.9119 9.90712C26.0875 10.0474 27.3438 10.1502 27.8519 10.0567C28.5263 9.92582 28.7664 9.28998 28.3138 8.83181C28.1013 8.6074 28.0274 8.59805 27.0944 8.59805C26.42 8.6074 26.0413 8.6448 25.9397 8.72895Z" fill="white"/>
<path d="M29.8845 8.83178C29.4411 9.28061 29.6906 9.92579 30.3557 10.0567C30.9284 10.1596 32.1201 10.0473 32.3233 9.86969C32.6744 9.55177 32.6374 9.01879 32.2494 8.71958C32.1571 8.64477 31.7414 8.60737 31.1039 8.59802C30.1709 8.59802 30.097 8.60737 29.8845 8.83178Z" fill="white"/>
<path d="M0.923597 6.13883C0.406277 6.33519 0.276947 7.03648 0.701889 7.3731C0.942073 7.56946 1.03445 7.56946 5.60719 7.56946H10.2631L10.4848 7.3357C10.7619 7.06453 10.7804 6.64376 10.5402 6.34454L10.3647 6.12013L5.7088 6.10143C3.15916 6.09208 0.9975 6.11078 0.923597 6.13883Z" fill="white"/>
<path d="M3.81572 9.08421C3.70487 9.14031 3.5663 9.30862 3.50164 9.46758C3.36307 9.8042 3.52011 10.1595 3.88039 10.3465C4.24066 10.5335 9.98661 10.5148 10.3376 10.3278C10.7811 10.1034 10.855 9.57043 10.4855 9.20577L10.2637 8.972L7.14135 8.98135C5.15521 8.98135 3.94505 9.01876 3.81572 9.08421Z" fill="white"/>
<path d="M0.665242 12.0858C0.406582 12.3663 0.397345 12.8338 0.646767 13.0863C0.822286 13.264 0.951615 13.2733 5.58902 13.2733C10.2264 13.2733 10.3557 13.264 10.5313 13.0863C10.8084 12.8058 10.7807 12.3102 10.4758 12.0671C10.2357 11.8707 10.1433 11.8707 5.54283 11.8707H0.859237L0.665242 12.0858Z" fill="white"/>
<path d="M16.6744 19.3417C16.0647 19.6129 15.7414 20.0804 15.4273 21.1277L15.1317 22.0627H12.7206C9.87539 22.0721 9.19178 22.1375 8.3419 22.5302C7.75992 22.8014 7.45507 23.0819 4.26801 26.2985C1.14562 29.459 0.794579 29.833 0.498968 30.4314C0.323448 30.7867 0.138691 31.3104 0.0925021 31.5909C-0.0368278 32.2828 -0.0275899 38.0988 0.10174 38.7253C0.480492 40.5767 1.95855 41.9232 3.91697 42.1943L4.71143 42.2972L4.81304 42.6712C5.33036 44.6255 7.12251 46 9.1456 46C11.141 46 12.813 44.7564 13.395 42.8395L13.5613 42.3066H23.0024H32.4435L32.6097 42.8395C33.0532 44.2889 34.1155 45.3642 35.5474 45.813C36.2495 46.0374 37.3303 46.0561 38.0231 45.8691C39.5012 45.4764 40.7945 44.158 41.1917 42.6525C41.2933 42.2972 41.3303 42.2598 41.5982 42.2598C42.1247 42.2598 43.1409 41.998 43.6674 41.7268C44.7206 41.1938 45.6536 39.9409 45.903 38.7253C46.0323 38.0801 46.0323 35.5929 45.903 34.9477C45.6351 33.6573 44.7298 32.4698 43.5658 31.9181C43.1409 31.7218 41.9954 31.3758 40.3233 30.955C38.9007 30.5997 37.5705 30.2351 37.3672 30.1509C37.0993 30.0387 36.0093 29.0008 33.4873 26.4575C31.4642 24.4284 29.8014 22.8295 29.5612 22.6892C28.6744 22.1843 28.3511 22.1375 25.2749 22.0721L22.4204 22.016L22.2449 21.4549C21.783 19.9776 21.5705 19.6316 20.9239 19.3417C20.6098 19.1921 20.3049 19.1641 18.7992 19.1641C17.3026 19.1641 16.9885 19.1921 16.6744 19.3417ZM20.3234 20.6601C20.4804 20.7443 20.9423 21.9318 20.8592 22.0253C20.8315 22.044 19.88 22.0534 18.7345 22.044L16.6467 22.016L16.8223 21.4549C17.0809 20.5947 17.1456 20.5666 18.7714 20.5666C19.5289 20.5666 20.231 20.604 20.3234 20.6601ZM28.5913 23.83C28.9423 24.0076 29.8938 24.9053 32.5635 27.5889C35.4919 30.5343 36.1663 31.1608 36.6374 31.3945C36.9885 31.5722 38.1524 31.9181 39.8707 32.3576C41.3395 32.7316 42.7159 33.115 42.9377 33.2179C43.8153 33.6199 44.5266 34.7046 44.5266 35.6209V35.995H43.7413C43.3164 35.995 42.8638 36.0417 42.7344 36.0978C42.4111 36.2474 42.2541 36.6682 42.3926 37.0142C42.5497 37.3882 42.8453 37.491 43.7413 37.491H44.5266V37.9586C44.5266 39.3892 43.3626 40.6235 41.8938 40.745L41.3026 40.7918L41.2009 40.3803C40.8037 38.903 39.6859 37.7061 38.2448 37.2105C37.5797 36.9861 36.4065 36.9394 35.7506 37.117C34.2356 37.5284 32.9238 38.8562 32.5266 40.371L32.4157 40.7637H23.0024H13.589L13.4781 40.371C13.0994 38.9123 11.9539 37.6968 10.5313 37.2105C9.86615 36.9861 8.69294 36.9394 8.03705 37.117C6.52205 37.5284 5.21027 38.8469 4.80381 40.3803L4.70219 40.7918L4.11097 40.745C3.01166 40.6515 2.03245 39.9315 1.67217 38.9404C1.48742 38.4448 1.47818 38.2297 1.47818 35.116C1.47818 32.3202 1.49666 31.7498 1.62599 31.3571C1.76455 30.9457 2.15254 30.5249 5.11789 27.5047C6.94699 25.6346 8.58209 24.0357 8.72989 23.9609C9.45968 23.5681 9.34883 23.5681 18.9377 23.5868L28.1294 23.6056L28.5913 23.83ZM10.365 38.6786C10.9655 38.9591 11.5567 39.5388 11.8708 40.1746C12.1017 40.6328 12.1387 40.8292 12.1387 41.465C12.1479 42.1289 12.1109 42.2879 11.843 42.8395C11.3073 43.9429 10.365 44.5413 9.1456 44.5507C8.5359 44.5507 8.36038 44.5039 7.82458 44.2421C7.15946 43.9055 6.69757 43.438 6.365 42.7367C6.06939 42.1382 6.06015 40.9133 6.34653 40.2868C6.7068 39.4827 7.42736 38.8282 8.24952 38.557C8.78532 38.3793 9.81996 38.4448 10.365 38.6786ZM38.0785 38.6786C38.679 38.9591 39.3072 39.5669 39.6028 40.1933C39.8245 40.6422 39.8615 40.8292 39.8615 41.5118C39.8615 42.2317 39.8337 42.3627 39.5474 42.8956C38.9654 43.9803 38.0508 44.5413 36.8591 44.5413C35.6398 44.5413 34.6975 43.9429 34.1617 42.8395C33.8938 42.2879 33.8568 42.1289 33.8568 41.465C33.8661 40.8385 33.903 40.6328 34.1247 40.2027C34.2633 39.9222 34.4665 39.5856 34.5774 39.464C34.8915 39.1274 35.5566 38.6879 35.9723 38.557C36.4989 38.3793 37.5427 38.4448 38.0785 38.6786Z" fill="white"/>
<path d="M9.88508 25.5505C9.40471 25.6907 4.37932 30.7587 4.23152 31.2356C4.03752 31.9088 4.35161 32.6194 4.95207 32.8719C5.21073 32.9841 7.49248 33.0028 18.7442 33.0028C28.0467 33.0028 32.3053 32.9748 32.4901 32.9C32.8781 32.7597 33.2476 32.3576 33.3492 31.9743C33.534 31.2917 33.4416 31.1795 30.6056 28.3089C28.3885 26.0741 27.8804 25.6159 27.5756 25.5318C27.0675 25.3915 10.3377 25.4102 9.88508 25.5505ZM12.4717 29.2159V31.5067H9.12758H5.77424L8.03751 29.2159L10.3008 26.925H11.3816H12.4717V29.2159ZM18.8458 29.2159V31.5067H16.3516H13.8574V29.2159V26.925H16.3516H18.8458V29.2159ZM29.4693 29.2159L31.7326 31.5067H26.0236H20.3239V29.2159V26.925H23.7696H27.2061L29.4693 29.2159Z" fill="white"/>
<path d="M16.6929 35.0318C16.656 35.0599 16.6282 35.4807 16.6282 35.9669V36.8365H15.7506H14.873V37.7715V38.7066H15.7506H16.6282V37.7715V36.8365H17.552H18.4758V37.7715V38.7159L19.3811 38.6879L20.2772 38.6598L20.3049 37.7435L20.3326 36.8365H21.201H22.0786V37.7715V38.7066H23.0024H23.9261V37.7715V36.8365H24.8037H25.6721L25.6998 37.7435L25.7275 38.6598L26.6328 38.6879L27.5289 38.7159V37.7715V36.8365H28.4527H29.3765V37.7715V38.7066H30.2541H31.1317V37.7715V36.8365H30.2541H29.3857L29.358 35.9201L29.3303 35.0131L28.4342 34.9851L27.5289 34.957V35.9014V36.8365H26.6051H25.6813V35.9014V34.9664H24.8037H23.9261V35.9014V36.8365H23.0024H22.0786V35.9014V34.9664H21.201H20.3234V35.9014V36.8365H19.3996H18.4758V35.9014V34.9664H17.6167C17.1363 34.9664 16.7206 34.9944 16.6929 35.0318Z" fill="white"/>
<path d="M8.22169 39.754C7.58428 40.0999 7.26096 40.6329 7.224 41.3996C7.18705 42.1757 7.418 42.69 8.01846 43.1295C8.34178 43.3632 8.52654 43.4287 8.99767 43.4568C9.51499 43.4942 9.65356 43.4568 10.06 43.2417C10.7159 42.877 11.0208 42.3814 11.067 41.6054C11.0947 41.1004 11.0577 40.9228 10.8822 40.5768C10.5404 39.9316 10.0138 39.6043 9.25633 39.5669C8.73901 39.5389 8.57273 39.5669 8.22169 39.754ZM9.51499 41.1378C9.70899 41.3342 9.74594 41.5773 9.62585 41.755C9.55194 41.8765 9.2009 42.0729 9.06234 42.0729C8.89606 42.0729 8.59121 41.7082 8.59121 41.5118C8.59121 41.409 8.67435 41.2407 8.77596 41.1378C8.87758 41.035 9.04386 40.9508 9.14548 40.9508C9.24709 40.9508 9.41338 41.035 9.51499 41.1378Z" fill="white"/>
<path d="M35.9353 39.754C35.7044 39.8849 35.3995 40.1654 35.2425 40.3804C34.993 40.7451 34.9653 40.848 34.9653 41.5025C34.9653 42.1477 34.993 42.2692 35.224 42.6059C35.3718 42.8209 35.6859 43.0921 35.9445 43.2417C36.351 43.4568 36.4988 43.4942 36.9977 43.4568C37.672 43.4193 38.1062 43.1669 38.4942 42.5965C38.8637 42.0729 38.9007 41.1659 38.5958 40.5768C38.254 39.9316 37.7274 39.6043 36.9699 39.5669C36.4526 39.5389 36.2863 39.5669 35.9353 39.754ZM37.2286 41.1378C37.3302 41.2407 37.4134 41.409 37.4134 41.5118C37.4134 41.7082 37.1085 42.0729 36.9422 42.0729C36.8037 42.0729 36.4526 41.8765 36.3787 41.755C36.1847 41.4651 36.4896 40.9508 36.8591 40.9508C36.9607 40.9508 37.127 41.035 37.2286 41.1378Z" fill="white"/>
</svg>
