<svg width="12" height="20" viewBox="0 0 12 20" fill="none" xmlns="http://www.w3.org/2000/svg">
<path fill-rule="evenodd" clip-rule="evenodd" d="M3.77673 0.0503561C3.12655 0.26678 2.64762 0.813444 2.50822 1.49832C2.48171 1.62853 2.46004 1.9853 2.46004 2.2912V2.84738H2.32595C1.857 2.84738 1.18686 3.18048 0.754601 3.62838C0.403627 3.99208 0.205563 4.3501 0.0845997 4.83946C0.00197185 5.17376 -0.000618366 5.35164 7.23572e-05 10.5712C0.000892591 16.4634 -0.00653276 16.2797 0.254431 16.8399C0.52472 17.4201 1.02243 17.9087 1.58321 18.1444L1.83407 18.2498L1.8614 18.6759C1.89455 19.1934 1.991 19.4259 2.28637 19.7007C2.52972 19.927 2.7327 20.0006 3.1126 20C3.45106 19.9995 3.75877 19.8641 3.95973 19.6272C4.19492 19.3501 4.24474 19.2086 4.2649 18.7609L4.28351 18.3477H6H7.71649L7.7351 18.7609C7.75526 19.2086 7.80508 19.3501 8.04027 19.6272C8.24122 19.8641 8.54894 19.9995 8.8874 20C9.26729 20.0006 9.47028 19.927 9.71363 19.7007C10.0065 19.4283 10.0991 19.2052 10.1357 18.6839L10.1659 18.2534L10.4108 18.1506C10.9676 17.9168 11.4627 17.4307 11.742 16.8437C12.0068 16.2872 11.9991 16.4743 11.9999 10.5712C12.0006 5.35164 11.998 5.17376 11.9154 4.83946C11.7944 4.3501 11.5964 3.99208 11.2454 3.62838C10.8131 3.18048 10.143 2.84738 9.67404 2.84738H9.53996V2.2912C9.53996 1.9853 9.51811 1.62853 9.49139 1.49832C9.37272 0.920115 9.00037 0.427813 8.48186 0.163638L8.18208 0.0108684L6.06575 0.00188981C4.43896 -0.00503395 3.90948 0.00617803 3.77673 0.0503561ZM7.95237 0.883977C8.17638 0.948346 8.45777 1.1834 8.56483 1.39562C8.64146 1.5475 8.65708 1.6702 8.669 2.21343L8.68299 2.85256L8.47473 2.8388L8.26644 2.82504L8.24485 2.28901C8.23281 1.9895 8.19987 1.71076 8.1703 1.65729C8.08663 1.50627 7.86815 1.33621 7.69309 1.28591C7.47823 1.22418 4.52177 1.22418 4.30691 1.28591C4.13185 1.33621 3.91337 1.50627 3.8297 1.65729C3.80013 1.71076 3.76719 1.9895 3.75515 2.28901L3.73356 2.82504L3.5285 2.83867L3.32345 2.85229V2.27579C3.32345 1.66274 3.35902 1.48299 3.52656 1.24951C3.64891 1.07905 3.77941 0.983679 4.00377 0.900818C4.20762 0.82555 7.69719 0.81063 7.95237 0.883977ZM7.41564 2.47885L7.40303 2.82504H6H4.59697L4.58436 2.47885L4.57176 2.13267H6H7.42824L7.41564 2.47885ZM9.76449 3.74564C10.2853 3.85838 10.7736 4.25862 11 4.75843L11.1157 5.01385V10.5975V16.1812L10.9888 16.4492C10.827 16.791 10.4967 17.1328 10.1659 17.3005L9.90691 17.4319H6H2.09309L1.83407 17.3005C1.50326 17.1328 1.17296 16.791 1.01121 16.4492L0.884328 16.1812V10.5975V5.01385L1.00002 4.75843C1.21942 4.27408 1.67952 3.8838 2.17943 3.75801C2.4736 3.68399 9.42733 3.67265 9.76449 3.74564ZM2.716 7.37471C2.25654 7.50452 1.81154 7.91584 1.63135 8.37737L1.53188 8.63207V12.1386V15.6452L1.6689 15.9445C1.83709 16.3119 2.12552 16.6185 2.45158 16.7766L2.69748 16.8959H6H9.30252L9.54842 16.7766C10.01 16.5528 10.3439 16.0976 10.4449 15.5544C10.4802 15.3643 10.4907 14.3326 10.4813 11.9599L10.4681 8.63207L10.3679 8.37535C10.2281 8.01711 9.90393 7.66408 9.54833 7.4829L9.26125 7.33666L6.08729 7.32781C3.66246 7.32102 2.86675 7.3321 2.716 7.37471ZM9.13783 8.25524C9.30321 8.31987 9.49497 8.51262 9.56685 8.68648C9.60268 8.77314 9.6263 8.99045 9.6263 9.23368V9.63713H6H2.3737V9.21979C2.3737 8.69715 2.4707 8.46916 2.76051 8.31058L2.94851 8.20771H5.98239C8.02101 8.20771 9.05615 8.2233 9.13783 8.25524ZM8.33184 10.7427C8.33262 11.0665 8.39733 11.2014 8.60135 11.3047C8.75797 11.3841 8.76782 11.3841 8.92444 11.3047C9.12846 11.2014 9.19317 11.0665 9.19395 10.7427L9.1946 10.4859H9.41045H9.6263V12.9555V15.4252L9.52917 15.6219C9.41476 15.8536 9.27312 15.9709 9.04018 16.0268C8.94702 16.0491 7.55952 16.067 5.95683 16.0665C2.88147 16.0656 2.84287 16.0632 2.62379 15.8616C2.57449 15.8163 2.49851 15.6988 2.4549 15.6005C2.38104 15.4341 2.37551 15.2529 2.37465 12.9538L2.3737 10.4859H5.35245H8.33119L8.33184 10.7427ZM3.43077 18.6536C3.43025 18.9082 3.41786 18.9481 3.30963 19.0444C3.17688 19.1626 3.07915 19.1771 2.92011 19.1021C2.77851 19.0354 2.71906 18.8838 2.71906 18.5895V18.3441L3.07522 18.3571L3.43137 18.37L3.43077 18.6536ZM9.28094 18.5913C9.28094 18.8838 9.22128 19.0355 9.07989 19.1021C8.92211 19.1765 8.82329 19.1628 8.69499 19.0486C8.60532 18.9688 8.57428 18.8935 8.55775 18.7154C8.52459 18.3583 8.53543 18.3477 8.93424 18.3477H9.28094V18.5913Z" fill="#FFC000"/>
</svg>
