<svg width="20" height="22" viewBox="0 0 20 22" fill="none" xmlns="http://www.w3.org/2000/svg">
<path fill-rule="evenodd" clip-rule="evenodd" d="M6.29456 0.0553917C5.21091 0.293458 4.41269 0.894789 4.18037 1.64815C4.13619 1.79138 4.10007 2.18383 4.10007 2.52032V3.13212H3.87659C3.09499 3.13212 1.97811 3.49853 1.25767 3.99122C0.672713 4.39128 0.342604 4.78511 0.140999 5.3234C0.00328642 5.69114 -0.00103061 5.8868 0.000120595 11.6283C0.00148765 18.1097 -0.0108879 17.9077 0.424052 18.5239C0.874533 19.1621 1.70405 19.6995 2.63868 19.9588L3.05679 20.0748L3.10233 20.5434C3.15759 21.1127 3.31833 21.3685 3.81061 21.6707C4.2162 21.9198 4.55451 22.0007 5.18767 22C5.75176 21.9994 6.26462 21.8505 6.59955 21.59C6.99154 21.2851 7.07457 21.1295 7.10817 20.637L7.13918 20.1824H10H12.8608L12.8918 20.637C12.9254 21.1295 13.0085 21.2851 13.4004 21.59C13.7354 21.8505 14.2482 21.9994 14.8123 22C15.4455 22.0007 15.7838 21.9198 16.1894 21.6707C16.6774 21.3711 16.8318 21.1258 16.8928 20.5523L16.9432 20.0788L17.3513 19.9657C18.2794 19.7085 19.1045 19.1738 19.57 18.528C20.0113 17.9159 19.9985 18.1217 19.9999 11.6283C20.001 5.8868 19.9967 5.69114 19.859 5.3234C19.6574 4.78511 19.3273 4.39128 18.7423 3.99122C18.0219 3.49853 16.905 3.13212 16.1234 3.13212H15.8999V2.52032C15.8999 2.18383 15.8635 1.79138 15.819 1.64815C15.6212 1.01213 15.0006 0.470594 14.1364 0.180002L13.6368 0.0119552L10.1096 0.00207879C7.39828 -0.00553735 6.5158 0.00679584 6.29456 0.0553917ZM13.254 0.972375C13.6273 1.04318 14.0963 1.30174 14.2747 1.53518C14.4024 1.70225 14.4285 1.83722 14.4483 2.43477L14.4716 3.13782L14.1246 3.12268L13.7774 3.10755L13.7414 2.51791C13.7213 2.18845 13.6664 1.88184 13.6172 1.82302C13.4777 1.65689 13.1136 1.46983 12.8218 1.4145C12.4637 1.3466 7.53628 1.3466 7.17818 1.4145C6.88642 1.46983 6.52228 1.65689 6.38284 1.82302C6.33355 1.88184 6.27865 2.18845 6.25858 2.51791L6.22261 3.10755L5.88084 3.12253L5.53908 3.13752V2.50337C5.53908 1.82902 5.59836 1.63129 5.8776 1.37446C6.08151 1.18695 6.29902 1.08205 6.67294 0.990899C7.01269 0.908105 12.8287 0.891693 13.254 0.972375ZM12.3594 2.72674L12.3384 3.10755H10H7.66161L7.6406 2.72674L7.61959 2.34593H10H12.3804L12.3594 2.72674ZM16.2741 4.1202C17.1422 4.24422 17.956 4.68448 18.3333 5.23427L18.5261 5.51523V11.6573V17.7993L18.3147 18.0941C18.0451 18.4701 17.4946 18.846 16.9432 19.0306L16.5115 19.1751H10H3.48849L3.05679 19.0306C2.50543 18.846 1.95494 18.4701 1.68534 18.0941L1.47388 17.7993V11.6573V5.51523L1.66671 5.23427C2.03236 4.70148 2.79921 4.27218 3.63239 4.13381C4.12266 4.05239 15.7122 4.03991 16.2741 4.1202ZM4.52666 8.11219C3.7609 8.25498 3.01923 8.70743 2.71891 9.2151L2.55314 9.49528V13.3525V17.2097L2.78151 17.539C3.06182 17.9431 3.54253 18.2804 4.08597 18.4543L4.4958 18.5855H10H15.5042L15.914 18.4543C16.6834 18.208 17.2398 17.7074 17.4082 17.1098C17.4671 16.9008 17.4845 15.7659 17.4688 13.1559L17.4469 9.49528L17.2799 9.21289C17.0468 8.81882 16.5065 8.43049 15.9139 8.23119L15.4354 8.07032L10.1455 8.06059C6.1041 8.05312 4.77791 8.06531 4.52666 8.11219ZM15.2297 9.08076C15.5054 9.15186 15.825 9.36389 15.9448 9.55513C16.0045 9.65045 16.0438 9.8895 16.0438 10.157V10.6008H10H3.95617V10.1418C3.95617 9.56687 4.11784 9.31608 4.60084 9.14164L4.91419 9.02848H9.97064C13.3684 9.02848 15.0936 9.04563 15.2297 9.08076ZM13.8864 11.817C13.8877 12.1731 13.9955 12.3215 14.3356 12.4352C14.5966 12.5225 14.613 12.5225 14.8741 12.4352C15.2141 12.3215 15.322 12.1731 15.3232 11.817L15.3243 11.5344H15.6841H16.0438V14.2511V16.9677L15.8819 17.1841C15.6913 17.439 15.4552 17.5679 15.067 17.6295C14.9117 17.654 12.5992 17.6737 9.92805 17.6731C4.80245 17.6721 4.73812 17.6695 4.37298 17.4478C4.29081 17.3979 4.16418 17.2687 4.09151 17.1606C3.9684 16.9775 3.95919 16.7782 3.95775 14.2492L3.95617 11.5344H8.92074H13.8853L13.8864 11.817ZM5.71794 20.5189C5.71708 20.7991 5.69643 20.8429 5.51605 20.9489C5.2948 21.0789 5.13191 21.0948 4.86684 21.0124C4.63085 20.9389 4.53177 20.7722 4.53177 20.4484V20.1785L5.12536 20.1928L5.71895 20.207L5.71794 20.5189ZM15.4682 20.4504C15.4682 20.7722 15.3688 20.939 15.1332 21.0124C14.8702 21.0942 14.7055 21.079 14.4916 20.9534C14.3422 20.8656 14.2905 20.7828 14.2629 20.587C14.2077 20.1941 14.2257 20.1824 14.8904 20.1824H15.4682V20.4504Z" fill="#FFC000"/>
</svg>
