<svg width="20" height="20" viewBox="0 0 20 20" fill="none" xmlns="http://www.w3.org/2000/svg">
<path fill-rule="evenodd" clip-rule="evenodd" d="M14.1717 0.0435352C13.1145 0.232103 12.1744 0.730126 11.4392 1.49103C11.0079 1.93734 10.7743 2.26423 10.5221 2.77439C10.1471 3.53291 9.97837 4.33722 10.0185 5.17564C10.0316 5.45086 10.0547 5.74643 10.0698 5.83242L10.0972 5.98879H7.8898C5.06327 5.98879 5.25186 5.94221 4.3063 6.87367L3.71654 7.45467L3.36961 8.38975L3.02272 9.32479H2.84426H2.66579V8.92731C2.66579 8.45677 2.61151 8.29889 2.39223 8.13142C2.23607 8.01216 2.22977 8.01116 1.56618 7.99782C0.73084 7.98105 0.595104 8.01375 0.308123 8.30085C0.0499911 8.55906 -0.0175434 8.76535 0.0036341 9.23114C0.0166408 9.51741 0.0343581 9.58129 0.138745 9.71819C0.338556 9.98028 0.403047 9.99199 1.6431 9.99199C2.53376 9.99199 2.74917 10.0028 2.74917 10.0473C2.74917 10.0777 2.40962 10.3732 1.99457 10.7041C1.44996 11.1382 1.20925 11.3578 1.12954 11.4932L1.01911 11.6808V14.2245V16.7682L1.1155 17.0472C1.2125 17.3281 1.46618 17.7618 1.59553 17.868C1.6549 17.9167 1.66528 18.0153 1.66528 18.5303C1.66528 19.2777 1.70188 19.4139 1.97652 19.6887C2.26342 19.9756 2.36955 20 3.3328 20C4.29604 20 4.40218 19.9756 4.68908 19.6887C4.92536 19.4523 5.00032 19.2625 5.00032 18.9005V18.6656H5.14789C5.38806 18.6656 5.6043 18.5257 5.79243 18.2485L5.96227 17.9984H9.33587H12.7095L12.8793 18.2485C13.0675 18.5257 13.2837 18.6656 13.5239 18.6656H13.6714V18.9005C13.6714 19.2625 13.7464 19.4523 13.9827 19.6887C14.2696 19.9756 14.3757 20 15.3389 20C16.3022 20 16.4083 19.9756 16.6952 19.6887C16.969 19.4149 17.0065 19.2767 17.0065 18.5423V17.9491L17.1536 17.7772C17.3577 17.5387 17.5314 17.174 17.6101 16.8186C17.6676 16.5586 17.675 16.1916 17.6646 14.0994L17.6526 11.6808L17.5422 11.4932C17.4625 11.3578 17.2218 11.1382 16.6772 10.7041C16.2621 10.3732 15.9226 10.0785 15.9226 10.0491C15.9226 10.0073 16.1746 9.99304 17.0869 9.98345C18.1875 9.97181 18.2575 9.96643 18.3662 9.88516C18.5983 9.71173 18.6521 9.59418 18.6672 9.22793C18.6767 8.9982 18.6606 8.82723 18.618 8.70392L18.5547 8.52086L18.8049 8.22437C20.268 6.49053 20.4001 4.04178 19.1326 2.14889C18.8465 1.72142 18.0914 1.00326 17.6355 0.724872C17.1937 0.455073 16.554 0.191487 16.0893 0.0878206C15.6694 -0.00587935 14.5887 -0.0308577 14.1717 0.0435352ZM16.1102 0.792634C17.4111 1.13324 18.5342 2.12804 19.0254 3.37474C19.2627 3.97714 19.3117 4.24844 19.3129 4.96714C19.3139 5.55715 19.3015 5.68117 19.2053 6.03908C19.0044 6.7871 18.6622 7.40634 18.1529 7.94369C17.7837 8.33321 17.4739 8.57186 17.0319 8.80705C14.8788 9.95271 12.2333 9.10875 11.139 6.92704C10.16 4.97531 10.7855 2.59299 12.5928 1.39011C13.4024 0.851265 14.1376 0.642222 15.1305 0.668577C15.5681 0.68017 15.7861 0.707775 16.1102 0.792634ZM14.6719 1.91103V2.17011L14.4725 1.97358C14.3628 1.86553 14.2542 1.77709 14.2312 1.77709C14.1776 1.77709 13.7965 2.16281 13.7965 2.21711C13.7965 2.23967 13.9935 2.45451 14.2342 2.69449L14.6719 3.13084L14.6716 3.59029L14.6713 4.04974L14.5092 4.13773L14.3471 4.22571L13.9509 3.9949L13.5547 3.76414L13.4004 3.17717C13.3155 2.85437 13.2384 2.57765 13.229 2.5623C13.2159 2.5407 12.6393 2.67731 12.5997 2.71138C12.5949 2.71551 12.6193 2.82764 12.654 2.96054C12.6887 3.09347 12.7114 3.21858 12.7044 3.23859C12.6975 3.25861 12.6008 3.2182 12.4895 3.14881C12.3783 3.07942 12.2825 3.02859 12.2768 3.0358C12.271 3.04302 12.1969 3.1745 12.112 3.328L11.9578 3.60705L12.0746 3.67886C12.1389 3.71835 12.2376 3.77873 12.294 3.81301C12.3953 3.87468 12.3936 3.87614 12.1362 3.94666C11.9931 3.98581 11.8664 4.02743 11.8548 4.03906C11.8354 4.05841 11.9565 4.61173 11.9884 4.65005C11.996 4.65914 12.2793 4.59509 12.618 4.50777L13.2337 4.34894L13.6193 4.56891L14.0049 4.78887V4.98799V5.18711L13.6193 5.40708L13.2337 5.62704L12.618 5.46821C12.2793 5.38089 11.996 5.31684 11.9884 5.32593C11.9565 5.36425 11.8354 5.91757 11.8548 5.93692C11.8664 5.94855 11.9931 5.99017 12.1362 6.02932L12.3964 6.10059L12.2731 6.17661C12.2053 6.21843 12.1066 6.27882 12.0538 6.3108L11.9578 6.36893L12.112 6.64799C12.1969 6.80148 12.271 6.93296 12.2768 6.94018C12.2825 6.94739 12.3783 6.89656 12.4895 6.82717C12.6008 6.75778 12.6975 6.71737 12.7044 6.73739C12.7114 6.75741 12.6887 6.88251 12.654 7.01545C12.6193 7.14834 12.5949 7.26048 12.5997 7.2646C12.6393 7.29867 13.2159 7.43528 13.229 7.41368C13.2384 7.39834 13.3155 7.12161 13.4004 6.79881L13.5547 6.21184L13.9509 5.98108L14.3471 5.75027L14.5092 5.83825L14.6713 5.92624L14.6716 6.38569L14.6719 6.84514L14.2342 7.28149C13.9935 7.52148 13.7985 7.73694 13.801 7.76029C13.8035 7.78364 13.9073 7.89528 14.0316 8.00837L14.2577 8.21399L14.4648 8.00995L14.6719 7.80587V8.06495V8.32399H15.0054H15.3389V8.06495V7.80587L15.5461 8.00995L15.7532 8.21399L15.9793 8.00837C16.1036 7.89528 16.2074 7.78364 16.2099 7.76029C16.2124 7.73694 16.0174 7.52148 15.7767 7.28149L15.3389 6.84514L15.3393 6.38569L15.3396 5.92624L15.5017 5.83825L15.6638 5.75027L16.0599 5.98108L16.4561 6.21184L16.6105 6.79881C16.6954 7.12161 16.7726 7.39854 16.7821 7.41418C16.796 7.43699 17.3765 7.30051 17.4106 7.26644C17.4158 7.26131 17.3915 7.14834 17.3569 7.01545C17.3222 6.88251 17.2995 6.75741 17.3065 6.73739C17.3134 6.71737 17.4101 6.75778 17.5214 6.82717C17.6326 6.89656 17.7283 6.94739 17.7341 6.94018C17.7399 6.93296 17.8143 6.80098 17.8995 6.64694L18.0543 6.3668L17.8346 6.23157L17.6149 6.09629L17.8705 6.03212C18.0112 5.99684 18.1377 5.95618 18.1517 5.94184C18.1739 5.91924 18.059 5.36996 18.023 5.32651C18.0158 5.31775 17.7325 5.38193 17.3935 5.46917L16.7772 5.62775L16.3916 5.40741L16.006 5.18711V4.98799V4.78887L16.3916 4.56857L16.7772 4.34823L17.3935 4.50681C17.7325 4.59405 18.0158 4.65823 18.023 4.64947C18.059 4.60602 18.1739 4.05675 18.1517 4.03414C18.1377 4.0198 18.0112 3.97914 17.8705 3.94386L17.6149 3.87969L17.8346 3.74441L18.0543 3.60918L17.8995 3.32904C17.8143 3.175 17.7399 3.04302 17.7341 3.0358C17.7283 3.02859 17.6326 3.07942 17.5214 3.14881C17.4101 3.2182 17.3134 3.25861 17.3065 3.23859C17.2995 3.21858 17.3222 3.09347 17.3569 2.96054C17.3915 2.82764 17.4158 2.71467 17.4106 2.70954C17.3765 2.67547 16.796 2.53899 16.7821 2.5618C16.7726 2.57744 16.6954 2.85437 16.6105 3.17717L16.4561 3.76414L16.0599 3.9949L15.6638 4.22571L15.5017 4.13773L15.3396 4.04974L15.3393 3.59029L15.3389 3.13084L15.7767 2.69449C16.0174 2.45451 16.2144 2.23833 16.2144 2.21411C16.2144 2.16019 15.8307 1.77709 15.7767 1.77709C15.7553 1.77709 15.6481 1.86553 15.5384 1.97358L15.3389 2.17011V1.91103V1.65199H15.0054H14.6719V1.91103ZM15.2366 4.75676C15.4434 4.9636 15.2969 5.32159 15.0054 5.32159C14.8341 5.32159 14.6719 5.15942 14.6719 4.98799C14.6719 4.81656 14.8341 4.65439 15.0054 4.65439C15.0867 4.65439 15.1721 4.69221 15.2366 4.75676ZM10.3217 6.72897C10.3351 6.76912 10.3991 6.91924 10.4641 7.06257L10.5821 7.32319H7.69887H4.81556L5.04342 7.08909C5.16874 6.96032 5.36509 6.81037 5.47973 6.75591L5.68817 6.65683L7.99273 6.65641C10.1507 6.65603 10.2989 6.66062 10.3217 6.72897ZM11.221 8.23788C11.5729 8.67936 12.2172 9.18118 12.8168 9.48084C13.2626 9.7036 13.9136 9.89217 14.4843 9.96381C14.5531 9.97244 12.1097 9.98232 9.05448 9.98574C5.99929 9.9892 3.49955 9.97948 3.49955 9.96418C3.49955 9.94892 3.66355 9.49856 3.86399 8.96338L4.22842 7.99039L7.62633 7.99073L11.0242 7.99106L11.221 8.23788ZM1.99878 8.99119V9.32479H1.33177H0.664764V9.09357C0.664764 8.90362 0.683066 8.84399 0.767109 8.75997C0.865659 8.66135 0.89013 8.65759 1.43412 8.65759H1.99878V8.99119ZM18.007 9.15799V9.32479H17.7502H17.4935L17.7398 9.16125C17.8753 9.07126 17.9908 8.9962 17.9966 8.99445C18.0023 8.99265 18.007 9.06625 18.007 9.15799ZM15.6917 10.7631C15.7595 10.8186 15.8064 10.8721 15.7959 10.882C15.7201 10.9528 14.5361 11.5094 14.2336 11.6163C13.1841 11.9873 12.9749 12.0021 9.04406 11.9831C5.35633 11.9654 5.51258 11.9766 4.56835 11.6619C4.25335 11.557 2.95019 10.9576 2.87631 10.8837C2.86552 10.8729 2.91221 10.8186 2.98008 10.7631L3.10351 10.6622H9.33587H15.5682L15.6917 10.7631ZM2.3332 12.0065C2.3342 12.701 2.38031 12.8846 2.61614 13.1338C2.8089 13.3374 2.98946 13.3964 4.10419 13.6203C5.00824 13.8019 5.23486 13.8341 5.47098 13.8146C6.01467 13.7698 6.45431 13.4857 6.77389 12.9728L6.96829 12.6608H9.33587H11.7035L11.8979 12.9728C12.2175 13.4858 12.6572 13.7698 13.2008 13.8145C13.4362 13.8339 13.6656 13.8015 14.5643 13.6219C15.6734 13.4002 15.8616 13.3386 16.0556 13.1338C16.2911 12.8851 16.3375 12.7006 16.3385 12.011C16.339 11.665 16.3513 11.3702 16.3657 11.3557C16.3969 11.3245 16.8645 11.6843 16.9483 11.8039C16.9941 11.8694 17.0065 12.097 17.0065 12.8758C17.0065 13.7814 17.0003 13.8663 16.9335 13.8861C16.8934 13.8979 16.561 13.9658 16.1949 14.0368C12.948 14.6669 10.0719 14.7938 6.33434 14.4719C5.01128 14.3579 3.43923 14.1569 2.09258 13.9295L1.66528 13.8573V12.8652C1.66528 11.8953 1.66736 11.8708 1.75908 11.7681C1.89898 11.6115 2.26513 11.3315 2.30098 11.3537C2.3182 11.3643 2.3327 11.6581 2.3332 12.0065ZM4.294 12.2773C4.75578 12.4395 5.39019 12.5762 5.82366 12.607C6.04185 12.6226 6.16758 12.6491 6.16758 12.6796C6.16758 12.7474 5.92304 12.9717 5.75887 13.0545C5.48682 13.1917 5.28484 13.1808 4.24993 12.9733C3.71112 12.8653 3.23275 12.757 3.18689 12.7329C3.02672 12.6484 3.002 12.5685 3.00063 12.132L2.99929 11.7075L3.46828 11.9298C3.72625 12.052 4.09782 12.2084 4.294 12.2773ZM15.6278 12.6037C15.6015 12.653 15.5376 12.7125 15.486 12.7361C15.4343 12.7596 14.9533 12.867 14.4171 12.9745C13.3685 13.185 13.1859 13.1931 12.8926 13.0422C12.7209 12.9539 12.4744 12.7183 12.5131 12.6796C12.5262 12.6665 12.7424 12.6289 12.9935 12.596C13.8125 12.4888 14.5921 12.2456 15.3598 11.8581L15.6516 11.7107L15.6637 12.1125C15.671 12.3586 15.6572 12.5489 15.6278 12.6037ZM2.8117 14.7205C5.06327 15.0643 7.19719 15.2553 9.41925 15.3122C11.5928 15.3678 14.4412 15.1005 16.5614 14.6422L17.0126 14.5446L16.9991 15.6356L16.9856 16.7265L16.8525 17.0076C16.6802 17.3714 16.3797 17.6721 16.016 17.8444L15.735 17.9775L14.6285 17.9909L13.522 18.0043L12.9095 17.0852C12.3946 16.3123 12.2708 16.1525 12.1313 16.0814C11.9699 15.999 11.8958 15.9968 9.33587 15.9968C6.77598 15.9968 6.70182 15.999 6.5404 16.0814C6.40099 16.1525 6.27714 16.3123 5.76221 17.0852L5.14977 18.0043L4.04329 17.9909L2.93676 17.9775L2.65574 17.8444C2.29206 17.6721 1.99153 17.3714 1.81923 17.0076L1.68612 16.7265L1.67257 15.6266L1.65907 14.5267L1.75595 14.5504C1.80927 14.5635 2.28434 14.64 2.8117 14.7205ZM2.33229 16.0649C2.33229 16.5977 2.3859 16.7621 2.64353 17.0199C2.92676 17.3031 3.04282 17.3312 3.93169 17.3312H4.66681V16.9976V16.664H3.9354C3.21436 16.664 3.20248 16.6625 3.10164 16.5616C3.00726 16.4673 2.99929 16.4283 2.99929 16.0612V15.6632H2.66579H2.33229V16.0649ZM15.6725 16.0612C15.6725 16.4283 15.6645 16.4673 15.5701 16.5616C15.4693 16.6625 15.4574 16.664 14.7363 16.664H14.0049V16.9976V17.3312H14.7479C15.6491 17.3312 15.7937 17.2945 16.0601 16.9981C16.2866 16.7462 16.3395 16.5695 16.3395 16.0649V15.6632H16.006H15.6725V16.0612ZM12.0392 16.9872L12.2526 17.3103L10.7942 17.3213C9.99213 17.3273 8.67962 17.3273 7.87754 17.3213L6.41917 17.3103L6.63257 16.9872L6.84593 16.664H9.33587H11.8258L12.0392 16.9872ZM2.60713 18.5465C2.81324 18.6213 2.97403 18.639 3.59335 18.6554L4.33331 18.6749V18.9015C4.33331 19.0865 4.31451 19.1469 4.23097 19.2304C4.1295 19.332 4.1222 19.3328 3.3328 19.3328C2.54339 19.3328 2.5361 19.332 2.43463 19.2304C2.34292 19.1387 2.33229 19.0932 2.33229 18.7926C2.33229 18.6081 2.33875 18.4571 2.34658 18.4571C2.35446 18.4571 2.47173 18.4973 2.60713 18.5465ZM16.3395 18.7926C16.3395 19.0932 16.3288 19.1387 16.2371 19.2304C16.1356 19.332 16.1284 19.3328 15.3389 19.3328C14.5495 19.3328 14.5422 19.332 14.4408 19.2304C14.3572 19.1469 14.3384 19.0865 14.3384 18.9015V18.6749L15.0784 18.6552C15.6918 18.6389 15.8576 18.6208 16.0476 18.5494C16.1738 18.502 16.291 18.4618 16.3082 18.4601C16.3254 18.4585 16.3395 18.6081 16.3395 18.7926Z" fill="#FFC000"/>
</svg>
