<svg width="16" height="20" viewBox="0 0 16 20" fill="none" xmlns="http://www.w3.org/2000/svg">
<path fill-rule="evenodd" clip-rule="evenodd" d="M5.54735 0.0852568C5.22078 0.227269 4.99599 0.48912 4.92874 0.805824C4.86321 1.11446 4.63949 3.47187 4.6608 3.62923C4.70364 3.94548 4.89253 4.20799 5.22242 4.40974C5.31994 4.46935 5.4603 4.49226 5.82519 4.50815L6.30082 4.52883L6.31331 4.84516L6.32579 5.1615L5.27998 5.18077C4.47114 5.19571 4.17075 5.21639 3.95431 5.27215C3.19184 5.46852 2.62002 5.88293 2.32187 6.45528C2.0411 6.99421 2.00412 7.24295 2.04575 8.31219C2.08678 9.36667 2.05664 10.3026 1.9531 11.1889C1.87314 11.8733 1.64362 13.2333 1.49904 13.8792L1.40612 14.2944L1.1363 14.4288C0.818762 14.587 0.469928 14.9087 0.290818 15.2085C0.220509 15.3262 0.12217 15.5775 0.0722691 15.767C-0.106066 16.4442 0.0524638 17.4244 0.472598 18.2419C0.668973 18.624 0.745482 18.7238 1.10874 19.0713C1.44629 19.3942 1.58863 19.498 1.88826 19.6397C2.08988 19.7349 2.41926 19.855 2.6202 19.9064L2.98556 20H8.00151H13.0174L13.3834 19.9077C14.0134 19.7487 14.4208 19.523 14.8943 19.0707C15.2585 18.7228 15.3334 18.6251 15.5297 18.2419C15.8966 17.5259 16.067 16.6785 15.9758 16.024C15.8801 15.3364 15.4608 14.7295 14.8779 14.4349C14.7308 14.3606 14.6061 14.2967 14.6008 14.2931C14.5738 14.2747 14.2378 12.5613 14.1624 12.0576C13.9702 10.7729 13.9309 10.1177 13.9583 8.65984C13.9874 7.1085 13.9796 7.04612 13.6812 6.46058C13.3799 5.86932 12.864 5.48519 12.1047 5.28675C11.8186 5.212 11.6139 5.1962 10.723 5.18023L9.67722 5.1615L9.6897 4.84516L9.70219 4.52883L10.1017 4.5213C10.5831 4.51224 10.7577 4.46198 10.9811 4.26814C11.1842 4.09175 11.3101 3.86854 11.3413 3.62923C11.3767 3.3577 11.0843 0.74638 11.0013 0.592041C10.8792 0.365186 10.7011 0.196492 10.479 0.0970878L10.2619 0L8.00151 0.000496365C5.82015 0.000951399 5.73434 0.0039298 5.54735 0.0852568ZM10.2994 0.664267C10.362 0.711508 10.4309 0.782121 10.4526 0.82113C10.4744 0.860139 10.5545 1.49061 10.6308 2.22222C10.7819 3.67254 10.7793 3.72723 10.5516 3.87052C10.4512 3.93369 10.2155 3.94014 8.00151 3.94014C5.78756 3.94014 5.55179 3.93369 5.45138 3.87052C5.22375 3.72723 5.22112 3.67254 5.37225 2.22222C5.4485 1.49061 5.52863 0.860139 5.55037 0.82113C5.57207 0.782121 5.64104 0.711508 5.7036 0.664267C5.81533 0.579796 5.85533 0.578307 8.00151 0.578307C10.1477 0.578307 10.1877 0.579796 10.2994 0.664267ZM9.07789 4.85977V5.17002H8.00151H6.92512V4.85977V4.54952H8.00151H9.07789V4.85977ZM4.68625 10.4443V15.1394H4.371H4.05579L3.75785 14.9113C3.29909 14.5601 2.70196 14.2876 2.22133 14.2102C2.13251 14.1959 2.05987 14.1722 2.05987 14.1575C2.05987 14.1428 2.12687 13.804 2.20876 13.4044C2.56655 11.6591 2.68512 10.3749 2.64887 8.63804C2.61938 7.22677 2.63406 7.10507 2.88899 6.64553C3.05144 6.35269 3.38378 6.08112 3.73903 5.95094C3.93876 5.87772 4.44255 5.76607 4.63243 5.75287C4.67518 5.74994 4.68625 6.71378 4.68625 10.4443ZM10.7037 7.57963L10.6925 9.41011H8.00151H5.31055L5.29936 7.57963L5.28812 5.74915H8.00151H10.7149L10.7037 7.57963ZM11.7258 5.81042C12.3411 5.90146 12.8547 6.20692 13.0963 6.62551C13.3533 7.07053 13.3564 7.09787 13.3618 8.95508C13.3662 10.4226 13.3793 10.7463 13.4592 11.3578C13.5586 12.1184 13.7191 13.0682 13.8572 13.713C13.9703 14.2411 13.9718 14.2293 13.7911 14.2293C13.4369 14.2293 12.7688 14.5266 12.2465 14.9164L11.9479 15.1394H11.6323H11.3168V10.441V5.74257L11.4352 5.76375C11.5003 5.77542 11.6311 5.79639 11.7258 5.81042ZM10.7036 12.5436L10.7146 15.098H8.00185H5.28902V12.5609C5.28902 11.1654 5.30207 10.0112 5.31804 9.99582C5.33401 9.98047 6.54977 9.97274 8.01976 9.97857L10.6925 9.98924L10.7036 12.5436ZM2.33142 14.8288C2.7287 14.9282 3.36979 15.282 3.55605 15.5046C3.59738 15.554 3.60987 16.0192 3.60987 17.5113V19.4538L3.26878 19.4286C2.13935 19.3449 1.19532 18.6497 0.833487 17.6353C0.721758 17.322 0.595994 16.6675 0.595994 16.3994C0.595994 15.7546 0.921621 15.1751 1.42304 14.9275C1.76284 14.7597 1.96675 14.7376 2.33142 14.8288ZM14.5311 14.9115C14.9282 15.0827 15.2129 15.4336 15.3427 15.9121C15.4331 16.2456 15.4223 16.5728 15.3026 17.1371C15.0151 18.4912 14.0739 19.3287 12.7268 19.429L12.3931 19.4538V17.5115V15.5693L12.5331 15.4431C12.8569 15.151 13.3722 14.8862 13.7585 14.8134C14.0248 14.7633 14.2549 14.7925 14.5311 14.9115ZM11.7904 17.5697V19.4415H8.00151H4.21264V17.5697V15.6979H8.00151H11.7904V17.5697Z" fill="#FFC000"/>
</svg>
