<svg width="20" height="20" viewBox="0 0 20 20" fill="none" xmlns="http://www.w3.org/2000/svg">
<path fill-rule="evenodd" clip-rule="evenodd" d="M0.245708 0.0851115C0.167352 0.131819 0.0800457 0.235193 0.0516439 0.314855C0.0138356 0.420819 0 3.02271 0 10.0104C0 18.1636 0.00949778 19.5833 0.0648859 19.7129C0.199361 20.0276 -0.3042 20.0069 6.89256 19.994L13.3769 19.9824L13.499 19.863C13.6099 19.7546 13.6247 19.6991 13.6596 19.2622C13.6807 18.9974 13.72 18.6622 13.7468 18.5173C13.9629 17.3522 14.5993 16.2008 15.4698 15.4001C16.5121 14.4413 17.7396 13.9243 19.2237 13.819C19.4747 13.8012 19.7024 13.7606 19.7641 13.7226C20.0035 13.5751 20 13.633 20 9.76101C20 7.37069 19.984 6.12579 19.9522 6.04215C19.8983 5.9002 14.0641 0.163702 13.8721 0.063901C13.7666 0.00906613 12.7856 -0.000132532 7.06849 1.42902e-06C0.583242 0.00013539 0.383973 0.00263592 0.245708 0.0851115ZM16.2213 3.65014L18.9954 6.36272V9.60664C18.9954 13.1588 19.0154 12.9048 18.7363 12.9048C18.545 12.9048 17.7157 13.0821 17.3516 13.2009C15.681 13.7458 14.2049 14.9987 13.4129 16.5441C13.0594 17.2338 12.8087 18.0517 12.7181 18.8102L12.6875 19.067H6.84603H1.00457V10.0023V0.937552H7.22589H13.4472L16.2213 3.65014ZM2.68612 2.93411C2.61895 2.97488 2.54192 3.05566 2.51489 3.11367C2.48128 3.18583 2.46575 4.24158 2.46575 6.45886V9.69862L2.621 9.85045L2.77626 10.0023H9.72374C17.4272 10.0023 16.8787 10.0242 17.0127 9.7105C17.0933 9.52184 17.1077 7.18399 17.0295 6.97988C16.9748 6.83726 13.1029 3.01985 12.9132 2.92156C12.8084 2.86727 12.0415 2.85784 7.79909 2.85887C3.2311 2.85994 2.79785 2.86633 2.68612 2.93411ZM14.2578 5.57016L16.0731 7.34497V8.20473V9.06454H9.74886H3.42466V6.42997V3.79539H7.93356H12.4425L14.2578 5.57016ZM8.05173 4.83516C7.93173 4.90098 5.91196 7.36497 5.86863 7.49844C5.75073 7.8617 6.22548 8.22058 6.57909 8.03554C6.6684 7.98879 8.61676 5.63888 8.71493 5.45955C8.881 5.15604 8.66356 4.7763 8.32543 4.77934C8.22931 4.78023 8.10616 4.80533 8.05173 4.83516ZM10.0606 5.28942C9.95621 5.33385 9.70689 5.62285 9.16635 6.32619C8.75415 6.86257 8.39297 7.34515 8.3637 7.3986C8.33443 7.45205 8.3105 7.569 8.3105 7.65844C8.3105 7.9807 8.67909 8.18049 9.00539 8.03509C9.10068 7.99263 10.5566 6.14307 10.6795 5.90823C10.7963 5.68532 10.6778 5.38811 10.4322 5.28777C10.2458 5.21163 10.2435 5.21163 10.0606 5.28942ZM3.05936 11.5024C2.85297 11.5898 2.66247 11.7681 2.55288 11.9764C2.47776 12.1192 2.46575 12.2412 2.46575 12.8601C2.46575 13.6485 2.49973 13.7793 2.76977 14.0299C3.05361 14.2933 3.00283 14.289 5.82657 14.289C7.7416 14.289 8.46292 14.2747 8.60201 14.2341C8.84461 14.1632 9.14077 13.8736 9.21324 13.6364C9.2868 13.3957 9.2868 12.3245 9.21324 12.0839C9.14077 11.8466 8.84461 11.557 8.60201 11.4861C8.46256 11.4453 7.74406 11.4316 5.81662 11.4329C3.59909 11.4345 3.1958 11.4446 3.05936 11.5024ZM8.28767 12.8601V13.329L5.85616 13.3405L3.42466 13.3521V12.8601V12.3681L5.85616 12.3797L8.28767 12.3912V12.8601Z" fill="#FFC000"/>
</svg>
