<svg width="20" height="22" viewBox="0 0 20 22" fill="none" xmlns="http://www.w3.org/2000/svg">
<path fill-rule="evenodd" clip-rule="evenodd" d="M14.1717 0.0478887C13.1145 0.255313 12.1744 0.803139 11.4392 1.64013C11.0079 2.13108 10.7743 2.49065 10.5221 3.05183C10.1471 3.8862 9.97837 4.77094 10.0185 5.6932C10.0316 5.99595 10.0547 6.32107 10.0698 6.41566L10.0972 6.58767H7.8898C5.06327 6.58767 5.25186 6.53643 4.3063 7.56103L3.71654 8.20014L3.36961 9.22873L3.02272 10.2573H2.84426H2.66579V9.82004C2.66579 9.30244 2.61151 9.12878 2.39223 8.94456C2.23607 8.81338 2.22977 8.81227 1.56618 8.7976C0.73084 8.77916 0.595104 8.81512 0.308123 9.13093C0.0499911 9.41496 -0.0175434 9.64188 0.0036341 10.1542C0.0166408 10.4691 0.0343581 10.5394 0.138745 10.69C0.338556 10.9783 0.403047 10.9912 1.6431 10.9912C2.53376 10.9912 2.74917 11.003 2.74917 11.052C2.74917 11.0855 2.40962 11.4105 1.99457 11.7745C1.44996 12.252 1.20925 12.4935 1.12954 12.6425L1.01911 12.8489V15.647V18.4451L1.1155 18.7519C1.2125 19.0609 1.46618 19.538 1.59553 19.6548C1.6549 19.7084 1.66528 19.8169 1.66528 20.3834C1.66528 21.2055 1.70188 21.3553 1.97652 21.6575C2.26342 21.9732 2.36955 22 3.3328 22C4.29604 22 4.40218 21.9732 4.68908 21.6575C4.92536 21.3975 5.00032 21.1887 5.00032 20.7906V20.5322H5.14789C5.38806 20.5322 5.6043 20.3783 5.79243 20.0734L5.96227 19.7982H9.33587H12.7095L12.8793 20.0734C13.0675 20.3783 13.2837 20.5322 13.5239 20.5322H13.6714V20.7906C13.6714 21.1887 13.7464 21.3975 13.9827 21.6575C14.2696 21.9732 14.3757 22 15.3389 22C16.3022 22 16.4083 21.9732 16.6952 21.6575C16.969 21.3564 17.0065 21.2043 17.0065 20.3965V19.744L17.1536 19.5549C17.3577 19.2925 17.5314 18.8914 17.6101 18.5005C17.6676 18.2145 17.675 17.8108 17.6646 15.5094L17.6526 12.8489L17.5422 12.6425C17.4625 12.4935 17.2218 12.252 16.6772 11.7745C16.2621 11.4105 15.9226 11.0864 15.9226 11.054C15.9226 11.008 16.1746 10.9923 17.0869 10.9818C18.1875 10.969 18.2575 10.9631 18.3662 10.8737C18.5983 10.6829 18.6521 10.5536 18.6672 10.1507C18.6767 9.89802 18.6606 9.70995 18.618 9.57431L18.5547 9.37294L18.8049 9.04681C20.268 7.13958 20.4001 4.44595 19.1326 2.36377C18.8465 1.89356 18.0914 1.10359 17.6355 0.797359C17.1937 0.50058 16.554 0.210636 16.0893 0.0966027C15.6694 -0.00646728 14.5887 -0.0339434 14.1717 0.0478887ZM16.1102 0.871898C17.4111 1.24656 18.5342 2.34084 19.0254 3.71222C19.2627 4.37485 19.3117 4.67328 19.3129 5.46385C19.3139 6.11287 19.3015 6.24929 19.2053 6.64299C19.0044 7.46581 18.6622 8.14698 18.1529 8.73806C17.7837 9.16653 17.4739 9.42904 17.0319 9.68775C14.8788 10.948 12.2333 10.0196 11.139 7.61975C10.16 5.47285 10.7855 2.85229 12.5928 1.52912C13.4024 0.936391 14.1376 0.706445 15.1305 0.735435C15.5681 0.748186 15.7861 0.778552 16.1102 0.871898ZM14.6719 2.10213V2.38712L14.4725 2.17094C14.3628 2.05209 14.2542 1.9548 14.2312 1.9548C14.1776 1.9548 13.7965 2.3791 13.7965 2.43882C13.7965 2.46363 13.9935 2.69996 14.2342 2.96394L14.6719 3.44392L14.6716 3.94932L14.6713 4.45471L14.5092 4.5515L14.3471 4.64829L13.9509 4.39439L13.5547 4.14055L13.4004 3.49488C13.3155 3.1398 13.2384 2.83541 13.229 2.81853C13.2159 2.79477 12.6393 2.94504 12.5997 2.98252C12.5949 2.98706 12.6193 3.1104 12.654 3.25659C12.6887 3.40282 12.7114 3.54043 12.7044 3.56245C12.6975 3.58447 12.6008 3.54002 12.4895 3.46369C12.3783 3.38736 12.2825 3.33145 12.2768 3.33938C12.271 3.34732 12.1969 3.49195 12.112 3.6608L11.9578 3.96776L12.0746 4.04675C12.1389 4.09018 12.2376 4.1566 12.294 4.19431C12.3953 4.26215 12.3936 4.26376 12.1362 4.34132C11.9931 4.3844 11.8664 4.43017 11.8548 4.44297C11.8354 4.46425 11.9565 5.0729 11.9884 5.11506C11.996 5.12506 12.2793 5.0546 12.618 4.95855L13.2337 4.78383L13.6193 5.0258L14.0049 5.26776V5.48679V5.70582L13.6193 5.94778L13.2337 6.18975L12.618 6.01503C12.2793 5.91898 11.996 5.84852 11.9884 5.85852C11.9565 5.90067 11.8354 6.50932 11.8548 6.53061C11.8664 6.54341 11.9931 6.58918 12.1362 6.63226L12.3964 6.71065L12.2731 6.79427C12.2053 6.84028 12.1066 6.9067 12.0538 6.94188L11.9578 7.00582L12.112 7.31278C12.1969 7.48163 12.271 7.62626 12.2768 7.6342C12.2825 7.64213 12.3783 7.58622 12.4895 7.50989C12.6008 7.43356 12.6975 7.38911 12.7044 7.41113C12.7114 7.43315 12.6887 7.57076 12.654 7.71699C12.6193 7.86318 12.5949 7.98652 12.5997 7.99106C12.6393 8.02854 13.2159 8.17881 13.229 8.15505C13.2384 8.13817 13.3155 7.83378 13.4004 7.4787L13.5547 6.83303L13.9509 6.57918L14.3471 6.32529L14.5092 6.42208L14.6713 6.51887L14.6716 7.02426L14.6719 7.52966L14.2342 8.00964C13.9935 8.27362 13.7985 8.51063 13.801 8.53632C13.8035 8.56201 13.9073 8.6848 14.0316 8.8092L14.2577 9.03539L14.4648 8.81094L14.6719 8.58646V8.87145V9.15639H15.0054H15.3389V8.87145V8.58646L15.5461 8.81094L15.7532 9.03539L15.9793 8.8092C16.1036 8.6848 16.2074 8.56201 16.2099 8.53632C16.2124 8.51063 16.0174 8.27362 15.7767 8.00964L15.3389 7.52966L15.3393 7.02426L15.3396 6.51887L15.5017 6.42208L15.6638 6.32529L16.0599 6.57918L16.4561 6.83303L16.6105 7.4787C16.6954 7.83378 16.7726 8.1384 16.7821 8.1556C16.796 8.18069 17.3765 8.03056 17.4106 7.99308C17.4158 7.98744 17.3915 7.86318 17.3569 7.71699C17.3222 7.57076 17.2995 7.43315 17.3065 7.41113C17.3134 7.38911 17.4101 7.43356 17.5214 7.50989C17.6326 7.58622 17.7283 7.64213 17.7341 7.6342C17.7399 7.62626 17.8143 7.48108 17.8995 7.31164L18.0543 7.00348L17.8346 6.85473L17.6149 6.70592L17.8705 6.63533C18.0112 6.59652 18.1377 6.5518 18.1517 6.53602C18.1739 6.51116 18.059 5.90696 18.023 5.85916C18.0158 5.84953 17.7325 5.92012 17.3935 6.01608L16.7772 6.19053L16.3916 5.94815L16.006 5.70582V5.48679V5.26776L16.3916 5.02543L16.7772 4.78305L17.3935 4.9575C17.7325 5.05346 18.0158 5.12405 18.023 5.11442C18.059 5.06662 18.1739 4.46242 18.1517 4.43756C18.1377 4.42178 18.0112 4.37706 17.8705 4.33825L17.6149 4.26766L17.8346 4.11885L18.0543 3.9701L17.8995 3.66194C17.8143 3.4925 17.7399 3.34732 17.7341 3.33938C17.7283 3.33145 17.6326 3.38736 17.5214 3.46369C17.4101 3.54002 17.3134 3.58447 17.3065 3.56245C17.2995 3.54043 17.3222 3.40282 17.3569 3.25659C17.3915 3.1104 17.4158 2.98614 17.4106 2.9805C17.3765 2.94302 16.796 2.79289 16.7821 2.81798C16.7726 2.83518 16.6954 3.1398 16.6105 3.49488L16.4561 4.14055L16.0599 4.39439L15.6638 4.64829L15.5017 4.5515L15.3396 4.45471L15.3393 3.94932L15.3389 3.44392L15.7767 2.96394C16.0174 2.69996 16.2144 2.46217 16.2144 2.43552C16.2144 2.37621 15.8307 1.9548 15.7767 1.9548C15.7553 1.9548 15.6481 2.05209 15.5384 2.17094L15.3389 2.38712V2.10213V1.81719H15.0054H14.6719V2.10213ZM15.2366 5.23244C15.4434 5.45996 15.2969 5.85375 15.0054 5.85375C14.8341 5.85375 14.6719 5.67536 14.6719 5.48679C14.6719 5.29822 14.8341 5.11983 15.0054 5.11983C15.0867 5.11983 15.1721 5.16143 15.2366 5.23244ZM10.3217 7.40186C10.3351 7.44604 10.3991 7.61117 10.4641 7.76882L10.5821 8.05551H7.69887H4.81556L5.04342 7.798C5.16874 7.65635 5.36509 7.4914 5.47973 7.4315L5.68817 7.32251L7.99273 7.32205C10.1507 7.32164 10.2989 7.32668 10.3217 7.40186ZM11.221 9.06167C11.5729 9.5473 12.2172 10.0993 12.8168 10.4289C13.2626 10.674 13.9136 10.8814 14.4843 10.9602C14.5531 10.9697 12.1097 10.9806 9.05448 10.9843C5.99929 10.9881 3.49955 10.9774 3.49955 10.9606C3.49955 10.9438 3.66355 10.4484 3.86399 9.85972L4.22842 8.78943L7.62633 8.7898L11.0242 8.79017L11.221 9.06167ZM1.99878 9.89031V10.2573H1.33177H0.664764V10.0029C0.664764 9.79399 0.683066 9.72839 0.767109 9.63596C0.865659 9.52748 0.89013 9.52335 1.43412 9.52335H1.99878V9.89031ZM18.007 10.0738V10.2573H17.7502H17.4935L17.7398 10.0774C17.8753 9.97838 17.9908 9.89582 17.9966 9.89389C18.0023 9.89192 18.007 9.97288 18.007 10.0738ZM15.6917 11.8394C15.7595 11.9005 15.8064 11.9593 15.7959 11.9702C15.7201 12.0481 14.5361 12.6603 14.2336 12.7779C13.1841 13.186 12.9749 13.2023 9.04406 13.1814C5.35633 13.1619 5.51258 13.1742 4.56835 12.8281C4.25335 12.7126 2.95019 12.0533 2.87631 11.972C2.86552 11.9602 2.91221 11.9005 2.98008 11.8394L3.10351 11.7284H9.33587H15.5682L15.6917 11.8394ZM2.3332 13.2071C2.3342 13.9711 2.38031 14.1731 2.61614 14.4471C2.8089 14.6711 2.98946 14.736 4.10419 14.9823C5.00824 15.1821 5.23486 15.2175 5.47098 15.1961C6.01467 15.1467 6.45431 14.8343 6.77389 14.2701L6.96829 13.9269H9.33587H11.7035L11.8979 14.2701C12.2175 14.8344 12.6572 15.1468 13.2008 15.196C13.4362 15.2172 13.6656 15.1816 14.5643 14.9841C15.6734 14.7402 15.8616 14.6725 16.0556 14.4471C16.2911 14.1736 16.3375 13.9706 16.3385 13.2121C16.339 12.8315 16.3513 12.5072 16.3657 12.4913C16.3969 12.457 16.8645 12.8527 16.9483 12.9843C16.9941 13.0564 17.0065 13.3067 17.0065 14.1633C17.0065 15.1595 17.0003 15.2529 16.9335 15.2747C16.8934 15.2877 16.561 15.3623 16.1949 15.4405C12.948 16.1336 10.0719 16.2732 6.33434 15.9191C5.01128 15.7937 3.43923 15.5726 2.09258 15.3224L1.66528 15.243V14.1517C1.66528 13.0848 1.66736 13.0579 1.75908 12.9449C1.89898 12.7727 2.26513 12.4646 2.30098 12.489C2.3182 12.5007 2.3327 12.8239 2.3332 13.2071ZM4.294 13.505C4.75578 13.6834 5.39019 13.8338 5.82366 13.8677C6.04185 13.8848 6.16758 13.914 6.16758 13.9476C6.16758 14.0222 5.92304 14.2689 5.75887 14.36C5.48682 14.5108 5.28484 14.4989 4.24993 14.2706C3.71112 14.1518 3.23275 14.0327 3.18689 14.0061C3.02672 13.9132 3.002 13.8254 3.00063 13.3452L2.99929 12.8782L3.46828 13.1227C3.72625 13.2572 4.09782 13.4292 4.294 13.505ZM15.6278 13.8641C15.6015 13.9183 15.5376 13.9838 15.486 14.0097C15.4343 14.0356 14.9533 14.1537 14.4171 14.272C13.3685 14.5035 13.1859 14.5124 12.8926 14.3464C12.7209 14.2492 12.4744 13.9902 12.5131 13.9476C12.5262 13.9332 12.7424 13.8918 12.9935 13.8556C13.8125 13.7377 14.5921 13.4702 15.3598 13.0439L15.6516 12.8818L15.6637 13.3237C15.671 13.5944 15.6572 13.8038 15.6278 13.8641ZM2.8117 16.1926C5.06327 16.5707 7.19719 16.7809 9.41925 16.8434C11.5928 16.9045 14.4412 16.6106 16.5614 16.1064L17.0126 15.9991L16.9991 17.1992L16.9856 18.3992L16.8525 18.7084C16.6802 19.1086 16.3797 19.4393 16.016 19.6288L15.735 19.7753L14.6285 19.79L13.522 19.8048L12.9095 18.7937C12.3946 17.9435 12.2708 17.7678 12.1313 17.6895C11.9699 17.599 11.8958 17.5965 9.33587 17.5965C6.77598 17.5965 6.70182 17.599 6.5404 17.6895C6.40099 17.7678 6.27714 17.9435 5.76221 18.7937L5.14977 19.8048L4.04329 19.79L2.93676 19.7753L2.65574 19.6288C2.29206 19.4393 1.99153 19.1086 1.81923 18.7084L1.68612 18.3992L1.67257 17.1893L1.65907 15.9794L1.75595 16.0055C1.80927 16.0198 2.28434 16.104 2.8117 16.1926ZM2.33229 17.6714C2.33229 18.2575 2.3859 18.4383 2.64353 18.7219C2.92676 19.0334 3.04282 19.0643 3.93169 19.0643H4.66681V18.6974V18.3304H3.9354C3.21436 18.3304 3.20248 18.3288 3.10164 18.2178C3.00726 18.114 2.99929 18.0711 2.99929 17.6673V17.2295H2.66579H2.33229V17.6714ZM15.6725 17.6673C15.6725 18.0711 15.6645 18.114 15.5701 18.2178C15.4693 18.3288 15.4574 18.3304 14.7363 18.3304H14.0049V18.6974V19.0643H14.7479C15.6491 19.0643 15.7937 19.024 16.0601 18.6979C16.2866 18.4208 16.3395 18.2264 16.3395 17.6714V17.2295H16.006H15.6725V17.6673ZM12.0392 18.6859L12.2526 19.0414L10.7942 19.0534C9.99213 19.0601 8.67962 19.0601 7.87754 19.0534L6.41917 19.0414L6.63257 18.6859L6.84593 18.3304H9.33587H11.8258L12.0392 18.6859ZM2.60713 20.4011C2.81324 20.4834 2.97403 20.5029 3.59335 20.5209L4.33331 20.5424V20.7916C4.33331 20.9951 4.31451 21.0616 4.23097 21.1535C4.1295 21.2652 4.1222 21.2661 3.3328 21.2661C2.54339 21.2661 2.5361 21.2652 2.43463 21.1535C2.34292 21.0526 2.33229 21.0025 2.33229 20.6718C2.33229 20.4689 2.33875 20.3028 2.34658 20.3028C2.35446 20.3028 2.47173 20.3471 2.60713 20.4011ZM16.3395 20.6718C16.3395 21.0025 16.3288 21.0526 16.2371 21.1535C16.1356 21.2652 16.1284 21.2661 15.3389 21.2661C14.5495 21.2661 14.5422 21.2652 14.4408 21.1535C14.3572 21.0616 14.3384 20.9951 14.3384 20.7916V20.5424L15.0784 20.5207C15.6918 20.5028 15.8576 20.4828 16.0476 20.4043C16.1738 20.3522 16.291 20.308 16.3082 20.3062C16.3254 20.3043 16.3395 20.4689 16.3395 20.6718Z" fill="#FFC000"/>
</svg>
