<svg width="20" height="22" viewBox="0 0 20 22" fill="none" xmlns="http://www.w3.org/2000/svg">
<path fill-rule="evenodd" clip-rule="evenodd" d="M17.5405 0.0592808C17.1705 0.147096 16.8795 0.307596 16.6082 0.573363C16.3389 0.837153 16.2196 1.03857 16.0806 1.46432L15.986 1.7542L15.8864 1.53856C15.5909 0.898017 14.9783 0.392918 14.2461 0.186039C13.9474 0.10162 13.3266 0.0896271 13.0083 0.16214C12.3067 0.321996 11.6446 0.847769 11.3276 1.49686C11.2295 1.69781 11.1281 1.97699 11.1022 2.11729C11.037 2.47181 11.045 3.13973 11.1184 3.47905C11.195 3.83314 11.4284 4.29259 11.6651 4.55527C11.7642 4.6653 11.8453 4.76477 11.8453 4.77629C11.8453 4.78785 11.7999 4.80839 11.7446 4.82202C11.588 4.86049 11.1431 5.15776 10.913 5.37767C10.6581 5.62121 10.3864 6.02564 10.266 6.34071C10.2165 6.47035 10.0857 7.01478 9.97539 7.55053L9.77479 8.52466L9.37613 8.91981L8.97751 9.31491L7.08704 9.32815L5.19656 9.34134L4.95519 9.45284C4.66344 9.58764 4.39968 9.83828 4.25244 10.1207C4.16151 10.2951 4.1433 10.3909 4.1433 10.6953C4.1433 10.8963 4.15945 11.1042 4.17915 11.1574C4.21418 11.2518 4.20772 11.2541 3.90952 11.2541C3.13287 11.2541 2.43956 11.7087 2.17216 12.3932C2.0757 12.64 1.57597 14.5395 1.57597 14.6591C1.57597 14.8022 1.69499 14.9499 1.86698 15.0203C1.99447 15.0725 2.03559 15.0723 2.16554 15.0191C2.24839 14.9852 2.34503 14.9028 2.38027 14.8359C2.41555 14.769 2.55573 14.2887 2.69186 13.7686C2.97295 12.6945 3.02381 12.5594 3.21568 12.3776C3.50551 12.1029 3.3491 12.1138 6.99589 12.1138C9.72555 12.1138 10.3371 12.1032 10.4533 12.0542C10.6515 11.9706 12.8831 9.76082 12.9217 9.60999C12.9948 9.32432 12.7872 9.0626 12.4862 9.06096C12.3083 9.05998 12.2927 9.07343 11.2089 10.1573L10.1118 11.2547L7.77267 11.2544C5.23049 11.2541 5.28877 11.2593 5.09071 11.0128C4.96748 10.8593 4.96748 10.5743 5.09071 10.4209C5.28622 10.1775 5.26669 10.1795 7.37625 10.1795H9.3189L10.6918 8.83487L12.0647 7.49018V7.30565C12.0647 6.97334 11.7338 6.76904 11.4364 6.91777C11.3837 6.94411 11.2468 7.05463 11.1321 7.16329C10.9017 7.38169 10.8919 7.36711 10.9945 6.95851C11.3036 5.72704 12.6064 5.10717 13.7307 5.65659C14.3891 5.97832 14.8542 6.80266 14.7669 7.49288C14.6991 8.0276 13.6289 12.9688 13.538 13.1669C13.4027 13.4612 13.2548 13.621 12.979 13.7706L12.7449 13.8976L9.25601 13.9221C5.50556 13.9483 5.64999 13.9395 5.18621 14.1712C4.9311 14.2987 4.55956 14.6487 4.39788 14.9139C4.31419 15.0512 4.20478 15.3436 4.12689 15.6384C3.08407 19.5842 2.79131 20.675 2.73364 20.8296C2.63099 21.1048 2.52628 21.1403 1.81734 21.1403C1.05456 21.1403 0.873797 21.0615 0.873797 20.7288C0.873797 20.6649 1.04337 19.9743 1.2506 19.1943C1.66835 17.6219 1.67608 17.5453 1.43097 17.3989C1.35382 17.3528 1.24437 17.315 1.18776 17.3149C1.04008 17.3147 0.841058 17.4419 0.788614 17.5701C0.662135 17.8792 0.0283345 20.3818 0.00814699 20.652C-0.0116456 20.9164 0.000159732 20.9909 0.0938123 21.1912C0.243858 21.5122 0.440731 21.7174 0.734152 21.8586C0.980484 21.977 0.99365 21.9785 1.81734 21.9785C2.64104 21.9785 2.65421 21.977 2.90054 21.8586C3.17864 21.7248 3.39246 21.5114 3.51038 21.25C3.5536 21.1542 3.81736 20.2167 4.0966 19.1666C4.37581 18.1165 4.61068 17.251 4.61854 17.2433C4.6264 17.2356 4.71031 17.2931 4.80497 17.371C4.89967 17.4489 5.05613 17.5575 5.15268 17.6123C5.52856 17.8255 5.64951 17.8424 6.99856 17.8694L8.27389 17.8951L7.51492 19.6789C7.09748 20.66 6.75605 21.5207 6.75618 21.5916C6.75649 21.7334 6.85567 21.8777 7.00396 21.952C7.0722 21.9861 8.10111 22 10.5719 22C14.3416 22 14.2254 22.0072 14.3382 21.7648C14.3671 21.7028 14.3901 21.6095 14.3893 21.5574C14.3886 21.5053 14.0459 20.66 13.6279 19.6789L12.8678 17.8951L14.1668 17.8703C15.4897 17.845 15.6295 17.8284 15.9775 17.6549C16.3925 17.4482 16.832 16.9427 16.9584 16.527C16.9956 16.4047 17.2446 15.2731 17.5119 14.0123C17.8617 12.3616 17.9898 11.6783 17.9692 11.571C17.9491 11.4661 17.8992 11.3972 17.8004 11.3382C17.6108 11.2249 17.4516 11.2326 17.2938 11.3627C17.1391 11.4902 17.1921 11.2814 16.5853 14.1516C16.3408 15.3078 16.1042 16.3233 16.0595 16.4082C15.9624 16.5927 15.7429 16.8023 15.5317 16.9124C15.3851 16.9888 15.1651 16.9929 10.675 17.0039C6.00933 17.0153 5.97005 17.0147 5.72877 16.9263C5.44294 16.8215 5.1148 16.4961 5.04428 16.2475C4.8945 15.7193 5.1166 15.187 5.59154 14.936C5.76594 14.8438 5.78929 14.8431 9.23407 14.8186C13.0178 14.7918 12.889 14.8006 13.3843 14.5366C13.8514 14.2877 14.2108 13.8858 14.3932 13.4084C14.4437 13.2762 15.0269 10.6048 15.6892 7.47212C16.3515 4.3394 16.9236 1.68646 16.9606 1.57668C17.1267 1.0831 17.7593 0.753077 18.2772 0.889893C18.5418 0.959827 18.8289 1.16636 18.971 1.38915C19.2118 1.76654 19.2121 1.76413 18.4751 5.23363C18.1114 6.94605 17.8138 8.40306 17.8138 8.47145C17.8138 8.55152 17.8594 8.64046 17.942 8.72139C18.1803 8.95479 18.5924 8.85138 18.6685 8.5391C18.8842 7.65364 19.977 2.32782 19.9949 2.0749C20.0351 1.50524 19.8365 0.986133 19.4243 0.583894C19.1356 0.30218 18.8253 0.135533 18.4405 0.0556702C18.0778 -0.0195509 17.8691 -0.0187342 17.5405 0.0592808ZM14.1845 1.06939C14.5989 1.22091 14.9783 1.59401 15.1388 2.00755C15.3171 2.46704 15.2908 3.2092 15.0803 3.65945C14.7903 4.27991 14.0211 4.67012 13.33 4.54736C12.8386 4.4601 12.466 4.22167 12.2111 3.83134C11.9957 3.50153 11.9184 3.15688 11.9422 2.63253C11.959 2.26132 11.9815 2.15778 12.0978 1.9144C12.4714 1.13249 13.3663 0.770098 14.1845 1.06939ZM15.2615 5.25194C15.2097 5.50503 15.1555 5.70662 15.1409 5.69992C15.1264 5.69321 15.0112 5.57991 14.885 5.44803L14.6556 5.20836L14.8413 5.10747C14.9435 5.05203 15.095 4.95248 15.1782 4.88628C15.2613 4.82013 15.3353 4.77177 15.3425 4.77887C15.3497 4.78596 15.3133 4.99885 15.2615 5.25194ZM17.6272 9.68624C17.3373 9.97019 17.5251 10.403 17.9381 10.403C18.1494 10.403 18.3404 10.2032 18.3404 9.9821C18.3404 9.6326 17.8778 9.44072 17.6272 9.68624ZM1.46134 15.7226C1.32973 15.776 1.181 15.9754 1.181 16.0984C1.181 16.3211 1.37976 16.5385 1.58488 16.5401C2.00303 16.5435 2.20846 16.0372 1.88282 15.8059C1.74353 15.707 1.57966 15.6746 1.46134 15.7226ZM12.5993 19.4966L13.2875 21.1188L10.5845 21.1299C9.09793 21.136 7.87562 21.1351 7.86834 21.128C7.86101 21.1208 8.16514 20.3856 8.54414 19.4943L9.23319 17.8736L10.5722 17.874L11.9111 17.8745L12.5993 19.4966Z" fill="#FFC000"/>
</svg>
