<svg width="20" height="22" viewBox="0 0 20 22" fill="none" xmlns="http://www.w3.org/2000/svg">
<path fill-rule="evenodd" clip-rule="evenodd" d="M6.93419 0.0937825C6.52597 0.249996 6.24498 0.538033 6.16092 0.886407C6.07901 1.22591 5.79936 3.81906 5.826 3.99215C5.87955 4.34003 6.11566 4.62879 6.52802 4.85071C6.64992 4.91628 6.82537 4.94149 7.28149 4.95896L7.87603 4.98172L7.89163 5.32968L7.90724 5.67765L6.59998 5.69885C5.58893 5.71528 5.21343 5.73803 4.94288 5.79937C3.9898 6.01537 3.27503 6.47123 2.90233 7.10081C2.55138 7.69363 2.50515 7.96724 2.55719 9.14341C2.60848 10.3033 2.57081 11.3328 2.44137 12.3078C2.34143 13.0606 2.05452 14.5566 1.87379 15.2672L1.75765 15.7239L1.42037 15.8717C1.02345 16.0457 0.58741 16.3996 0.363522 16.7294C0.275636 16.8588 0.152713 17.1352 0.0903364 17.3437C-0.132582 18.0887 0.0655798 19.1669 0.590747 20.0661C0.836216 20.4864 0.931852 20.5961 1.38592 20.9784C1.80787 21.3336 1.98579 21.4478 2.36032 21.6036C2.61235 21.7084 3.02407 21.8405 3.27525 21.8971L3.73195 22H10.0019H16.2718L16.7293 21.8984C17.5167 21.7236 18.026 21.4753 18.6178 20.9778C19.0732 20.595 19.1667 20.4876 19.4121 20.0661C19.8707 19.2784 20.0837 18.3464 19.9698 17.6264C19.8501 16.87 19.326 16.2025 18.5974 15.8784C18.4135 15.7966 18.2576 15.7264 18.251 15.7224C18.2172 15.7022 17.7973 13.8174 17.703 13.2633C17.4628 11.8502 17.4136 11.1295 17.4478 9.52583C17.4842 7.81936 17.4745 7.75074 17.1015 7.10664C16.7249 6.45625 16.0801 6.03371 15.1308 5.81543C14.7733 5.73321 14.5174 5.71582 13.4038 5.69826L12.0965 5.67765L12.1121 5.32968L12.1277 4.98172L12.6271 4.97343C13.2289 4.96347 13.4472 4.90818 13.7263 4.69495C13.9803 4.50093 14.1377 4.25539 14.1766 3.99215C14.2209 3.69347 13.8554 0.821018 13.7516 0.651245C13.5989 0.401704 13.3764 0.216141 13.0987 0.106797L12.8274 0L10.0019 0.000546002C7.27519 0.00104654 7.16793 0.00432278 6.93419 0.0937825ZM12.8743 0.730694C12.9525 0.782659 13.0387 0.860333 13.0658 0.903243C13.093 0.946153 13.1931 1.63967 13.2885 2.44444C13.4774 4.03979 13.4741 4.09995 13.1895 4.25757C13.064 4.32706 12.7693 4.33416 10.0019 4.33416C7.23445 4.33416 6.93974 4.32706 6.81423 4.25757C6.52969 4.09995 6.5264 4.03979 6.71531 2.44444C6.81062 1.63967 6.91078 0.946153 6.93796 0.903243C6.96508 0.860333 7.0513 0.782659 7.1295 0.730694C7.26916 0.637776 7.31916 0.636138 10.0019 0.636138C12.6846 0.636138 12.7346 0.637776 12.8743 0.730694ZM11.3474 5.34574V5.68702H10.0019H8.6564V5.34574V5.00447H10.0019H11.3474V5.34574ZM5.85781 11.4887V16.6533H5.46375H5.06974L4.69731 16.4024C4.12386 16.0161 3.37745 15.7164 2.77666 15.6312C2.66564 15.6155 2.57484 15.5894 2.57484 15.5733C2.57484 15.5571 2.65859 15.1844 2.76095 14.7449C3.20819 12.8251 3.3564 11.4124 3.31109 9.50184C3.27422 7.94945 3.29257 7.81558 3.61124 7.31008C3.8143 6.98796 4.22973 6.68923 4.67379 6.54603C4.92346 6.46549 5.55319 6.34268 5.79054 6.32816C5.84398 6.32493 5.85781 7.38516 5.85781 11.4887ZM13.3796 8.33759L13.3656 10.3511H10.0019H6.63819L6.62419 8.33759L6.61015 6.32407H10.0019H13.3936L13.3796 8.33759ZM14.6572 6.39146C15.4263 6.49161 16.0683 6.82761 16.3704 7.28806C16.6916 7.77758 16.6955 7.80766 16.7023 9.85058C16.7077 11.4649 16.7241 11.8209 16.824 12.4936C16.9482 13.3302 17.1488 14.375 17.3215 15.0843C17.4629 15.6652 17.4648 15.6523 17.2388 15.6523C16.7962 15.6523 15.961 15.9792 15.3082 16.408L14.9348 16.6533H14.5404H14.146V11.4851V6.31683L14.294 6.34013C14.3753 6.35296 14.5388 6.37603 14.6572 6.39146ZM13.3795 13.798L13.3933 16.6078H10.0023H6.61128V13.817C6.61128 12.282 6.62758 11.0123 6.64755 10.9954C6.66752 10.9785 8.18721 10.97 10.0247 10.9764L13.3656 10.9882L13.3795 13.798ZM2.91428 16.3117C3.41087 16.4211 4.21224 16.8102 4.44506 17.0551C4.49672 17.1094 4.51233 17.6212 4.51233 19.2625V21.3992L4.08598 21.3714C2.67419 21.2794 1.49415 20.5147 1.04186 19.3988C0.902198 19.0542 0.744992 18.3343 0.744992 18.0394C0.744992 17.3301 1.15203 16.6926 1.7788 16.4202C2.20354 16.2357 2.45843 16.2113 2.91428 16.3117ZM18.1638 16.4027C18.6603 16.5909 19.0162 16.977 19.1783 17.5034C19.2913 17.8702 19.2779 18.2301 19.1282 18.8508C18.7689 20.3403 17.5923 21.2616 15.9085 21.3719L15.4914 21.3992V19.2627V17.1262L15.6663 16.9874C16.0711 16.6661 16.7152 16.3749 17.1981 16.2948C17.531 16.2396 17.8186 16.2717 18.1638 16.4027ZM14.738 19.3267V21.3857H10.0019H5.2658V19.3267V17.2676H10.0019H14.738V19.3267Z" fill="#FFC000"/>
</svg>
