<svg width="20" height="17" viewBox="0 0 20 17" fill="none" xmlns="http://www.w3.org/2000/svg">
<path fill-rule="evenodd" clip-rule="evenodd" d="M8.90269 0.0140974C8.82746 0.0229369 8.59883 0.0497393 8.39464 0.0736628C5.92569 0.363016 3.51419 1.4281 1.54978 3.09679C0.985406 3.57615 0.155363 4.43594 0.066844 4.63276C-0.143764 5.10117 0.168338 5.69001 0.652826 5.73831C1.03406 5.7763 1.08194 5.74913 1.6839 5.15275C2.73311 4.11321 3.58438 3.47806 4.72101 2.88662C5.84291 2.30285 7.00452 1.92559 8.35555 1.70614C8.7158 1.64763 9.04158 1.63315 9.99696 1.63315C10.9523 1.63315 11.2781 1.64763 11.6384 1.70614C12.9894 1.92559 14.151 2.30285 15.2729 2.88662C16.4048 3.47559 17.2715 4.12128 18.292 5.13588C18.5864 5.42848 18.8727 5.68588 18.9285 5.70786C19.0621 5.76057 19.3823 5.75887 19.5204 5.70469C19.7792 5.60328 20 5.25903 20 4.95714C20 4.68263 19.8796 4.49664 19.3515 3.95556C17.2582 1.81075 14.7806 0.54897 11.7556 0.087206C11.3658 0.0277215 9.24883 -0.026532 8.90269 0.0140974ZM9.09809 4.71868C7.5508 4.9108 6.14563 5.41185 4.94792 6.19853C4.10861 6.74983 3.05604 7.68268 2.91828 7.99734C2.78321 8.30583 2.85876 8.68054 3.10399 8.91815C3.25055 9.06023 3.39288 9.11335 3.62674 9.11335C3.90523 9.11335 3.99434 9.06408 4.3862 8.69355C5.5609 7.58277 6.6916 6.92552 8.05569 6.56063C9.29542 6.22894 10.6985 6.22894 11.9382 6.56063C13.3062 6.92658 14.4327 7.58236 15.6162 8.70166C15.907 8.97662 16.0178 9.05528 16.1731 9.09709C16.7993 9.26561 17.3427 8.60386 17.0755 7.99827C16.9498 7.71325 16.04 6.88108 15.2924 6.36737C14.1283 5.56732 12.9221 5.06711 11.5407 4.81145C11.1681 4.74248 10.8828 4.72229 10.1533 4.71316C9.64816 4.70684 9.17333 4.70931 9.09809 4.71868ZM9.08629 9.50387C8.10973 9.68743 6.97552 10.2856 6.27249 10.9879C5.9088 11.3513 5.8358 11.5523 5.93425 11.9201C6.02159 12.2463 6.32975 12.4789 6.67475 12.4789C6.94101 12.4789 7.07233 12.4119 7.4121 12.1026C7.88631 11.6711 8.41511 11.3722 9.05901 11.1719C9.42962 11.0567 10.1998 11.0292 10.6149 11.1165C11.2617 11.2525 11.914 11.5859 12.4635 12.0613C12.8638 12.4077 12.9917 12.4774 13.2284 12.4782C13.3398 12.4786 13.4805 12.4594 13.541 12.4357C13.796 12.3358 14.0198 11.9916 14.0215 11.697C14.0233 11.3649 13.8533 11.1248 13.2993 10.6774C12.5586 10.0792 11.6627 9.65872 10.7922 9.50075C10.3653 9.42326 9.50677 9.42484 9.08629 9.50387ZM9.54753 14.4328C9.37127 14.5015 9.1387 14.6622 9.0093 14.8049C8.67872 15.1693 8.58316 15.7966 8.78916 16.2499C8.91168 16.5194 9.13956 16.7631 9.39632 16.8992C9.55952 16.9856 9.63945 17 9.95788 17C10.2763 17 10.3562 16.9856 10.5194 16.8992C10.7762 16.7631 11.0041 16.5194 11.1266 16.2499C11.271 15.932 11.271 15.4729 11.1266 15.1551C11.0039 14.8852 10.7759 14.6415 10.5194 14.5062C10.3681 14.4264 10.2611 14.4039 9.99696 14.3965C9.81426 14.3914 9.61201 14.4077 9.54753 14.4328Z" fill="#FFC000"/>
</svg>
