<svg width="588" height="378" viewBox="0 0 588 378" fill="none" xmlns="http://www.w3.org/2000/svg">
<path d="M296.7 53.9107C299.215 43.2163 292.576 32.5102 281.873 29.9978C271.169 27.4854 260.454 34.1182 257.94 44.8125C255.425 55.5069 262.064 66.2131 272.767 68.7255C283.47 71.2378 294.186 64.605 296.7 53.9107Z" fill="#1B1B1B"/>
<path d="M404.704 216.055C399.43 188.883 387.232 157.762 367.708 136.99C347.704 115.7 317.746 114.225 290.397 115.547C282.879 115.911 269.684 118.421 264.16 120.472C222.311 135.955 200.39 158.855 187.578 198.023C172.753 243.305 184.701 311.965 218.322 346.631C248.222 377.464 320.642 387.754 361.743 364.011C383.569 351.402 394.692 325.207 402.671 303.342C412.51 276.38 410.055 243.65 404.704 216.055ZM352.537 314.207C347.781 321.508 319.587 345.596 295.383 339.885C273.596 334.75 251.003 326.605 238.556 307.289C227.03 289.391 221.046 265.189 219.722 244.186C216.845 198.79 247.052 160.215 294.386 161.097C301.943 161.231 307.14 157.667 309.96 152.684C325.111 153.336 338.671 157.36 347.224 172.978C357.907 192.524 363.795 216.515 366.902 238.418C370.872 266.607 368.264 290.1 352.537 314.207Z" fill="#E7E7E7"/>
<path d="M184.295 377.636H149.466C148.372 377.636 147.49 376.754 147.49 375.662C147.49 374.57 148.372 373.688 149.466 373.688H184.295C185.1 373.688 204.068 373.478 204.068 358.876C204.068 357.649 203.896 354.794 203.666 350.731C201.019 305.91 199.964 253.442 215.326 245.585C216.305 245.087 217.494 245.47 217.992 246.448C218.491 247.425 218.107 248.613 217.129 249.111C207.156 254.208 203.953 288.337 207.616 350.501C207.866 354.679 208.038 357.63 208.038 358.876C208.019 373.708 192.503 377.636 184.295 377.636Z" fill="#1B1B1B"/>
<path d="M504.735 378C501.763 378 498.943 377.904 497.255 377.617C494.57 377.157 491.003 375.988 487.225 374.742C482.449 373.171 477.041 371.408 473.876 371.312C468.487 371.121 466.416 372.155 463.711 373.42C462.273 374.091 460.643 374.857 458.456 375.47C453.048 376.984 450.19 377.655 447.543 377.655H411.468C411.18 377.655 403.144 377.885 398.445 373.113C396.105 370.737 395.031 367.633 395.204 363.839L395.281 362.478C398.829 295.217 393.344 250.855 380.628 243.803C379.669 243.267 379.324 242.059 379.861 241.101C380.398 240.143 381.606 239.798 382.565 240.335C402.128 251.181 401.418 321.642 399.251 362.689L399.174 364.03C399.04 366.694 399.73 368.744 401.265 370.316C404.736 373.861 411.314 373.688 411.41 373.688H447.543C449.73 373.688 452.357 373.056 457.401 371.657C459.281 371.14 460.7 370.469 462.043 369.837C464.977 368.457 467.72 367.173 474.01 367.345C477.75 367.46 483.197 369.243 488.491 370.967C492.135 372.155 495.568 373.286 497.965 373.708C501.647 374.34 512.733 373.899 516.684 373.688C517.93 373.669 518.717 374.474 518.774 375.547C518.832 376.639 518.007 377.578 516.914 377.636C516.492 377.655 510.336 378 504.735 378Z" fill="#1B1B1B"/>
<path d="M157.119 96.8439C155.431 72.8904 117.879 72.7179 119.567 96.8439C123.997 159.928 127.238 207.777 129.923 270.995C128.351 270.612 126.663 270.401 124.822 270.42C97.1655 270.842 69.5861 270.075 42.045 268.217C57.9252 217.493 95.2668 189.438 105.106 136.243C109.478 112.634 73.2876 102.516 68.8956 126.278C57.7143 186.813 11.2627 219.351 0.407396 280.155C-1.87491 292.917 5.60491 302.71 18.5124 303.898C53.8977 307.136 89.3021 308.478 124.822 307.941C127.161 307.903 129.252 307.519 131.132 306.849C131.573 324.478 131.86 342.108 131.726 359.757C131.553 383.902 169.106 383.921 169.279 359.757C169.95 266.875 163.602 189.419 157.119 96.8439Z" fill="#E7E7E7"/>
<path d="M573.269 98.9135C571.581 74.96 534.029 74.7875 535.717 98.9135C540.147 161.997 545.939 207.547 548.624 270.765C547.051 270.382 545.364 270.171 543.522 270.19C515.866 270.612 486.772 272.547 459.211 270.689C478.486 225.119 503.362 190.032 521.236 138.331C529.081 115.643 493.868 105.87 485.026 128.367C461.896 187.273 436.408 225.139 417.574 282.646C413.546 294.968 422.771 305.201 435.679 306.389C471.064 309.627 507.984 308.267 543.503 307.73C545.843 307.692 547.934 307.309 549.813 306.638C550.254 324.268 550.542 341.897 550.408 359.546C550.235 383.691 587.788 383.711 587.96 359.546C588.67 266.645 579.771 191.508 573.269 98.9135Z" fill="#E7E7E7"/>
<path d="M314.945 239.396H277.47C270.335 239.396 266.058 234.509 265.233 226.25C265.233 226.25 265.214 202.527 264.524 195.053C263.143 180.164 257.466 163.741 257.466 163.741C256.507 154.026 260.899 147.817 269.299 147.817L320.335 147.529C323.48 147.529 326.376 148.737 328.697 150.73C332.571 154.083 335.927 158.74 334.124 166.865C334.124 166.865 328.658 187.216 327.891 195.034C327.162 202.488 326.721 226.231 326.721 226.231C325.897 234.509 322.08 239.396 314.945 239.396Z" fill="#FFC000"/>
<path d="M311.071 159.506C311.128 166.079 315.252 171.349 320.066 171.636C328.504 172.077 336.54 173.591 343.061 176.695C346.283 178.305 349.045 180.298 351.346 182.674C353.629 185.069 355.259 188.02 356.64 191.221C357.791 194.44 358.769 198.387 359.287 202.354C359.843 206.321 359.996 210.441 359.939 214.695C359.862 223.222 358.845 232.286 358.692 242.059C358.558 247.751 362.183 253.155 368.723 252.426C369.356 252.369 369.969 252.273 370.545 252.158C376.126 250.817 382.397 246.524 382.474 242.385C382.57 234.203 383.586 225.043 383.721 214.944C383.778 209.904 383.606 204.615 382.858 199.231C382.129 193.827 380.959 188.557 378.811 182.616C376.452 176.868 373.211 171.195 368.703 166.424C364.216 161.71 358.922 158.011 353.475 155.329C342.524 150.116 331.381 148.162 321.274 147.568C315.367 147.242 311.032 152.972 311.071 159.506Z" fill="#FFC000"/>
<path d="M382.74 235.582C382.74 235.582 383.469 242.117 382.529 246.678C381.8 250.261 377.216 252.139 374.857 251.334C374.857 251.334 373.63 252.81 370.964 253.5C367.608 254.362 366.438 252.407 365.402 252.484C365.306 252.771 364.079 254.745 360.416 254.764C356.791 254.783 355.755 250.606 355.698 249.207C355.333 243.803 358.459 240.603 358.459 240.603C366.514 239.568 374.666 236.33 382.74 235.582Z" fill="#FFC000"/>
<path d="M359.327 228.492C359.25 229.795 356.22 233.685 354.532 236.445C352.845 239.166 352.423 243.209 359.078 245.317L359.327 228.492Z" fill="#FFC000"/>
<path d="M365.307 252.791C365.25 252.791 365.173 252.791 365.115 252.771C364.578 252.656 364.233 252.139 364.348 251.602C364.674 250.012 364.463 248.364 364.463 248.345C364.387 247.808 364.77 247.31 365.307 247.233C365.902 247.157 366.343 247.54 366.42 248.077C366.439 248.153 366.688 250.069 366.285 252.005C366.189 252.465 365.768 252.791 365.307 252.791Z" fill="#FFC000"/>
<path d="M374.972 251.277C374.915 251.277 374.857 251.277 374.819 251.258C374.282 251.162 373.917 250.664 374.013 250.108C374.339 248.134 374.128 246.908 374.128 246.888C374.033 246.352 374.397 245.834 374.915 245.739C375.452 245.643 375.97 245.988 376.066 246.524C376.085 246.582 376.353 248.077 375.95 250.434C375.874 250.932 375.452 251.277 374.972 251.277Z" fill="#FFC000"/>
<path d="M280.229 159.468C279.999 162.745 278.714 165.677 277.16 167.784C275.569 169.95 273.631 171.272 271.349 171.579C263.39 172.403 255.277 174.836 248.66 178.688C241.948 182.501 237.095 187.848 235.293 193.98C234.928 194.708 234.967 195.571 234.756 196.356C234.621 197.18 234.391 197.87 234.353 199.001C234.142 201.032 234.084 203.101 234.046 205.171C234.027 209.329 234.353 213.564 234.871 217.914C235.906 226.595 237.843 235.736 238.917 245.585C239.589 251.315 236.539 257.045 229.961 257.006C229.328 257.006 228.714 256.987 228.12 256.911C222.423 256.163 215.749 252.369 215.27 248.153C214.387 239.856 212.47 230.811 211.242 220.75C210.628 215.73 210.226 210.46 210.245 205.056C210.302 202.335 210.379 199.614 210.648 196.874C210.686 195.647 211.031 193.808 211.319 192.179C211.664 190.512 211.837 188.825 212.47 187.216C214.311 180.566 218.051 174.626 222.289 169.72C226.585 164.738 231.61 161.135 236.693 158.126C241.794 155.099 247.088 152.991 252.439 151.305C257.79 149.599 262.68 148.449 268.3 147.855C271.522 147.453 275.204 148.833 277.295 150.979C279.462 153.182 280.459 156.191 280.229 159.468Z" fill="#FFC000"/>
<path d="M213.584 236.1C213.584 236.1 214.37 242.845 214.658 245.317C214.927 247.77 215.387 250.529 216.403 252.139C218.494 255.473 222.445 256.642 224.746 256.125C224.746 256.125 225.878 258.175 228.62 258.405C232.552 258.731 233.799 256.738 234.374 256.585C234.796 256.968 235.947 257.984 238.747 257.715C242.621 257.332 243.005 252.599 242.602 251.104C241.355 245.834 239.073 244.052 239.073 244.052C230.845 242.653 221.831 236.981 213.584 236.1Z" fill="#FFC000"/>
<path d="M236.809 230.619C237.02 231.941 239.82 235.065 241.757 237.709C243.694 240.316 245.324 246.084 238.918 248.862L236.809 230.619Z" fill="#FFC000"/>
<path d="M224.224 256.125C223.859 256.125 223.514 255.991 223.341 255.722C221.903 253.672 222.344 251.43 222.382 251.315C222.478 250.893 223.015 250.606 223.533 250.663C224.07 250.721 224.435 251.104 224.339 251.526C224.339 251.526 223.993 253.385 225.087 254.975C225.355 255.339 225.163 255.818 224.684 256.029C224.53 256.087 224.377 256.125 224.224 256.125Z" fill="#FFC000"/>
<path d="M234.254 256.853C233.89 256.853 233.545 256.7 233.372 256.412C231.934 254.113 232.394 251.698 232.413 251.583C232.509 251.143 233.046 250.836 233.564 250.874C234.101 250.932 234.465 251.372 234.369 251.832C234.369 251.832 234.005 253.825 235.117 255.607C235.386 256.01 235.194 256.527 234.715 256.757C234.561 256.815 234.408 256.853 234.254 256.853Z" fill="#FFC000"/>
<path d="M294.406 143.486H300.639C303.44 143.486 305.741 141.187 305.741 138.389V126.086C305.741 123.288 303.44 120.989 300.639 120.989H294.406C291.606 120.989 289.305 123.288 289.305 126.086V138.389C289.324 141.206 291.606 143.486 294.406 143.486Z" fill="#FFC000"/>
<path d="M286.982 130.13C286.982 131.299 288.056 132.238 289.38 132.238C290.703 132.238 291.777 131.299 291.777 130.13C291.777 128.961 290.703 128.022 289.38 128.022C288.056 128.022 286.982 128.961 286.982 130.13Z" fill="#FFC000"/>
<path d="M303.285 130.13C303.285 131.299 304.359 132.238 305.683 132.238C307.006 132.238 308.08 131.299 308.08 130.13C308.08 128.961 307.006 128.022 305.683 128.022C304.359 128.022 303.285 128.961 303.285 130.13Z" fill="#FFC000"/>
<path d="M298.811 140.727C297.813 140.727 296.778 140.267 296.624 140.19C296.375 140.075 296.26 139.768 296.375 139.539C296.49 139.289 296.797 139.194 297.027 139.289C297.679 139.596 298.887 139.941 299.424 139.596C299.501 139.539 299.75 139.385 299.75 138.753C299.75 137.948 299.578 137.239 299.348 136.319C299.137 135.457 298.868 134.384 298.696 132.966C298.657 132.697 298.849 132.448 299.137 132.41C299.405 132.391 299.654 132.563 299.693 132.851C299.865 134.211 300.096 135.208 300.307 136.07C300.537 137.009 300.748 137.833 300.729 138.753C300.729 139.73 300.307 140.209 299.942 140.42C299.616 140.65 299.213 140.727 298.811 140.727Z" fill="#FFC000"/>
<path d="M323.615 376.16C317.267 376.16 312.299 376.314 311.916 371.236L302.576 229.508C302.134 222.82 307.217 217.033 313.91 216.592C320.604 216.17 326.396 221.229 326.837 227.917L335.736 363.226C335.909 365.87 341.26 376.16 338.805 376.16C329.886 376.16 323.883 376.16 323.615 376.16Z" fill="#FFC000"/>
<path d="M268.585 376.16C274.933 376.16 279.9 376.314 280.284 371.236L289.624 229.508C290.065 222.82 284.983 217.033 278.289 216.592C271.596 216.17 265.804 221.229 265.363 227.917L256.464 363.226C256.291 365.87 243 376.16 245.455 376.16C254.392 376.16 268.316 376.16 268.585 376.16Z" fill="#FFC000"/>
<path d="M243.806 276.437C243.806 276.514 243.844 276.552 243.844 276.629H243.441C242.329 276.629 241.408 277.549 241.408 278.66C241.408 279.772 242.329 280.691 243.441 280.691H254.45C255.562 280.691 256.483 279.772 256.483 278.66C256.483 277.549 255.562 276.629 254.45 276.629H253.606C253.606 276.552 253.644 276.514 253.644 276.437C253.644 270.114 243.806 270.114 243.806 276.437Z" fill="#1B1B1B"/>
<path d="M339.647 250.817C339.59 250.874 339.59 250.932 339.551 250.97L339.263 250.683C338.477 249.897 337.173 249.897 336.387 250.683C335.6 251.468 335.6 252.771 336.387 253.557L344.173 261.337C344.96 262.123 346.264 262.123 347.05 261.337C347.836 260.551 347.836 259.248 347.05 258.463L346.456 257.869C346.513 257.83 346.571 257.811 346.609 257.773C351.078 253.289 344.135 246.333 339.647 250.817Z" fill="#1B1B1B"/>
<path d="M336.002 259.842C335.618 259.842 335.235 259.689 334.947 259.402C334.372 258.827 334.372 257.888 334.947 257.294L338.399 253.844C338.975 253.27 339.934 253.27 340.509 253.844C341.084 254.419 341.084 255.358 340.509 255.952L337.057 259.402C336.769 259.708 336.386 259.842 336.002 259.842Z" fill="#1B1B1B"/>
<path d="M339.359 263.196C338.976 263.196 338.592 263.043 338.305 262.755C337.729 262.18 337.729 261.241 338.305 260.647L341.757 257.198C342.332 256.623 343.291 256.623 343.866 257.198C344.442 257.773 344.442 258.712 343.866 259.306L340.414 262.755C340.127 263.062 339.743 263.196 339.359 263.196Z" fill="#1B1B1B"/>
<path d="M344.71 254.055C344.442 254.055 344.173 253.998 343.905 253.883C342.908 253.442 342.447 252.273 342.888 251.277C343.023 250.951 346.513 243.382 356.889 242.538C357.963 242.481 358.941 243.267 359.018 244.359C359.114 245.451 358.289 246.409 357.215 246.505C349.141 247.157 346.532 252.848 346.513 252.905C346.187 253.614 345.458 254.055 344.71 254.055Z" fill="#1B1B1B"/>
<path d="M248.947 274.866C248.89 274.866 248.851 274.866 248.794 274.866C247.701 274.789 246.876 273.831 246.972 272.739C248.008 259.44 245.495 253.768 243.213 251.334C241.467 249.475 239.761 249.514 239.741 249.514C238.802 249.495 237.747 248.69 237.708 247.617C237.67 246.543 238.456 245.624 239.55 245.566C239.876 245.547 242.983 245.451 245.936 248.441C250.194 252.752 251.882 261.031 250.942 273.046C250.846 274.08 249.983 274.866 248.947 274.866Z" fill="#1B1B1B"/>
<path d="M238.519 250.721C238.193 250.721 237.867 250.568 237.694 250.261C237.541 250.012 236.141 247.731 237.061 245.854C237.637 244.723 238.845 244.091 240.705 243.956C241.185 243.899 241.722 244.321 241.76 244.876C241.798 245.413 241.396 245.892 240.839 245.93C240.091 245.988 239.113 246.16 238.826 246.754C238.442 247.521 239.133 248.881 239.343 249.207C239.631 249.667 239.497 250.28 239.037 250.568C238.883 250.663 238.691 250.721 238.519 250.721Z" fill="#FFC000"/>
<path d="M358.597 247.923C358.386 247.923 358.175 247.846 357.983 247.712C357.561 247.367 357.484 246.754 357.81 246.313C358.271 245.719 358.789 244.876 358.558 244.282C358.29 243.573 356.986 243.132 356.391 243.017C355.854 242.922 355.49 242.404 355.586 241.868C355.682 241.331 356.199 240.948 356.717 241.063C357.024 241.12 359.652 241.599 360.4 243.554C360.86 244.723 360.515 246.064 359.364 247.521C359.191 247.789 358.884 247.923 358.597 247.923Z" fill="#FFC000"/>
<path d="M212.086 53.8043C212.489 58.6333 213.985 63.5198 217.073 67.544C220.237 71.664 225.646 73.2928 230.555 73.6186C231.917 73.7144 234.315 73.5419 235.35 73.2928C243.137 71.4532 247.51 67.9081 250.578 61.3544C254.126 53.7851 253.34 41.5976 248.008 34.8715C243.271 28.8927 230.517 25.635 222.692 28.931C218.53 30.6748 216.037 35.0056 214.177 38.6465C211.894 43.169 211.683 48.8986 212.086 53.8043ZM223.363 37.8034C224.361 36.6344 229.884 33.0127 234.104 34.4882C237.901 35.8296 241.775 37.6884 243.616 41.3102C245.323 44.6636 245.918 48.9944 245.745 52.6737C245.362 60.6262 242.005 64.1522 233.758 66.3176C232.608 66.6242 229.271 66.3751 227.698 65.9535C224.725 65.1487 223.459 64.0372 221.791 61.5652C219.604 58.3075 219.412 54.5708 219.297 50.6999C219.144 45.6984 220.065 41.6743 223.363 37.8034Z" fill="#E7E7E7"/>
<path d="M297.602 44.0505C296.624 39.2406 294.361 33.7026 290.736 30.0233C287.034 26.2482 281.473 25.98 276.39 26.2291C274.99 26.2866 272.554 26.7465 271.519 27.1106C263.751 29.8508 259.685 33.9133 257.307 40.8694C254.564 48.8986 256.77 61.067 263.003 67.2182C268.546 72.6796 281.99 74.5193 289.604 70.3034C293.651 68.0614 295.723 63.424 297.199 59.5531C299.06 54.7433 298.599 48.937 297.602 44.0505ZM287.936 61.4502C287.054 62.7533 282.163 66.1643 277.33 66.011C273.187 65.8769 269.102 63.654 266.781 60.2238C264.633 57.0428 263.54 52.7503 263.291 49.0328C262.754 40.9844 267.203 34.699 275.565 33.2235C276.946 32.9744 278.404 32.8211 279.478 32.8211C282.738 32.8211 285.366 33.6451 286.958 36.4237C288.933 39.8921 290.333 44.2038 290.909 48.0938C291.637 53.0761 290.851 57.1769 287.936 61.4502Z" fill="#E7E7E7"/>
<path d="M331.842 32.0929C325.187 28.6244 315.099 26.8615 307.945 29.1418C307.044 25.3093 300.734 25.5967 301.079 29.8509C302.038 41.6934 301.021 53.536 301.06 65.3212C301.098 77.6811 301.577 90.0603 301.98 102.42C302.134 106.885 309.096 106.789 308.942 102.305C308.616 91.9191 308.213 81.5329 308.079 71.1466C314.255 73.8294 321.543 72.9479 328.064 70.9167C336.196 68.4064 341.585 60.6071 341.949 51.5623C342.256 43.6097 339.053 35.8488 331.842 32.0929ZM326.107 64.2289C320.411 65.9918 313.047 67.4099 308.137 63.0791C308.118 63.0599 308.079 63.0408 308.06 63.0216C308.29 54.2451 307.983 45.2002 308.213 36.462C313.699 33.7792 322.598 35.3122 327.949 37.9184C333.089 40.4095 334.834 45.0661 334.987 50.585C335.179 56.9279 331.573 62.5234 326.107 64.2289Z" fill="#E7E7E7"/>
<path d="M392.274 3.34871C392.006 -1.09705 385.044 -1.13538 385.312 3.34871C385.868 12.451 386.022 21.5725 385.715 30.694C385.427 39.4514 384.833 49.2435 386.214 57.9626C386.904 62.37 393.617 60.4921 392.926 56.1038C391.603 47.6914 392.485 37.7842 392.715 29.3143C392.965 20.6719 392.792 11.9911 392.274 3.34871Z" fill="#E7E7E7"/>
<path d="M389.471 67.8315C384.983 67.8315 384.983 74.7876 389.471 74.7876C393.94 74.8067 393.959 67.8315 389.471 67.8315Z" fill="#E7E7E7"/>
<path d="M381.399 56.5446C380.517 52.1371 377.467 48.1896 373.325 46.2541C370.889 45.1235 368.223 44.8936 365.615 44.8936C363.102 44.8936 359.631 45.5451 357.445 43.7822C353.781 40.8119 355.834 35.5613 359.152 33.7217C362.546 31.8246 369.853 31.4413 371.119 36.4045C372.232 40.7736 378.81 38.7615 377.698 34.3924C375.358 25.1559 363.026 23.8146 356.064 27.3597C348.641 31.1156 345.649 41.5976 352.266 48.2088C355.949 51.888 360.82 51.8497 365.538 51.8305C370.87 51.8114 376.067 54.954 374.495 61.0478C373.075 66.5092 366.593 68.6171 361.434 68.8087C356.735 68.9812 349.715 66.49 350.252 60.5496C350.655 56.1613 343.808 54.4366 343.406 58.8632C341.219 83.0658 386.098 79.8656 381.399 56.5446Z" fill="#E7E7E7"/>
<path d="M269.855 57.8285C269.605 57.8285 269.356 57.7327 269.145 57.5411C268.762 57.1578 268.762 56.5254 269.145 56.1422L284.086 41.2144C284.469 40.8311 285.102 40.8311 285.486 41.2144C285.869 41.5976 285.869 42.23 285.486 42.6133L270.545 57.5411C270.373 57.7327 270.123 57.8285 269.855 57.8285Z" fill="white"/>
<path d="M284.795 57.8285C284.546 57.8285 284.297 57.7327 284.086 57.5411L269.145 42.6133C268.762 42.23 268.762 41.5976 269.145 41.2144C269.529 40.8311 270.162 40.8311 270.545 41.2144L285.486 56.1422C285.869 56.5254 285.869 57.1578 285.486 57.5411C285.294 57.7327 285.045 57.8285 284.795 57.8285Z" fill="white"/>
</svg>
