<svg width="192" height="55" viewBox="0 0 192 55" fill="none" xmlns="http://www.w3.org/2000/svg">
<path fill-rule="evenodd" clip-rule="evenodd" d="M30.872 50.5545C39.5651 50.5545 46.6153 51.5501 46.6153 52.7776C46.6153 54.0044 39.5651 55 30.872 55C22.1782 55 15.128 54.0044 15.128 52.7776C15.1273 51.5494 22.1782 50.5545 30.872 50.5545Z" fill="#E7E7E7"/>
<path fill-rule="evenodd" clip-rule="evenodd" d="M38.4365 5.90234C38.5644 5.9621 38.6923 6.02399 38.8188 6.0873C38.6923 6.0247 38.5644 5.96281 38.4365 5.90234Z" fill="white"/>
<path fill-rule="evenodd" clip-rule="evenodd" d="M37.2302 5.38852C37.6374 5.54502 38.0381 5.71575 38.4299 5.9C38.0373 5.71575 37.6374 5.54573 37.2302 5.38852Z" fill="white"/>
<path fill-rule="evenodd" clip-rule="evenodd" d="M8.31053 19.7396C8.38733 19.7275 8.46414 19.7168 8.54095 19.7068L8.31053 19.7396ZM8.0801 19.7794C8.15399 19.7652 8.2286 19.7524 8.30321 19.741L8.0801 19.7794ZM12.5825 19.6464H30.1113H32.0132H44.4018H51.637H52.49V19.694C57.3244 20.2292 61.1465 25.2603 61.1465 31.3367V39.5309C61.1465 41.4544 59.8664 43.0285 58.3017 43.0285H56.1716V46.9829C56.1716 48.4759 54.9163 49.697 53.3817 49.697H49.5801C48.0461 49.697 46.7902 48.4759 46.7902 46.9829V43.0285H40.996L40.1738 43.8283L30.7016 53.4287C27.7544 50.5132 24.7992 47.6077 21.8264 44.7164L20.0913 43.0285H14.3549V46.9829C14.3549 48.4759 13.0996 49.697 11.5657 49.697H7.7641C6.22942 49.697 4.97491 48.4759 4.97491 46.9829V43.0285H2.84551C1.28084 43.0285 0 41.4544 0 39.5309V31.3367C0 25.5157 3.50752 20.6533 8.05231 19.7844L8.01135 19.7922C8.51974 14.9213 10.6923 10.1833 14.5282 6.45165C20.6516 0.49475 29.412 -1.33623 37.1578 0.955163V5.36004C35.1169 4.58581 32.8968 4.16026 30.5743 4.16026C21.3129 4.16098 13.6717 10.922 12.5825 19.6464Z" fill="#FFC000"/>
<path fill-rule="evenodd" clip-rule="evenodd" d="M13.7587 27.0137C16.779 27.0137 19.2281 29.3962 19.2281 32.333C19.2281 35.2713 16.779 37.6538 13.7587 37.6538C10.7398 37.6538 8.29074 35.2713 8.29074 32.333C8.29074 29.3962 10.7398 27.0137 13.7587 27.0137ZM47.3877 27.0137C50.4074 27.0137 52.8564 29.3962 52.8564 32.333C52.8564 35.2713 50.4074 37.6538 47.3877 37.6538C44.3681 37.6538 41.9191 35.2713 41.9191 32.333C41.9191 29.3962 44.3681 27.0137 47.3877 27.0137Z" fill="white"/>
<path fill-rule="evenodd" clip-rule="evenodd" d="M46.5605 6.45251C44.9643 4.89907 43.1883 3.62671 41.2981 2.63401C40.6214 2.27891 39.9302 1.9594 39.2272 1.67618V6.29739C39.9485 6.67952 40.6397 7.10791 41.2981 7.57829C44.0741 9.56368 46.2474 12.3005 47.5012 15.4793C47.7594 16.1333 47.9781 16.805 48.1551 17.4939H52.7109C52.5653 16.8164 52.3861 16.1439 52.174 15.4793C51.1206 12.1767 49.2494 9.06769 46.5605 6.45251Z" fill="white"/>
<path fill-rule="evenodd" clip-rule="evenodd" d="M39.6369 10.7905C41.4027 10.7905 42.8357 12.1838 42.8357 13.9023C42.8357 15.6209 41.4035 17.0135 39.6369 17.0135C37.8703 17.0135 36.4381 15.6209 36.4381 13.9023C36.4381 12.1845 37.8703 10.7905 39.6369 10.7905Z" fill="white"/>
<path d="M66.0382 20.0208V14.0519H89.6045V20.0208H66.0382ZM74.304 43.4705V14.0519H81.3387V43.4705H74.304ZM90.9088 37.5867C90.9088 36.194 91.2898 34.9575 92.0519 33.8774C92.8433 32.7973 94.0304 31.9304 95.6132 31.2767C97.2254 30.6229 99.2478 30.2534 101.681 30.1681L105.638 30.0402V33.6643L102.12 33.8348C100.801 33.8916 99.7608 34.0764 98.9987 34.3891C98.2366 34.6733 97.6797 35.0286 97.3279 35.455C97.0055 35.8813 96.8443 36.3503 96.8443 36.8619C96.8443 37.6009 97.0935 38.1836 97.5917 38.61C98.09 39.0079 98.7202 39.2069 99.4823 39.2069C100.508 39.2069 101.475 38.9653 102.384 38.4821C103.322 37.9705 104.143 37.3167 104.846 36.5208V40.1449C104.143 41.2818 103.161 42.2056 101.901 42.9162C100.669 43.6268 99.2771 43.9821 97.7236 43.9821C96.4926 43.9821 95.3641 43.7121 94.3382 43.172C93.3123 42.632 92.4769 41.8929 91.8321 40.955C91.2165 39.9885 90.9088 38.8658 90.9088 37.5867ZM91.6562 22.4511C92.77 21.9679 94.1184 21.5415 95.7012 21.172C97.284 20.7741 98.9694 20.5751 100.757 20.5751C102.751 20.5751 104.495 20.9162 105.989 21.5984C107.484 22.2805 108.657 23.2896 109.507 24.6255C110.357 25.9614 110.782 27.61 110.782 29.5712V38.141C110.782 38.7379 110.796 39.278 110.826 39.7612C110.884 40.2159 110.972 40.756 111.09 41.3813L111.441 43.4705H105.022L104.187 39.2069V29.9123C104.187 28.6617 103.82 27.6811 103.088 26.9705C102.384 26.2599 101.27 25.9046 99.7461 25.9046C98.515 25.9046 97.3573 26.0751 96.2727 26.4162C95.2175 26.7289 94.2649 27.0842 93.4149 27.4821L91.6562 22.4511ZM114.064 43.4705L122.593 31.234L125.275 28.079L129.452 21.0867H136.663L128.573 32.5984L125.979 35.6255L121.274 43.4705H114.064ZM114.503 21.0867H122.154L127.43 29.5712L127.518 29.6991L137.102 43.4705H129.452L123.824 34.4743L123.736 34.3464L114.503 21.0867ZM140.627 43.4705V21.0867H147.223V43.4705H140.627ZM140.144 14.6488C140.144 13.6539 140.496 12.8012 141.199 12.0906C141.903 11.3516 142.811 10.9821 143.925 10.9821C145.039 10.9821 145.948 11.3516 146.651 12.0906C147.354 12.8012 147.706 13.6539 147.706 14.6488C147.706 15.6436 147.354 16.5105 146.651 17.2495C145.948 17.9601 145.039 18.3154 143.925 18.3154C142.811 18.3154 141.903 17.9601 141.199 17.2495C140.496 16.5105 140.144 15.6436 140.144 14.6488ZM152.05 37.5867C152.05 36.194 152.431 34.9575 153.194 33.8774C153.985 32.7973 155.172 31.9304 156.755 31.2767C158.367 30.6229 160.389 30.2534 162.822 30.1681L166.779 30.0402V33.6643L163.262 33.8348C161.943 33.8916 160.902 34.0764 160.14 34.3891C159.378 34.6733 158.821 35.0286 158.47 35.455C158.147 35.8813 157.986 36.3503 157.986 36.8619C157.986 37.6009 158.235 38.1836 158.733 38.61C159.232 39.0079 159.862 39.2069 160.624 39.2069C161.65 39.2069 162.617 38.9653 163.526 38.4821C164.464 37.9705 165.284 37.3167 165.988 36.5208V40.1449C165.284 41.2818 164.302 42.2056 163.042 42.9162C161.811 43.6268 160.419 43.9821 158.865 43.9821C157.634 43.9821 156.506 43.7121 155.48 43.172C154.454 42.632 153.619 41.8929 152.974 40.955C152.358 39.9885 152.05 38.8658 152.05 37.5867ZM152.798 22.4511C153.912 21.9679 155.26 21.5415 156.843 21.172C158.426 20.7741 160.111 20.5751 161.899 20.5751C163.892 20.5751 165.636 20.9162 167.131 21.5984C168.626 22.2805 169.798 23.2896 170.648 24.6255C171.498 25.9614 171.923 27.61 171.923 29.5712V38.141C171.923 38.7379 171.938 39.278 171.967 39.7612C172.026 40.2159 172.114 40.756 172.231 41.3813L172.583 43.4705H166.164L165.328 39.2069V29.9123C165.328 28.6617 164.962 27.6811 164.229 26.9705C163.526 26.2599 162.412 25.9046 160.888 25.9046C159.657 25.9046 158.499 26.0751 157.414 26.4162C156.359 26.7289 155.407 27.0842 154.556 27.4821L152.798 22.4511ZM177.623 21.0867H184.043L184.878 25.5635V43.4705H178.283V26.4162C178.283 25.8193 178.254 25.2935 178.195 24.8387C178.166 24.3555 178.092 23.8012 177.975 23.1759L177.623 21.0867ZM184.218 29.486V25.4782C185.127 23.9433 186.256 22.7495 187.603 21.8968C188.952 21.0157 190.417 20.5751 192 20.5751V26.8852C190.271 26.8852 188.82 27.0699 187.647 27.4395C186.505 27.809 185.362 28.4911 184.218 29.486Z" fill="white"/>
</svg>
