<svg width="157" height="45" viewBox="0 0 157 45" fill="none" xmlns="http://www.w3.org/2000/svg">
<path fill-rule="evenodd" clip-rule="evenodd" d="M25.2444 41.3628C32.3528 41.3628 38.1178 42.1773 38.1178 43.1817C38.1178 44.1854 32.3528 45 25.2444 45C18.1353 45 12.3704 44.1854 12.3704 43.1817C12.3698 42.1767 18.1353 41.3628 25.2444 41.3628Z" fill="#E7E7E7"/>
<path fill-rule="evenodd" clip-rule="evenodd" d="M31.4297 4.8291C31.5344 4.87799 31.639 4.92863 31.7425 4.98043C31.639 4.92921 31.5344 4.87857 31.4297 4.8291Z" fill="#1B1B1B"/>
<path fill-rule="evenodd" clip-rule="evenodd" d="M30.4434 4.40869C30.7765 4.53674 31.1043 4.67643 31.4249 4.82717C31.1037 4.67643 30.7765 4.53732 30.4434 4.40869Z" fill="#1B1B1B"/>
<path fill-rule="evenodd" clip-rule="evenodd" d="M6.79559 16.1506C6.85839 16.1407 6.9212 16.1319 6.98401 16.1238L6.79559 16.1506ZM6.60717 16.1832C6.66758 16.1715 6.7286 16.161 6.78961 16.1517L6.60717 16.1832ZM10.2888 16.0743H24.6223H26.1775H36.3077H42.224H42.9215V16.1133C46.8747 16.5511 50 20.6675 50 25.6391V32.3435C50 33.9172 48.9532 35.2051 47.6738 35.2051H45.932V38.4406C45.932 39.6621 44.9056 40.6612 43.6506 40.6612H40.542C39.2877 40.6612 38.2607 39.6621 38.2607 38.4406V35.2051H33.5227L32.8504 35.8595L25.105 43.7144C22.695 41.329 20.2785 38.9518 17.8476 36.5862L16.4288 35.2051H11.7381V38.4406C11.7381 39.6621 10.7117 40.6612 9.45736 40.6612H6.34877C5.09385 40.6612 4.06802 39.6621 4.06802 38.4406V35.2051H2.3268C1.04736 35.2051 0 33.9172 0 32.3435V25.6391C0 20.8765 2.86813 16.8981 6.58444 16.1872L6.55095 16.1936C6.96666 12.2083 8.74317 8.33182 11.8799 5.27862C16.887 0.404796 24.0504 -1.09328 30.3843 0.781497V4.38549C28.7154 3.75202 26.9 3.40385 25.0009 3.40385C17.4277 3.40443 11.1794 8.93618 10.2888 16.0743Z" fill="white"/>
<path fill-rule="evenodd" clip-rule="evenodd" d="M11.2505 22.1021C13.7202 22.1021 15.7228 24.0513 15.7228 26.4542C15.7228 28.8582 13.7202 30.8075 11.2505 30.8075C8.7819 30.8075 6.7793 28.8582 6.7793 26.4542C6.7793 24.0513 8.7819 22.1021 11.2505 22.1021ZM38.7492 22.1021C41.2184 22.1021 43.221 24.0513 43.221 26.4542C43.221 28.8582 41.2184 30.8075 38.7492 30.8075C36.2801 30.8075 34.2775 28.8582 34.2775 26.4542C34.2775 24.0513 36.2801 22.1021 38.7492 22.1021Z" fill="#1B1B1B"/>
<path fill-rule="evenodd" clip-rule="evenodd" d="M38.0729 5.27949C36.7677 4.00849 35.3154 2.96747 33.7698 2.15526C33.2165 1.86473 32.6512 1.60331 32.0764 1.37158V5.15257C32.6662 5.46523 33.2314 5.81573 33.7698 6.20058C36.0398 7.825 37.8169 10.0642 38.8421 12.665C39.0532 13.2001 39.2321 13.7497 39.3768 14.3133H43.1021C42.9831 13.7591 42.8365 13.2088 42.6631 12.665C41.8017 9.96293 40.2717 7.41918 38.0729 5.27949Z" fill="#1B1B1B"/>
<path fill-rule="evenodd" clip-rule="evenodd" d="M32.4114 8.82861C33.8553 8.82861 35.0271 9.96861 35.0271 11.3747C35.0271 12.7808 33.8559 13.9202 32.4114 13.9202C30.9668 13.9202 29.7957 12.7808 29.7957 11.3747C29.7957 9.9692 30.9668 8.82861 32.4114 8.82861Z" fill="#1B1B1B"/>
<path d="M54 16.3807V11.497H73.2704V16.3807H54ZM60.759 35.5667V11.497H66.5114V35.5667H60.759ZM74.3369 30.7528C74.3369 29.6133 74.6484 28.6016 75.2716 27.7179C75.9187 26.8342 76.8895 26.1249 78.1837 25.59C79.502 25.0551 81.1558 24.7528 83.1451 24.683L86.3808 24.5784V27.5435L83.5047 27.683C82.4261 27.7295 81.5752 27.8807 80.9521 28.1365C80.3289 28.3691 79.8735 28.6598 79.5859 29.0086C79.3222 29.3574 79.1904 29.7412 79.1904 30.1598C79.1904 30.7644 79.3941 31.2412 79.8016 31.59C80.209 31.9156 80.7244 32.0784 81.3475 32.0784C82.1864 32.0784 82.9774 31.8807 83.7204 31.4854C84.4873 31.0667 85.1585 30.5319 85.7337 29.8807V32.8458C85.1585 33.776 84.3555 34.5319 83.3249 35.1133C82.3182 35.6947 81.1797 35.9854 79.9094 35.9854C78.9028 35.9854 77.98 35.7644 77.1411 35.3226C76.3022 34.8807 75.6191 34.276 75.0918 33.5086C74.5885 32.7179 74.3369 31.7993 74.3369 30.7528ZM74.948 18.3691C75.8588 17.9737 76.9614 17.6249 78.2556 17.3226C79.5499 16.997 80.9281 16.8342 82.3901 16.8342C84.02 16.8342 85.4461 17.1133 86.6684 17.6714C87.8908 18.2295 88.8495 19.0551 89.5446 20.1481C90.2397 21.2412 90.5872 22.59 90.5872 24.1947V31.2063C90.5872 31.6947 90.5992 32.1365 90.6232 32.5319C90.6711 32.904 90.743 33.3458 90.8389 33.8574L91.1265 35.5667H85.8775L85.1944 32.0784V24.4737C85.1944 23.4505 84.8948 22.6481 84.2956 22.0667C83.7204 21.4854 82.8096 21.1947 81.5632 21.1947C80.5566 21.1947 79.6098 21.3342 78.723 21.6133C77.8602 21.8691 77.0812 22.1598 76.3861 22.4854L74.948 18.3691ZM93.2708 35.5667L100.245 25.5551L102.439 22.9737L105.854 17.2528H111.75L105.135 26.6714L103.014 29.1481L99.1669 35.5667H93.2708ZM93.6303 17.2528H99.886L104.2 24.1947L104.272 24.2993L112.11 35.5667H105.854L101.252 28.2063L101.18 28.1016L93.6303 17.2528ZM114.992 35.5667V17.2528H120.385V35.5667H114.992ZM114.597 11.9854C114.597 11.1714 114.884 10.4737 115.46 9.89233C116.035 9.28768 116.778 8.98535 117.689 8.98535C118.599 8.98535 119.342 9.28768 119.918 9.89233C120.493 10.4737 120.781 11.1714 120.781 11.9854C120.781 12.7993 120.493 13.5086 119.918 14.1133C119.342 14.6947 118.599 14.9854 117.689 14.9854C116.778 14.9854 116.035 14.6947 115.46 14.1133C114.884 13.5086 114.597 12.7993 114.597 11.9854ZM124.333 30.7528C124.333 29.6133 124.644 28.6016 125.268 27.7179C125.915 26.8342 126.885 26.1249 128.18 25.59C129.498 25.0551 131.152 24.7528 133.141 24.683L136.377 24.5784V27.5435L133.501 27.683C132.422 27.7295 131.571 27.8807 130.948 28.1365C130.325 28.3691 129.869 28.6598 129.582 29.0086C129.318 29.3574 129.186 29.7412 129.186 30.1598C129.186 30.7644 129.39 31.2412 129.798 31.59C130.205 31.9156 130.72 32.0784 131.344 32.0784C132.182 32.0784 132.973 31.8807 133.716 31.4854C134.483 31.0667 135.154 30.5319 135.73 29.8807V32.8458C135.154 33.776 134.352 34.5319 133.321 35.1133C132.314 35.6947 131.176 35.9854 129.905 35.9854C128.899 35.9854 127.976 35.7644 127.137 35.3226C126.298 34.8807 125.615 34.276 125.088 33.5086C124.585 32.7179 124.333 31.7993 124.333 30.7528ZM124.944 18.3691C125.855 17.9737 126.957 17.6249 128.252 17.3226C129.546 16.997 130.924 16.8342 132.386 16.8342C134.016 16.8342 135.442 17.1133 136.664 17.6714C137.887 18.2295 138.846 19.0551 139.541 20.1481C140.236 21.2412 140.583 22.59 140.583 24.1947V31.2063C140.583 31.6947 140.595 32.1365 140.619 32.5319C140.667 32.904 140.739 33.3458 140.835 33.8574L141.123 35.5667H135.873L135.19 32.0784V24.4737C135.19 23.4505 134.891 22.6481 134.292 22.0667C133.716 21.4854 132.806 21.1947 131.559 21.1947C130.553 21.1947 129.606 21.3342 128.719 21.6133C127.856 21.8691 127.077 22.1598 126.382 22.4854L124.944 18.3691ZM145.244 17.2528H150.493L151.176 20.9156V35.5667H145.783V21.6133C145.783 21.1249 145.759 20.6947 145.712 20.3226C145.688 19.9272 145.628 19.4737 145.532 18.9621L145.244 17.2528ZM150.637 24.1249V20.8458C151.38 19.59 152.303 18.6133 153.405 17.9156C154.507 17.1947 155.706 16.8342 157 16.8342V21.997C155.586 21.997 154.399 22.1481 153.441 22.4505C152.506 22.7528 151.572 23.3109 150.637 24.1249Z" fill="#1B1B1B"/>
</svg>
