<svg width="131" height="60" viewBox="0 0 131 60" fill="none" xmlns="http://www.w3.org/2000/svg">
<path d="M0.628 23.1059C0.986647 22.7257 1.50748 22.533 2.17695 22.533H8.15023C8.38621 21.7319 8.62531 20.8514 8.87689 19.924C9.59522 17.2796 10.4092 14.2819 11.4841 11.9225C12.7575 9.12606 14.1839 7.7134 15.8471 7.60308C18.026 7.45849 24.0856 7.19826 28.8676 7.00226L30.1129 2.20843C30.429 0.990695 31.6826 0 32.9062 0H43.3724C44.0878 0 44.8518 0.344875 45.4172 0.921077C45.5233 1.02925 45.5233 1.20488 45.4194 1.31305C45.4163 1.31627 45.4132 1.31842 45.4099 1.32163C45.5825 1.5337 45.7219 1.76825 45.8195 2.01779C45.8248 2.01565 45.8299 2.0135 45.8363 2.01242C45.9797 1.9728 46.1273 2.06063 46.1657 2.20843L47.4111 7.00226C52.192 7.19826 58.2526 7.45849 60.4316 7.60308C63.1468 7.78301 64.7479 11.4823 65.7156 14.2498C65.7458 14.3344 65.7333 14.4296 65.6823 14.5036C65.6314 14.5775 65.5493 14.6214 65.462 14.6214H60.3422C60.2424 14.6214 60.1509 14.5646 60.1041 14.4736C59.3058 12.9163 58.5001 12.0928 57.708 12.0284C54.4292 11.7586 38.5957 11.2156 38.1384 11.1995C37.6809 11.2156 21.8474 11.7575 18.5686 12.0284C17.3088 12.1324 16.0104 14.1608 14.8158 17.8944C13.5507 21.8485 12.82 26.4304 12.6265 27.7402C12.6057 27.8773 12.4915 27.9758 12.3605 27.9758C12.347 27.9758 12.3335 27.9748 12.3199 27.9726C12.2908 28.1718 12.2648 28.3645 12.2399 28.5478H12.6858C12.6858 28.3945 12.8064 28.2703 12.955 28.2703H26.9402C27.0889 28.2703 27.2095 28.3945 27.2095 28.5478V45.7888H44.7239C44.8726 45.7888 44.9932 45.9131 44.9932 46.0662H45.962C45.962 45.9131 46.0826 45.7888 46.2313 45.7888H71.3812C71.4602 45.7888 71.5351 45.8242 71.586 45.8862C71.637 45.9484 71.6598 46.0297 71.6474 46.109C71.0632 49.9433 70.5236 50.4605 70.0725 50.4605H68.3291V54.8838C68.3291 57.7049 66.1014 60 63.3631 60H57.7277C54.9895 60 52.7618 57.7049 52.7618 54.8838V50.4605H23.5107V54.8838C23.5107 57.7049 21.283 60 18.5448 60H12.9093C10.1711 60 7.94337 57.7049 7.94337 54.8838V50.4605H6.20003C5.75511 50.4605 5.42453 49.894 5.09396 48.567C4.84862 47.5817 4.61783 46.2182 4.40679 44.5154C4.04607 41.6054 3.7841 37.8847 3.7841 35.6668C3.7841 31.7564 5.52431 30.5526 6.26759 30.0385C6.33724 29.9904 6.39755 29.9497 6.44122 29.9154C6.67199 29.7366 6.93395 29.2493 6.81752 28.8926C6.70318 28.537 6.19795 28.341 5.39438 28.341C4.98894 28.341 4.57104 28.3528 4.16666 28.3646C2.57613 28.4095 1.07293 28.4524 0.395141 27.7734C0.150845 27.5281 0.0261189 27.2068 0.0261189 26.819C0.0261189 26.6113 0.0198683 26.395 0.0125914 26.1658C-0.0165161 25.0712 -0.0529087 23.83 0.628 23.1059ZM19.6041 36.969C19.4793 37.0451 19.3171 37.0066 19.2392 36.8791C18.2984 35.3422 16.6849 34.4243 14.9229 34.4243C12.112 34.4243 9.82497 36.7806 9.82497 39.6766C9.82497 42.5725 12.112 44.9287 14.9229 44.9287C17.7339 44.9287 20.0209 42.5725 20.0209 39.6766C20.0209 39.0971 19.9305 38.5284 19.7506 37.9854C19.7038 37.843 19.7756 37.6877 19.9117 37.6363C19.8255 37.406 19.7215 37.1832 19.6041 36.969Z" fill="#FFC000"/>
<path d="M26.9 22.2V17.16H46.196V22.2H26.9ZM33.668 42V17.16H39.428V42H33.668ZM47.2639 37.032C47.2639 35.856 47.5759 34.812 48.1999 33.9C48.8479 32.988 49.8199 32.256 51.1159 31.704C52.4359 31.152 54.0919 30.84 56.0839 30.768L59.3239 30.66V33.72L56.4439 33.864C55.3639 33.912 54.5119 34.068 53.8879 34.332C53.2639 34.572 52.8079 34.872 52.5199 35.232C52.2559 35.592 52.1239 35.988 52.1239 36.42C52.1239 37.044 52.3279 37.536 52.7359 37.896C53.1439 38.232 53.6599 38.4 54.2839 38.4C55.1239 38.4 55.9159 38.196 56.6599 37.788C57.4279 37.356 58.0999 36.804 58.6759 36.132V39.192C58.0999 40.152 57.2959 40.932 56.2639 41.532C55.2559 42.132 54.1159 42.432 52.8439 42.432C51.8359 42.432 50.9119 42.204 50.0719 41.748C49.2319 41.292 48.5479 40.668 48.0199 39.876C47.5159 39.06 47.2639 38.112 47.2639 37.032ZM47.8759 24.252C48.7879 23.844 49.8919 23.484 51.1879 23.172C52.4839 22.836 53.8639 22.668 55.3279 22.668C56.9599 22.668 58.3879 22.956 59.6119 23.532C60.8359 24.108 61.7959 24.96 62.4919 26.088C63.1879 27.216 63.5359 28.608 63.5359 30.264V37.5C63.5359 38.004 63.5479 38.46 63.5719 38.868C63.6199 39.252 63.6919 39.708 63.7879 40.236L64.0759 42H58.8199L58.1359 38.4V30.552C58.1359 29.496 57.8359 28.668 57.2359 28.068C56.6599 27.468 55.7479 27.168 54.4999 27.168C53.4919 27.168 52.5439 27.312 51.6559 27.6C50.7919 27.864 50.0119 28.164 49.3159 28.5L47.8759 24.252ZM66.223 42L73.207 31.668L75.403 29.004L78.823 23.1H84.727L78.103 32.82L75.979 35.376L72.127 42H66.223ZM66.583 23.1H72.847L77.167 30.264L77.239 30.372L85.087 42H78.823L74.215 34.404L74.143 34.296L66.583 23.1ZM87.9734 42V23.1H93.3734V42H87.9734ZM87.5774 17.664C87.5774 16.824 87.8654 16.104 88.4414 15.504C89.0174 14.88 89.7614 14.568 90.6734 14.568C91.5854 14.568 92.3294 14.88 92.9054 15.504C93.4814 16.104 93.7694 16.824 93.7694 17.664C93.7694 18.504 93.4814 19.236 92.9054 19.86C92.3294 20.46 91.5854 20.76 90.6734 20.76C89.7614 20.76 89.0174 20.46 88.4414 19.86C87.8654 19.236 87.5774 18.504 87.5774 17.664ZM97.3264 37.032C97.3264 35.856 97.6384 34.812 98.2624 33.9C98.9104 32.988 99.8824 32.256 101.178 31.704C102.498 31.152 104.154 30.84 106.146 30.768L109.386 30.66V33.72L106.506 33.864C105.426 33.912 104.574 34.068 103.95 34.332C103.326 34.572 102.87 34.872 102.582 35.232C102.318 35.592 102.186 35.988 102.186 36.42C102.186 37.044 102.39 37.536 102.798 37.896C103.206 38.232 103.722 38.4 104.346 38.4C105.186 38.4 105.978 38.196 106.722 37.788C107.49 37.356 108.162 36.804 108.738 36.132V39.192C108.162 40.152 107.358 40.932 106.326 41.532C105.318 42.132 104.178 42.432 102.906 42.432C101.898 42.432 100.974 42.204 100.134 41.748C99.2944 41.292 98.6104 40.668 98.0824 39.876C97.5784 39.06 97.3264 38.112 97.3264 37.032ZM97.9384 24.252C98.8504 23.844 99.9544 23.484 101.25 23.172C102.546 22.836 103.926 22.668 105.39 22.668C107.022 22.668 108.45 22.956 109.674 23.532C110.898 24.108 111.858 24.96 112.554 26.088C113.25 27.216 113.598 28.608 113.598 30.264V37.5C113.598 38.004 113.61 38.46 113.634 38.868C113.682 39.252 113.754 39.708 113.85 40.236L114.138 42H108.882L108.198 38.4V30.552C108.198 29.496 107.898 28.668 107.298 28.068C106.722 27.468 105.81 27.168 104.562 27.168C103.554 27.168 102.606 27.312 101.718 27.6C100.854 27.864 100.074 28.164 99.3784 28.5L97.9384 24.252ZM118.265 23.1H123.521L124.205 26.88V42H118.805V27.6C118.805 27.096 118.781 26.652 118.733 26.268C118.709 25.86 118.649 25.392 118.553 24.864L118.265 23.1ZM123.665 30.192V26.808C124.409 25.512 125.333 24.504 126.437 23.784C127.541 23.04 128.741 22.668 130.037 22.668V27.996C128.621 27.996 127.433 28.152 126.473 28.464C125.537 28.776 124.601 29.352 123.665 30.192Z" fill="white"/>
</svg>
